<?xml version="1.0" encoding="UTF-8" standalone="no"?>
<!DOCTYPE svg PUBLIC "-//W3C//DTD SVG 1.1//EN"
 "http://www.w3.org/Graphics/SVG/1.1/DTD/svg11.dtd">
<!-- Generated by graphviz version 2.36.0 (20140111.2315)
 -->
<!-- Title: Phylogeny Pages: 1 -->
<svg width="418pt" height="432pt"
 viewBox="0.00 0.00 418.46 432.00" xmlns="http://www.w3.org/2000/svg" xmlns:xlink="http://www.w3.org/1999/xlink">
<g id="graph0" class="graph" transform="scale(0.914908 0.914908) rotate(0) translate(4 468.178)">
<title>Phylogeny</title>
<polygon fill="white" stroke="none" points="-4,4 -4,-468.178 453.383,-468.178 453.383,4 -4,4"/>
<!-- &#45;1 -->
<g id="node1" class="node"><title>&#45;1</title>
<ellipse fill="black" stroke="black" cx="63.6496" cy="-460.178" rx="1.8" ry="1.8"/>
</g>
<!-- 7 -->
<g id="node7" class="node"><title>7</title>
<ellipse fill="black" stroke="black" cx="7.64961" cy="-36.1784" rx="1.8" ry="1.8"/>
</g>
<!-- &#45;1&#45;&#45;7 -->
<g id="edge12" class="edge"><title>&#45;1&#45;&#45;7</title>
<path fill="none" stroke="black" stroke-width="4" d="M63.3999,-458.288C59.5337,-429.015 12.0055,-69.1585 7.92815,-38.2874"/>
<text text-anchor="middle" x="4" y="-3.74565" font-family="Times,serif" font-size="16.00">6</text>
</g>
<!-- &#45;2 -->
<g id="node8" class="node"><title>&#45;2</title>
<ellipse fill="black" stroke="black" cx="167.65" cy="-381.178" rx="1.8" ry="1.8"/>
</g>
<!-- &#45;1&#45;&#45;&#45;2 -->
<g id="edge1" class="edge"><title>&#45;1&#45;&#45;&#45;2</title>
<path fill="none" stroke="black" stroke-width="4" d="M64.8176,-458.314C75.5293,-450.383 156.536,-390.407 166.62,-382.941"/>
</g>
<!-- 1 -->
<g id="node2" class="node"><title>1</title>
<ellipse fill="black" stroke="black" cx="78.6496" cy="-36.1784" rx="1.8" ry="1.8"/>
</g>
<!-- 2 -->
<g id="node3" class="node"><title>2</title>
<ellipse fill="black" stroke="black" cx="148.65" cy="-36.1784" rx="1.8" ry="1.8"/>
</g>
<!-- 3 -->
<g id="node4" class="node"><title>3</title>
<ellipse fill="black" stroke="black" cx="218.65" cy="-36.1784" rx="1.8" ry="1.8"/>
</g>
<!-- 4 -->
<g id="node5" class="node"><title>4</title>
<ellipse fill="black" stroke="black" cx="315.65" cy="-36.1784" rx="1.8" ry="1.8"/>
</g>
<!-- 6 -->
<g id="node6" class="node"><title>6</title>
<ellipse fill="black" stroke="black" cx="434.65" cy="-36.1784" rx="1.8" ry="1.8"/>
</g>
<!-- &#45;3 -->
<g id="node9" class="node"><title>&#45;3</title>
<ellipse fill="black" stroke="black" cx="167.65" cy="-302.178" rx="1.8" ry="1.8"/>
</g>
<!-- &#45;2&#45;&#45;&#45;3 -->
<g id="edge2" class="edge"><title>&#45;2&#45;&#45;&#45;3</title>
<path fill="none" stroke="black" stroke-width="4" d="M167.65,-379.314C167.65,-371.449 167.65,-312.403 167.65,-304.138"/>
</g>
<!-- &#45;7 -->
<g id="node13" class="node"><title>&#45;7</title>
<ellipse fill="black" stroke="black" cx="341.65" cy="-261.178" rx="1.8" ry="1.8"/>
</g>
<!-- &#45;2&#45;&#45;&#45;7 -->
<g id="edge10" class="edge"><title>&#45;2&#45;&#45;&#45;7</title>
<path fill="none" stroke="black" stroke-width="4" d="M169.154,-380.141C185.098,-369.145 322.754,-274.21 339.899,-262.386"/>
</g>
<!-- &#45;4 -->
<g id="node10" class="node"><title>&#45;4</title>
<ellipse fill="black" stroke="black" cx="125.65" cy="-115.178" rx="1.8" ry="1.8"/>
</g>
<!-- &#45;3&#45;&#45;&#45;4 -->
<g id="edge3" class="edge"><title>&#45;3&#45;&#45;&#45;4</title>
<path fill="none" stroke="black" stroke-width="4" d="M167.178,-300.078C162.852,-280.818 130.138,-135.161 126.065,-117.029"/>
</g>
<!-- &#45;5 -->
<g id="node11" class="node"><title>&#45;5</title>
<ellipse fill="black" stroke="black" cx="219.65" cy="-220.178" rx="1.8" ry="1.8"/>
</g>
<!-- &#45;3&#45;&#45;&#45;5 -->
<g id="edge6" class="edge"><title>&#45;3&#45;&#45;&#45;5</title>
<path fill="none" stroke="black" stroke-width="4" d="M168.234,-300.28C173.589,-292.04 214.093,-229.727 219.135,-221.97"/>
</g>
<!-- &#45;4&#45;&#45;1 -->
<g id="edge4" class="edge"><title>&#45;4&#45;&#45;1</title>
<path fill="none" stroke="black" stroke-width="4" d="M125.122,-113.314C120.281,-105.383 83.672,-45.4066 79.1148,-37.9405"/>
<text text-anchor="middle" x="63.4847" y="-7.53387" font-family="Times,serif" font-size="16.00">1</text>
</g>
<!-- &#45;4&#45;&#45;2 -->
<g id="edge5" class="edge"><title>&#45;4&#45;&#45;2</title>
<path fill="none" stroke="black" stroke-width="4" d="M125.908,-113.314C128.257,-105.449 145.894,-46.4026 148.363,-38.1381"/>
<text text-anchor="middle" x="156.949" y="-4.59303" font-family="Times,serif" font-size="16.00">2</text>
</g>
<!-- &#45;5&#45;&#45;3 -->
<g id="edge7" class="edge"><title>&#45;5&#45;&#45;3</title>
<path fill="none" stroke="black" stroke-width="4" d="M219.638,-218.112C219.535,-199.161 218.756,-55.8405 218.66,-37.9996"/>
<text text-anchor="middle" x="218.496" y="-3.2" font-family="Times,serif" font-size="16.00">4</text>
</g>
<!-- 5 -->
<g id="node12" class="node"><title>5</title>
<ellipse fill="black" stroke="black" cx="315.65" cy="-115.178" rx="1.8" ry="1.8"/>
</g>
<!-- &#45;5&#45;&#45;5 -->
<g id="edge8" class="edge"><title>&#45;5&#45;&#45;5</title>
<path fill="none" stroke="#008b00" stroke-width="3.6" d="M220.728,-218.022C230.615,-207.413 305.391,-127.185 314.699,-117.198"/>
<text text-anchor="middle" x="298.161" y="-162.378" font-family="Times,serif" font-size="16.00"> γ = 0.9</text>
</g>
<!-- 5&#45;&#45;4 -->
<g id="edge9" class="edge"><title>5&#45;&#45;4</title>
<path fill="none" stroke="black" stroke-width="4" d="M315.65,-113.314C315.65,-105.449 315.65,-46.4026 315.65,-38.1381"/>
<text text-anchor="middle" x="315.65" y="-3.33807" font-family="Times,serif" font-size="16.00">3</text>
</g>
<!-- &#45;7&#45;&#45;6 -->
<g id="edge11" class="edge"><title>&#45;7&#45;&#45;6</title>
<path fill="none" stroke="black" stroke-width="4" d="M342.345,-259.497C350.39,-240.033 425.71,-57.8072 433.924,-37.9344"/>
<text text-anchor="middle" x="445.383" y="-5.40941" font-family="Times,serif" font-size="16.00">5</text>
</g>
</g>
</svg>
