<?xml version="1.0" encoding="UTF-8" standalone="no"?>
<!DOCTYPE svg PUBLIC "-//W3C//DTD SVG 1.1//EN"
 "http://www.w3.org/Graphics/SVG/1.1/DTD/svg11.dtd">
<!-- Generated by graphviz version 2.36.0 (20140111.2315)
 -->
<!-- Title: Phylogeny Pages: 1 -->
<svg width="432pt" height="420pt"
 viewBox="0.00 0.00 432.00 420.27" xmlns="http://www.w3.org/2000/svg" xmlns:xlink="http://www.w3.org/1999/xlink">
<g id="graph0" class="graph" transform="scale(0.871902 0.871902) rotate(0) translate(4 478.015)">
<title>Phylogeny</title>
<polygon fill="white" stroke="none" points="-4,4 -4,-478.015 491.469,-478.015 491.469,4 -4,4"/>
<!-- &#45;1 -->
<g id="node1" class="node"><title>&#45;1</title>
<ellipse fill="black" stroke="black" cx="54" cy="-471.015" rx="1.8" ry="1.8"/>
</g>
<!-- 7 -->
<g id="node7" class="node"><title>7</title>
<ellipse fill="black" stroke="black" cx="4" cy="-36.0154" rx="1.8" ry="1.8"/>
</g>
<!-- &#45;1&#45;&#45;7 -->
<g id="edge13" class="edge"><title>&#45;1&#45;&#45;7</title>
<path fill="none" stroke="black" stroke-width="4" d="M53.1322,-469.435C46.4927,-464.914 4,-434.595 4,-399.015 4,-399.015 4,-399.015 4,-116.015 4,-84.196 4,-45.1675 4,-38.1293"/>
<text text-anchor="middle" x="26.7344" y="-267.215" font-family="Times,serif" font-size="16.00"> l = 1.0</text>
<text text-anchor="middle" x="4" y="-3.32928" font-family="Times,serif" font-size="16.00">6</text>
</g>
<!-- &#45;2 -->
<g id="node8" class="node"><title>&#45;2</title>
<ellipse fill="black" stroke="black" cx="168" cy="-398.015" rx="1.8" ry="1.8"/>
</g>
<!-- &#45;1&#45;&#45;&#45;2 -->
<g id="edge1" class="edge"><title>&#45;1&#45;&#45;&#45;2</title>
<path fill="none" stroke="black" stroke-width="4" d="M55.2803,-469.218C67.0219,-461.905 155.818,-406.602 166.872,-399.718"/>
<text text-anchor="middle" x="144.734" y="-430.215" font-family="Times,serif" font-size="16.00"> l = 1.0</text>
</g>
<!-- 1 -->
<g id="node2" class="node"><title>1</title>
<ellipse fill="black" stroke="black" cx="64" cy="-36.0154" rx="1.8" ry="1.8"/>
</g>
<!-- 2 -->
<g id="node3" class="node"><title>2</title>
<ellipse fill="black" stroke="black" cx="150" cy="-36.0154" rx="1.8" ry="1.8"/>
</g>
<!-- 3 -->
<g id="node4" class="node"><title>3</title>
<ellipse fill="black" stroke="black" cx="219" cy="-36.0154" rx="1.8" ry="1.8"/>
</g>
<!-- 4 -->
<g id="node5" class="node"><title>4</title>
<ellipse fill="black" stroke="black" cx="334" cy="-36.0154" rx="1.8" ry="1.8"/>
</g>
<!-- 6 -->
<g id="node6" class="node"><title>6</title>
<ellipse fill="black" stroke="black" cx="442" cy="-36.0154" rx="1.8" ry="1.8"/>
</g>
<!-- &#45;3 -->
<g id="node9" class="node"><title>&#45;3</title>
<ellipse fill="black" stroke="black" cx="168" cy="-317.015" rx="1.8" ry="1.8"/>
</g>
<!-- &#45;2&#45;&#45;&#45;3 -->
<g id="edge2" class="edge"><title>&#45;2&#45;&#45;&#45;3</title>
<path fill="none" stroke="black" stroke-width="4" d="M168,-396.128C168,-388.059 168,-327.479 168,-319"/>
<text text-anchor="middle" x="190.734" y="-356.215" font-family="Times,serif" font-size="16.00"> l = 1.0</text>
</g>
<!-- &#45;7 -->
<g id="node13" class="node"><title>&#45;7</title>
<ellipse fill="black" stroke="black" cx="365" cy="-227.015" rx="1.8" ry="1.8"/>
</g>
<!-- &#45;2&#45;&#45;&#45;7 -->
<g id="edge10" class="edge"><title>&#45;2&#45;&#45;&#45;7</title>
<path fill="none" stroke="black" stroke-width="4" d="M169.423,-396.464C175.872,-393.929 202.863,-382.92 222,-369.015 289.694,-319.829 356.145,-238.941 364.187,-229.023"/>
<text text-anchor="middle" x="314.734" y="-312.215" font-family="Times,serif" font-size="16.00"> l = 1.0</text>
</g>
<!-- &#45;4 -->
<g id="node10" class="node"><title>&#45;4</title>
<ellipse fill="black" stroke="black" cx="141" cy="-117.015" rx="1.8" ry="1.8"/>
</g>
<!-- &#45;3&#45;&#45;&#45;4 -->
<g id="edge3" class="edge"><title>&#45;3&#45;&#45;&#45;4</title>
<path fill="none" stroke="black" stroke-width="4" d="M167.88,-315.133C166.008,-301.407 142.913,-132.042 141.111,-118.831"/>
<text text-anchor="middle" x="179.734" y="-222.215" font-family="Times,serif" font-size="16.00"> l = 1.0</text>
</g>
<!-- &#45;5 -->
<g id="node11" class="node"><title>&#45;5</title>
<ellipse fill="black" stroke="black" cx="224" cy="-227.015" rx="1.8" ry="1.8"/>
</g>
<!-- &#45;3&#45;&#45;&#45;5 -->
<g id="edge6" class="edge"><title>&#45;3&#45;&#45;&#45;5</title>
<path fill="none" stroke="black" stroke-width="4" d="M168.629,-315.027C174.397,-305.963 218.016,-237.419 223.446,-228.886"/>
<text text-anchor="middle" x="224.734" y="-267.215" font-family="Times,serif" font-size="16.00"> l = 1.0</text>
</g>
<!-- &#45;4&#45;&#45;1 -->
<g id="edge4" class="edge"><title>&#45;4&#45;&#45;1</title>
<path fill="none" stroke="black" stroke-width="4" d="M139.567,-115.308C133.091,-112.054 106.147,-97.9188 89.5312,-80.0154 76.3016,-65.7609 66.6765,-43.5299 64.4769,-38.1949"/>
<text text-anchor="middle" x="112.734" y="-67.2154" font-family="Times,serif" font-size="16.00"> l = 1.0</text>
<text text-anchor="middle" x="52.813" y="-5.75523" font-family="Times,serif" font-size="16.00">1</text>
</g>
<!-- &#45;4&#45;&#45;2 -->
<g id="edge5" class="edge"><title>&#45;4&#45;&#45;2</title>
<path fill="none" stroke="black" stroke-width="4" d="M141.076,-114.725C141.427,-108.863 142.991,-84.1547 145.531,-64.0154 146.816,-53.8334 149.114,-41.6119 149.801,-38.0412"/>
<text text-anchor="middle" x="168.734" y="-67.2154" font-family="Times,serif" font-size="16.00"> l = 1.0</text>
<text text-anchor="middle" x="155.422" y="-3.77254" font-family="Times,serif" font-size="16.00">2</text>
</g>
<!-- &#45;5&#45;&#45;3 -->
<g id="edge7" class="edge"><title>&#45;5&#45;&#45;3</title>
<path fill="none" stroke="black" stroke-width="4" d="M223.978,-225.173C223.634,-212.177 219.423,-53.0234 219.03,-38.1313"/>
<text text-anchor="middle" x="244.734" y="-112.215" font-family="Times,serif" font-size="16.00"> l = 1.0</text>
<text text-anchor="middle" x="218.236" y="-3.34181" font-family="Times,serif" font-size="16.00">3</text>
</g>
<!-- 5 -->
<g id="node12" class="node"><title>5</title>
<ellipse fill="black" stroke="black" cx="334" cy="-117.015" rx="1.8" ry="1.8"/>
</g>
<!-- &#45;5&#45;&#45;5 -->
<g id="edge8" class="edge"><title>&#45;5&#45;&#45;5</title>
<path fill="none" stroke="#008b00" stroke-width="3.6" d="M224.632,-225.302C229.528,-219.785 261.976,-183.406 290.531,-156.015 306.735,-140.473 327.863,-123.036 332.892,-118.92"/>
<text text-anchor="middle" x="313.734" y="-167.215" font-family="Times,serif" font-size="16.00"> l = 1.0</text>
</g>
<!-- 5&#45;&#45;4 -->
<g id="edge9" class="edge"><title>5&#45;&#45;4</title>
<path fill="none" stroke="black" stroke-width="4" d="M334,-115.128C334,-107.059 334,-46.4792 334,-38"/>
<text text-anchor="middle" x="356.734" y="-67.2154" font-family="Times,serif" font-size="16.00"> l = 1.0</text>
<text text-anchor="middle" x="334" y="-3.2" font-family="Times,serif" font-size="16.00">4</text>
</g>
<!-- &#45;7&#45;&#45;6 -->
<g id="edge12" class="edge"><title>&#45;7&#45;&#45;6</title>
<path fill="none" stroke="black" stroke-width="4" d="M366.25,-225.53C372.829,-222.906 403.634,-209.724 417,-188.015 450.436,-133.711 443.152,-48.5125 442.111,-38.0749"/>
<text text-anchor="middle" x="464.734" y="-112.215" font-family="Times,serif" font-size="16.00"> l = 1.0</text>
<text text-anchor="middle" x="439.543" y="-3.38499" font-family="Times,serif" font-size="16.00">5</text>
</g>
<!-- &#45;7&#45;&#45;5 -->
<g id="edge11" class="edge"><title>&#45;7&#45;&#45;5</title>
<path fill="none" stroke="#008b00" stroke-width="0.4" d="M364.652,-224.803C361.459,-213.679 337.313,-129.556 334.307,-119.084"/>
<text text-anchor="middle" x="381.512" y="-175.215" font-family="Times,serif" font-size="16.00"> γ = 0.1 </text>
<text text-anchor="middle" x="381.512" y="-159.215" font-family="Times,serif" font-size="16.00"> l = 1.0</text>
</g>
</g>
</svg>
