<?xml version="1.0" encoding="UTF-8" standalone="no"?>
<!DOCTYPE svg PUBLIC "-//W3C//DTD SVG 1.1//EN"
 "http://www.w3.org/Graphics/SVG/1.1/DTD/svg11.dtd">
<!-- Generated by graphviz version 2.36.0 (20140111.2315)
 -->
<!-- Title: Phylogeny Pages: 1 -->
<svg width="422pt" height="432pt"
 viewBox="0.00 0.00 422.27 432.00" xmlns="http://www.w3.org/2000/svg" xmlns:xlink="http://www.w3.org/1999/xlink">
<g id="graph0" class="graph" transform="scale(0.914908 0.914908) rotate(0) translate(4 468.179)">
<title>Phylogeny</title>
<polygon fill="white" stroke="none" points="-4,4 -4,-468.179 457.546,-468.179 457.546,4 -4,4"/>
<!-- &#45;1 -->
<g id="node1" class="node"><title>&#45;1</title>
<ellipse fill="black" stroke="black" cx="73.2226" cy="-460.179" rx="1.8" ry="1.8"/>
</g>
<!-- 7 -->
<g id="node7" class="node"><title>7</title>
<ellipse fill="black" stroke="black" cx="8.22265" cy="-36.1785" rx="1.8" ry="1.8"/>
</g>
<!-- &#45;1&#45;&#45;7 -->
<g id="edge13" class="edge"><title>&#45;1&#45;&#45;7</title>
<path fill="none" stroke="black" stroke-width="4" d="M72.9328,-458.288C68.4452,-429.015 13.2785,-69.1585 8.54595,-38.2874"/>
<text text-anchor="middle" x="4" y="-3.83387" font-family="Times,serif" font-size="16.00">6</text>
</g>
<!-- &#45;2 -->
<g id="node8" class="node"><title>&#45;2</title>
<ellipse fill="black" stroke="black" cx="165.223" cy="-375.179" rx="1.8" ry="1.8"/>
</g>
<!-- &#45;1&#45;&#45;&#45;2 -->
<g id="edge1" class="edge"><title>&#45;1&#45;&#45;&#45;2</title>
<path fill="none" stroke="black" stroke-width="4" d="M74.2559,-458.246C83.7316,-449.698 155.392,-385.048 164.312,-377"/>
</g>
<!-- 1 -->
<g id="node2" class="node"><title>1</title>
<ellipse fill="black" stroke="black" cx="87.2226" cy="-36.1785" rx="1.8" ry="1.8"/>
</g>
<!-- 2 -->
<g id="node3" class="node"><title>2</title>
<ellipse fill="black" stroke="black" cx="158.223" cy="-36.1785" rx="1.8" ry="1.8"/>
</g>
<!-- 3 -->
<g id="node4" class="node"><title>3</title>
<ellipse fill="black" stroke="black" cx="234.223" cy="-36.1785" rx="1.8" ry="1.8"/>
</g>
<!-- 4 -->
<g id="node5" class="node"><title>4</title>
<ellipse fill="black" stroke="black" cx="334.223" cy="-36.1785" rx="1.8" ry="1.8"/>
</g>
<!-- 6 -->
<g id="node6" class="node"><title>6</title>
<ellipse fill="black" stroke="black" cx="435.223" cy="-36.1785" rx="1.8" ry="1.8"/>
</g>
<!-- &#45;3 -->
<g id="node9" class="node"><title>&#45;3</title>
<ellipse fill="black" stroke="black" cx="165.223" cy="-290.179" rx="1.8" ry="1.8"/>
</g>
<!-- &#45;2&#45;&#45;&#45;3 -->
<g id="edge2" class="edge"><title>&#45;2&#45;&#45;&#45;3</title>
<path fill="none" stroke="black" stroke-width="4" d="M165.223,-373.246C165.223,-364.698 165.223,-300.048 165.223,-292"/>
</g>
<!-- &#45;7 -->
<g id="node13" class="node"><title>&#45;7</title>
<ellipse fill="black" stroke="black" cx="334.223" cy="-206.179" rx="1.8" ry="1.8"/>
</g>
<!-- &#45;2&#45;&#45;&#45;7 -->
<g id="edge10" class="edge"><title>&#45;2&#45;&#45;&#45;7</title>
<path fill="none" stroke="black" stroke-width="4" d="M166.684,-373.718C182.298,-358.103 318.107,-222.294 332.914,-207.487"/>
</g>
<!-- &#45;4 -->
<g id="node10" class="node"><title>&#45;4</title>
<ellipse fill="black" stroke="black" cx="133.223" cy="-121.179" rx="1.8" ry="1.8"/>
</g>
<!-- &#45;3&#45;&#45;&#45;4 -->
<g id="edge3" class="edge"><title>&#45;3&#45;&#45;&#45;4</title>
<path fill="none" stroke="black" stroke-width="4" d="M164.863,-288.281C161.595,-271.019 137.056,-141.424 133.621,-123.285"/>
</g>
<!-- &#45;5 -->
<g id="node11" class="node"><title>&#45;5</title>
<ellipse fill="black" stroke="black" cx="239.223" cy="-206.179" rx="1.8" ry="1.8"/>
</g>
<!-- &#45;3&#45;&#45;&#45;5 -->
<g id="edge6" class="edge"><title>&#45;3&#45;&#45;&#45;5</title>
<path fill="none" stroke="black" stroke-width="4" d="M166.054,-288.258C173.675,-279.812 231.315,-215.941 238.49,-207.99"/>
</g>
<!-- &#45;4&#45;&#45;1 -->
<g id="edge4" class="edge"><title>&#45;4&#45;&#45;1</title>
<path fill="none" stroke="black" stroke-width="4" d="M132.706,-119.246C127.968,-110.698 92.1382,-46.0478 87.6779,-38"/>
<text text-anchor="middle" x="73.1355" y="-6.96038" font-family="Times,serif" font-size="16.00">1</text>
</g>
<!-- &#45;4&#45;&#45;2 -->
<g id="edge5" class="edge"><title>&#45;4&#45;&#45;2</title>
<path fill="none" stroke="black" stroke-width="4" d="M133.503,-119.246C136.078,-110.698 155.551,-46.0478 157.975,-38"/>
<text text-anchor="middle" x="166.627" y="-4.47475" font-family="Times,serif" font-size="16.00">2</text>
</g>
<!-- &#45;5&#45;&#45;3 -->
<g id="edge7" class="edge"><title>&#45;5&#45;&#45;3</title>
<path fill="none" stroke="black" stroke-width="4" d="M239.166,-204.269C238.656,-186.906 234.822,-56.5435 234.285,-38.2972"/>
<text text-anchor="middle" x="233.403" y="-3.51014" font-family="Times,serif" font-size="16.00">3</text>
</g>
<!-- 5 -->
<g id="node12" class="node"><title>5</title>
<ellipse fill="black" stroke="black" cx="334.223" cy="-121.179" rx="1.8" ry="1.8"/>
</g>
<!-- &#45;5&#45;&#45;5 -->
<g id="edge8" class="edge"><title>&#45;5&#45;&#45;5</title>
<path fill="none" stroke="#008b00" stroke-width="3.6" d="M240.29,-204.246C250.074,-195.698 324.071,-131.048 333.282,-123"/>
</g>
<!-- 5&#45;&#45;4 -->
<g id="edge9" class="edge"><title>5&#45;&#45;4</title>
<path fill="none" stroke="black" stroke-width="4" d="M334.223,-119.246C334.223,-110.698 334.223,-46.0478 334.223,-38"/>
<text text-anchor="middle" x="334.223" y="-3.2" font-family="Times,serif" font-size="16.00">4</text>
</g>
<!-- &#45;7&#45;&#45;6 -->
<g id="edge12" class="edge"><title>&#45;7&#45;&#45;6</title>
<path fill="none" stroke="black" stroke-width="4" d="M335.357,-204.269C345.76,-186.76 424.43,-54.3446 434.223,-37.8611"/>
<text text-anchor="middle" x="449.546" y="-7.26959" font-family="Times,serif" font-size="16.00">5</text>
</g>
<!-- &#45;7&#45;&#45;5 -->
<g id="edge11" class="edge"><title>&#45;7&#45;&#45;5</title>
<path fill="none" stroke="#008b00" stroke-width="0.4" d="M334.223,-204.246C334.223,-195.698 334.223,-131.048 334.223,-123"/>
</g>
</g>
</svg>
