<?xml version="1.0" encoding="UTF-8" standalone="no"?>
<!DOCTYPE svg PUBLIC "-//W3C//DTD SVG 1.1//EN"
 "http://www.w3.org/Graphics/SVG/1.1/DTD/svg11.dtd">
<!-- Generated by graphviz version 2.36.0 (20140111.2315)
 -->
<!-- Title: %3 Pages: 1 -->
<svg width="278pt" height="260pt"
 viewBox="0.00 0.00 278.00 260.00" xmlns="http://www.w3.org/2000/svg" xmlns:xlink="http://www.w3.org/1999/xlink">
<g id="graph0" class="graph" transform="scale(1 1) rotate(0) translate(4 256)">
<title>%3</title>
<polygon fill="white" stroke="none" points="-4,4 -4,-256 274,-256 274,4 -4,4"/>
<!-- a -->
<g id="node1" class="node"><title>a</title>
<ellipse fill="none" stroke="black" cx="135" cy="-234" rx="27" ry="18"/>
<text text-anchor="middle" x="135" y="-229.8" font-family="Times,serif" font-size="14.00">a</text>
</g>
<!-- b -->
<g id="node2" class="node"><title>b</title>
<ellipse fill="none" stroke="black" cx="99" cy="-162" rx="27" ry="18"/>
<text text-anchor="middle" x="99" y="-157.8" font-family="Times,serif" font-size="14.00">b</text>
</g>
<!-- a&#45;&#45;b -->
<g id="edge1" class="edge"><title>a&#45;&#45;b</title>
<path fill="none" stroke="black" d="M126.65,-216.765C120.835,-205.456 113.11,-190.437 107.304,-179.147"/>
</g>
<!-- c -->
<g id="node3" class="node"><title>c</title>
<ellipse fill="none" stroke="black" cx="171" cy="-162" rx="27" ry="18"/>
<text text-anchor="middle" x="171" y="-157.8" font-family="Times,serif" font-size="14.00">c</text>
</g>
<!-- a&#45;&#45;c -->
<g id="edge2" class="edge"><title>a&#45;&#45;c</title>
<path fill="none" stroke="black" d="M143.35,-216.765C149.165,-205.456 156.89,-190.437 162.696,-179.147"/>
</g>
<!-- d -->
<g id="node4" class="node"><title>d</title>
<ellipse fill="none" stroke="black" cx="27" cy="-90" rx="27" ry="18"/>
<text text-anchor="middle" x="27" y="-85.8" font-family="Times,serif" font-size="14.00">d</text>
</g>
<!-- b&#45;&#45;d -->
<g id="edge3" class="edge"><title>b&#45;&#45;d</title>
<path fill="none" stroke="black" d="M84.4297,-146.834C72.0202,-134.77 54.2694,-117.512 41.7957,-105.385"/>
</g>
<!-- e -->
<g id="node5" class="node"><title>e</title>
<ellipse fill="none" stroke="black" cx="99" cy="-90" rx="27" ry="18"/>
<text text-anchor="middle" x="99" y="-85.8" font-family="Times,serif" font-size="14.00">e</text>
</g>
<!-- b&#45;&#45;e -->
<g id="edge4" class="edge"><title>b&#45;&#45;e</title>
<path fill="none" stroke="black" d="M99,-143.697C99,-132.846 99,-118.917 99,-108.104"/>
</g>
<!-- f -->
<g id="node6" class="node"><title>f</title>
<ellipse fill="none" stroke="black" cx="171" cy="-90" rx="27" ry="18"/>
<text text-anchor="middle" x="171" y="-85.8" font-family="Times,serif" font-size="14.00">f</text>
</g>
<!-- c&#45;&#45;f -->
<g id="edge5" class="edge"><title>c&#45;&#45;f</title>
<path fill="none" stroke="black" d="M171,-143.697C171,-132.846 171,-118.917 171,-108.104"/>
</g>
<!-- g -->
<g id="node7" class="node"><title>g</title>
<ellipse fill="none" stroke="black" cx="243" cy="-90" rx="27" ry="18"/>
<text text-anchor="middle" x="243" y="-85.8" font-family="Times,serif" font-size="14.00">g</text>
</g>
<!-- c&#45;&#45;g -->
<g id="edge6" class="edge"><title>c&#45;&#45;g</title>
<path fill="none" stroke="black" d="M185.57,-146.834C197.98,-134.77 215.731,-117.512 228.204,-105.385"/>
</g>
<!-- h -->
<g id="node8" class="node"><title>h</title>
<ellipse fill="none" stroke="black" cx="135" cy="-18" rx="27" ry="18"/>
<text text-anchor="middle" x="135" y="-13.8" font-family="Times,serif" font-size="14.00">h</text>
</g>
<!-- f&#45;&#45;h -->
<g id="edge7" class="edge"><title>f&#45;&#45;h</title>
<path fill="none" stroke="black" d="M162.65,-72.7646C156.835,-61.456 149.11,-46.4367 143.304,-35.1473"/>
</g>
<!-- i -->
<g id="node9" class="node"><title>i</title>
<ellipse fill="none" stroke="black" cx="207" cy="-18" rx="27" ry="18"/>
<text text-anchor="middle" x="207" y="-13.8" font-family="Times,serif" font-size="14.00">i</text>
</g>
<!-- f&#45;&#45;i -->
<g id="edge8" class="edge"><title>f&#45;&#45;i</title>
<path fill="none" stroke="black" d="M179.35,-72.7646C185.165,-61.456 192.89,-46.4367 198.696,-35.1473"/>
</g>
</g>
</svg>
