<?xml version="1.0" encoding="UTF-8"?>
<svg xmlns="http://www.w3.org/2000/svg"
     xmlns:xlink="http://www.w3.org/1999/xlink"
     version="1.2"
     width="101.6mm" height="101.6mm" viewBox="0 0 101.6 101.6"
     stroke="none"
     fill="#000000"
     stroke-width="0.3"
     font-size="3.88"
>
<g stroke-width="0.67" stroke="#BBBBBB" id="fig-8cace2acfed940c7bec480c57fe338f9-element-1">
  <path fill="none" d="M54.62,12.1 L 56.88 10.37"/>
  <path fill="none" d="M54.04,10.24 L 56.88 10.37"/>
  <path fill="none" d="M48.23,13.09 L 56.88 10.37"/>
  <path fill="none" d="M45.29,10.21 L 42.5 9.68"/>
  <path fill="none" d="M44.29,11.88 L 42.5 9.68"/>
  <path fill="none" d="M48.23,13.09 L 42.5 9.68"/>
  <path fill="none" d="M37.93,18.83 L 36.25 21.12"/>
  <path fill="none" d="M39.01,20.44 L 36.25 21.12"/>
  <path fill="none" d="M48.23,13.09 L 36.25 21.12"/>
  <path fill="none" d="M11.74,44.81 L 10.29 47.25"/>
  <path fill="none" d="M12.97,46.31 L 10.29 47.25"/>
  <path fill="none" d="M25.56,34.69 L 10.29 47.25"/>
  <path fill="none" d="M32.16,27.1 L 32.92 24.37"/>
  <path fill="none" d="M30.58,25.98 L 32.92 24.37"/>
  <path fill="none" d="M25.56,34.69 L 32.92 24.37"/>
  <path fill="none" d="M50.22,17.81 L 48.72 15.4"/>
  <path fill="none" d="M48.32,18.22 L 48.72 15.4"/>
  <path fill="none" d="M52.79,34.63 L 48.72 15.4"/>
  <path fill="none" d="M30.6,33.71 L 27.93 34.69"/>
  <path fill="none" d="M30.6,35.65 L 27.93 34.69"/>
  <path fill="none" d="M52.79,34.63 L 27.93 34.69"/>
  <path fill="none" d="M68.62,19.87 L 69.79 17.28"/>
  <path fill="none" d="M67.23,18.51 L 69.79 17.28"/>
  <path fill="none" d="M52.79,34.63 L 69.79 17.28"/>
  <path fill="none" d="M47.23,27.5 L 44.67 26.26"/>
  <path fill="none" d="M45.83,28.85 L 44.67 26.26"/>
  <path fill="none" d="M52.79,34.63 L 44.67 26.26"/>
  <path fill="none" d="M36.51,52.93 L 35.56 55.61"/>
  <path fill="none" d="M38.01,54.16 L 35.56 55.61"/>
  <path fill="none" d="M52.79,34.63 L 35.56 55.61"/>
  <path fill="none" d="M66.6,64.63 L 68.66 66.59"/>
  <path fill="none" d="M68.34,63.77 L 68.66 66.59"/>
  <path fill="none" d="M52.79,34.63 L 68.66 66.59"/>
  <path fill="none" d="M58.83,14.78 L 58.55 11.95"/>
  <path fill="none" d="M56.95,14.3 L 58.55 11.95"/>
  <path fill="none" d="M52.79,34.63 L 58.55 11.95"/>
  <path fill="none" d="M43.49,12.61 L 41.47 10.61"/>
  <path fill="none" d="M41.73,13.44 L 41.47 10.61"/>
  <path fill="none" d="M52.79,34.63 L 41.47 10.61"/>
  <path fill="none" d="M39.03,24.4 L 36.26 23.74"/>
  <path fill="none" d="M37.96,26.02 L 36.26 23.74"/>
  <path fill="none" d="M52.79,34.63 L 36.26 23.74"/>
  <path fill="none" d="M72.67,29.12 L 74.9 27.37"/>
  <path fill="none" d="M72.06,27.28 L 74.9 27.37"/>
  <path fill="none" d="M52.79,34.63 L 74.9 27.37"/>
  <path fill="none" d="M68.8,39.09 L 71.61 38.71"/>
  <path fill="none" d="M69.21,37.19 L 71.61 38.71"/>
  <path fill="none" d="M52.79,34.63 L 71.61 38.71"/>
  <path fill="none" d="M47.84,56.59 L 48.32 59.39"/>
  <path fill="none" d="M49.75,56.94 L 48.32 59.39"/>
  <path fill="none" d="M52.79,34.63 L 48.32 59.39"/>
  <path fill="none" d="M39.41,22.68 L 36.59 23"/>
  <path fill="none" d="M38.95,24.57 L 36.59 23"/>
  <path fill="none" d="M43.03,24.56 L 36.59 23"/>
  <path fill="none" d="M18.27,60.27 L 20.83 61.51"/>
  <path fill="none" d="M19.67,58.91 L 20.83 61.51"/>
  <path fill="none" d="M8.47,48.76 L 20.83 61.51"/>
  <path fill="none" d="M51,65.8 L 48.95 63.84"/>
  <path fill="none" d="M49.26,66.66 L 48.95 63.84"/>
  <path fill="none" d="M56.49,79.13 L 48.95 63.84"/>
  <path fill="none" d="M20.81,68.06 L 21.3 65.26"/>
  <path fill="none" d="M19.12,67.09 L 21.3 65.26"/>
  <path fill="none" d="M16.26,74.02 L 21.3 65.26"/>
  <path fill="none" d="M26.55,60.09 L 24.59 62.15"/>
  <path fill="none" d="M27.41,61.83 L 24.59 62.15"/>
  <path fill="none" d="M34.06,57.44 L 24.59 62.15"/>
  <path fill="none" d="M19.28,69.88 L 17.99 72.41"/>
  <path fill="none" d="M20.61,71.3 L 17.99 72.41"/>
  <path fill="none" d="M34.06,57.44 L 17.99 72.41"/>
  <path fill="none" d="M42.8,61.16 L 45.64 61.02"/>
  <path fill="none" d="M43.38,59.3 L 45.64 61.02"/>
  <path fill="none" d="M34.06,57.44 L 45.64 61.02"/>
  <path fill="none" d="M72.93,88.41 L 74.44 90.82"/>
  <path fill="none" d="M74.83,88.01 L 74.44 90.82"/>
  <path fill="none" d="M69.71,68.71 L 74.44 90.82"/>
  <path fill="none" d="M83.24,83.27 L 85.83 84.44"/>
  <path fill="none" d="M84.6,81.88 L 85.83 84.44"/>
  <path fill="none" d="M69.71,68.71 L 85.83 84.44"/>
  <path fill="none" d="M59.84,75.25 L 58.35 77.67"/>
  <path fill="none" d="M61.05,76.78 L 58.35 77.67"/>
  <path fill="none" d="M69.71,68.71 L 58.35 77.67"/>
  <path fill="none" d="M88.01,73.02 L 90.8 72.54"/>
  <path fill="none" d="M88.35,71.11 L 90.8 72.54"/>
  <path fill="none" d="M69.71,68.71 L 90.8 72.54"/>
  <path fill="none" d="M52.99,62.33 L 50.15 62.44"/>
  <path fill="none" d="M52.4,64.18 L 50.15 62.44"/>
  <path fill="none" d="M69.71,68.71 L 50.15 62.44"/>
  <path fill="none" d="M27.44,61.94 L 24.84 63.07"/>
  <path fill="none" d="M27.56,63.88 L 24.84 63.07"/>
  <path fill="none" d="M47.9,61.72 L 24.84 63.07"/>
</g>
<g stroke="#BBBBBB" fill="#AAAAFF" id="fig-8cace2acfed940c7bec480c57fe338f9-element-2">
  <circle cx="48.23" cy="13.09" r="2.37"/>
  <circle cx="74.94" cy="93.13" r="2.37"/>
  <circle cx="25.56" cy="34.69" r="2.37"/>
  <circle cx="52.79" cy="34.63" r="2.37"/>
  <circle cx="87.52" cy="86.09" r="2.37"/>
  <circle cx="22.47" cy="63.21" r="2.37"/>
  <circle cx="71.45" cy="15.59" r="2.37"/>
  <circle cx="43.03" cy="24.56" r="2.37"/>
  <circle cx="8.47" cy="48.76" r="2.37"/>
  <circle cx="56.49" cy="79.13" r="2.37"/>
  <circle cx="16.26" cy="74.02" r="2.37"/>
  <circle cx="34.06" cy="57.44" r="2.37"/>
  <circle cx="69.71" cy="68.71" r="2.37"/>
  <circle cx="59.13" cy="9.66" r="2.37"/>
  <circle cx="40.46" cy="8.47" r="2.37"/>
  <circle cx="93.13" cy="72.96" r="2.37"/>
  <circle cx="34.29" cy="22.44" r="2.37"/>
  <circle cx="77.15" cy="26.63" r="2.37"/>
  <circle cx="73.92" cy="39.21" r="2.37"/>
  <circle cx="47.9" cy="61.72" r="2.37"/>
</g>
<g font-size="4" stroke="#000000" stroke-opacity="0.000" fill="#000000" id="fig-8cace2acfed940c7bec480c57fe338f9-element-3">
  <text x="48.23" y="13.09" text-anchor="middle" dy="0.35em">Compose</text>
  <text x="74.94" y="93.13" text-anchor="middle" dy="0.35em">Reexport</text>
  <text x="25.56" y="34.69" text-anchor="middle" dy="0.35em">Loess</text>
  <text x="52.79" y="34.63" text-anchor="middle" dy="0.35em">Gadfly</text>
  <text x="87.52" y="86.09" text-anchor="middle" dy="0.35em">GZip</text>
  <text x="22.47" y="63.21" text-anchor="middle" dy="0.35em">ArrayViews</text>
  <text x="71.45" y="15.59" text-anchor="middle" dy="0.35em">Datetime</text>
  <text x="43.03" y="24.56" text-anchor="middle" dy="0.35em">Codecs</text>
  <text x="8.47" y="48.76" text-anchor="middle" dy="0.35em">Distance</text>
  <text x="56.49" y="79.13" text-anchor="middle" dy="0.35em">DataArrays</text>
  <text x="16.26" y="74.02" text-anchor="middle" dy="0.35em">PDMats</text>
  <text x="34.06" y="57.44" text-anchor="middle" dy="0.35em">Distributions</text>
  <text x="69.71" y="68.71" text-anchor="middle" dy="0.35em">DataFrames</text>
  <text x="59.13" y="9.66" text-anchor="middle" dy="0.35em">JSON</text>
  <text x="40.46" y="8.47" text-anchor="middle" dy="0.35em">Color</text>
  <text x="93.13" y="72.96" text-anchor="middle" dy="0.35em">SortingAlgorithms</text>
  <text x="34.29" y="22.44" text-anchor="middle" dy="0.35em">Iterators</text>
  <text x="77.15" y="26.63" text-anchor="middle" dy="0.35em">DataStructures</text>
  <text x="73.92" y="39.21" text-anchor="middle" dy="0.35em">Hexagons</text>
  <text x="47.9" y="61.72" text-anchor="middle" dy="0.35em">StatsBase</text>
</g>
</svg>
