<?xml version="1.0" encoding="UTF-8" standalone="no"?>
<!DOCTYPE svg PUBLIC "-//W3C//DTD SVG 1.1//EN"
 "http://www.w3.org/Graphics/SVG/1.1/DTD/svg11.dtd">
<!-- Generated by graphviz version 2.36.0 (20140111.2315)
 -->
<!-- Title: Phylogeny Pages: 1 -->
<svg width="432pt" height="412pt"
 viewBox="0.00 0.00 432.00 412.19" xmlns="http://www.w3.org/2000/svg" xmlns:xlink="http://www.w3.org/1999/xlink">
<g id="graph0" class="graph" transform="scale(0.317952 0.317952) rotate(0) translate(4 1292.41)">
<title>Phylogeny</title>
<polygon fill="white" stroke="none" points="-4,4 -4,-1292.41 1354.7,-1292.41 1354.7,4 -4,4"/>
<!-- &#45;1 -->
<g id="node1" class="node"><title>&#45;1</title>
<ellipse fill="black" stroke="black" cx="4" cy="-1204.75" rx="1.8" ry="1.8"/>
</g>
<!-- 1 -->
<g id="node2" class="node"><title>1</title>
<ellipse fill="black" stroke="black" cx="1255" cy="-1278.75" rx="1.8" ry="1.8"/>
</g>
<!-- &#45;1&#45;&#45;1 -->
<g id="edge1" class="edge"><title>&#45;1&#45;&#45;1</title>
<path fill="none" stroke="black" stroke-width="4" d="M6.02937,-1204.87C60.6427,-1208.1 1199.7,-1275.48 1253.06,-1278.63"/>
<text text-anchor="middle" x="1283.01" y="-1275.61" font-family="Times,serif" font-size="16.00">Xgordoni</text>
</g>
<!-- 2 -->
<g id="node3" class="node"><title>2</title>
<ellipse fill="black" stroke="black" cx="1255" cy="-1204.75" rx="1.8" ry="1.8"/>
</g>
<!-- &#45;1&#45;&#45;2 -->
<g id="edge2" class="edge"><title>&#45;1&#45;&#45;2</title>
<path fill="none" stroke="black" stroke-width="4" d="M6.02937,-1204.75C60.6427,-1204.75 1199.7,-1204.75 1253.06,-1204.75"/>
<text text-anchor="middle" x="1283.06" y="-1199.95" font-family="Times,serif" font-size="16.00">Xmeyeri</text>
</g>
<!-- &#45;2 -->
<g id="node26" class="node"><title>&#45;2</title>
<ellipse fill="black" stroke="black" cx="84" cy="-1130.75" rx="1.8" ry="1.8"/>
</g>
<!-- &#45;1&#45;&#45;&#45;2 -->
<g id="edge3" class="edge"><title>&#45;1&#45;&#45;&#45;2</title>
<path fill="none" stroke="black" stroke-width="4" d="M5.87598,-1203.92C13.9097,-1196.3 74.665,-1138.66 82.228,-1131.48"/>
</g>
<!-- 3 -->
<g id="node4" class="node"><title>3</title>
<ellipse fill="black" stroke="black" cx="1255" cy="-1130.75" rx="1.8" ry="1.8"/>
</g>
<!-- 4 -->
<g id="node5" class="node"><title>4</title>
<ellipse fill="black" stroke="black" cx="1255" cy="-1056.75" rx="1.8" ry="1.8"/>
</g>
<!-- 5 -->
<g id="node6" class="node"><title>5</title>
<ellipse fill="black" stroke="black" cx="1255" cy="-982.748" rx="1.8" ry="1.8"/>
</g>
<!-- 6 -->
<g id="node7" class="node"><title>6</title>
<ellipse fill="black" stroke="black" cx="1255" cy="-834.748" rx="1.8" ry="1.8"/>
</g>
<!-- 7 -->
<g id="node8" class="node"><title>7</title>
<ellipse fill="black" stroke="black" cx="1255" cy="-760.748" rx="1.8" ry="1.8"/>
</g>
<!-- 8 -->
<g id="node9" class="node"><title>8</title>
<ellipse fill="black" stroke="black" cx="1255" cy="-708.748" rx="1.8" ry="1.8"/>
</g>
<!-- 9 -->
<g id="node10" class="node"><title>9</title>
<ellipse fill="black" stroke="black" cx="1255" cy="-665.748" rx="1.8" ry="1.8"/>
</g>
<!-- 10 -->
<g id="node11" class="node"><title>10</title>
<ellipse fill="black" stroke="black" cx="1255" cy="-538.748" rx="1.8" ry="1.8"/>
</g>
<!-- 11 -->
<g id="node12" class="node"><title>11</title>
<ellipse fill="black" stroke="black" cx="1255" cy="-495.748" rx="1.8" ry="1.8"/>
</g>
<!-- 12 -->
<g id="node13" class="node"><title>12</title>
<ellipse fill="black" stroke="black" cx="1255" cy="-452.748" rx="1.8" ry="1.8"/>
</g>
<!-- 13 -->
<g id="node14" class="node"><title>13</title>
<ellipse fill="black" stroke="black" cx="1255" cy="-612.748" rx="1.8" ry="1.8"/>
</g>
<!-- 14 -->
<g id="node15" class="node"><title>14</title>
<ellipse fill="black" stroke="black" cx="1255" cy="-366.748" rx="1.8" ry="1.8"/>
</g>
<!-- 15 -->
<g id="node16" class="node"><title>15</title>
<ellipse fill="black" stroke="black" cx="1255" cy="-323.748" rx="1.8" ry="1.8"/>
</g>
<!-- 16 -->
<g id="node17" class="node"><title>16</title>
<ellipse fill="black" stroke="black" cx="1255" cy="-409.748" rx="1.8" ry="1.8"/>
</g>
<!-- 17 -->
<g id="node18" class="node"><title>17</title>
<ellipse fill="black" stroke="black" cx="1255" cy="-280.748" rx="1.8" ry="1.8"/>
</g>
<!-- 18 -->
<g id="node19" class="node"><title>18</title>
<ellipse fill="black" stroke="black" cx="1255" cy="-237.748" rx="1.8" ry="1.8"/>
</g>
<!-- 19 -->
<g id="node20" class="node"><title>19</title>
<ellipse fill="black" stroke="black" cx="1255" cy="-194.748" rx="1.8" ry="1.8"/>
</g>
<!-- 20 -->
<g id="node21" class="node"><title>20</title>
<ellipse fill="black" stroke="black" cx="1255" cy="-151.748" rx="1.8" ry="1.8"/>
</g>
<!-- 21 -->
<g id="node22" class="node"><title>21</title>
<ellipse fill="black" stroke="black" cx="1255" cy="-108.748" rx="1.8" ry="1.8"/>
</g>
<!-- 22 -->
<g id="node23" class="node"><title>22</title>
<ellipse fill="black" stroke="black" cx="1255" cy="-65.7483" rx="1.8" ry="1.8"/>
</g>
<!-- 24 -->
<g id="node24" class="node"><title>24</title>
<ellipse fill="black" stroke="black" cx="1255" cy="-908.748" rx="1.8" ry="1.8"/>
</g>
<!-- 25 -->
<g id="node25" class="node"><title>25</title>
<ellipse fill="black" stroke="black" cx="1255" cy="-22.7483" rx="1.8" ry="1.8"/>
</g>
<!-- &#45;2&#45;&#45;3 -->
<g id="edge4" class="edge"><title>&#45;2&#45;&#45;3</title>
<path fill="none" stroke="black" stroke-width="4" d="M85.8996,-1130.75C137.02,-1130.75 1203.24,-1130.75 1253.19,-1130.75"/>
<text text-anchor="middle" x="1283.19" y="-1125.95" font-family="Times,serif" font-size="16.00">Xcouchianus</text>
</g>
<!-- &#45;3 -->
<g id="node27" class="node"><title>&#45;3</title>
<ellipse fill="black" stroke="black" cx="165" cy="-1056.75" rx="1.8" ry="1.8"/>
</g>
<!-- &#45;2&#45;&#45;&#45;3 -->
<g id="edge5" class="edge"><title>&#45;2&#45;&#45;&#45;3</title>
<path fill="none" stroke="black" stroke-width="4" d="M85.8872,-1129.92C94.024,-1122.3 155.558,-1064.66 163.218,-1057.48"/>
</g>
<!-- &#45;3&#45;&#45;4 -->
<g id="edge6" class="edge"><title>&#45;3&#45;&#45;4</title>
<path fill="none" stroke="black" stroke-width="4" d="M167.072,-1056.75C218.314,-1056.75 1203.06,-1056.75 1253.03,-1056.75"/>
<text text-anchor="middle" x="1283.03" y="-1051.95" font-family="Times,serif" font-size="16.00">Xvariatus</text>
</g>
<!-- &#45;4 -->
<g id="node28" class="node"><title>&#45;4</title>
<ellipse fill="black" stroke="black" cx="246" cy="-982.748" rx="1.8" ry="1.8"/>
</g>
<!-- &#45;3&#45;&#45;&#45;4 -->
<g id="edge7" class="edge"><title>&#45;3&#45;&#45;&#45;4</title>
<path fill="none" stroke="black" stroke-width="4" d="M166.887,-1055.92C175.024,-1048.3 236.558,-990.656 244.218,-983.481"/>
</g>
<!-- &#45;4&#45;&#45;5 -->
<g id="edge8" class="edge"><title>&#45;4&#45;&#45;5</title>
<path fill="none" stroke="black" stroke-width="4" d="M247.918,-982.748C295.352,-982.748 1206.92,-982.748 1253.18,-982.748"/>
<text text-anchor="middle" x="1283.18" y="-977.948" font-family="Times,serif" font-size="16.00">Xevelynae</text>
</g>
<!-- &#45;5 -->
<g id="node29" class="node"><title>&#45;5</title>
<ellipse fill="black" stroke="black" cx="326" cy="-873.748" rx="1.8" ry="1.8"/>
</g>
<!-- &#45;4&#45;&#45;&#45;5 -->
<g id="edge9" class="edge"><title>&#45;4&#45;&#45;&#45;5</title>
<path fill="none" stroke="black" stroke-width="4" d="M247.876,-981.524C255.91,-970.298 316.665,-885.396 324.228,-874.827"/>
</g>
<!-- &#45;6 -->
<g id="node30" class="node"><title>&#45;6</title>
<ellipse fill="black" stroke="black" cx="407" cy="-873.748" rx="1.8" ry="1.8"/>
</g>
<!-- &#45;5&#45;&#45;&#45;6 -->
<g id="edge10" class="edge"><title>&#45;5&#45;&#45;&#45;6</title>
<path fill="none" stroke="black" stroke-width="4" d="M327.887,-873.748C335.956,-873.748 396.536,-873.748 405.015,-873.748"/>
</g>
<!-- &#45;24 -->
<g id="node48" class="node"><title>&#45;24</title>
<ellipse fill="black" stroke="black" cx="649" cy="-396.748" rx="1.8" ry="1.8"/>
</g>
<!-- &#45;5&#45;&#45;&#45;24 -->
<g id="edge46" class="edge"><title>&#45;5&#45;&#45;&#45;24</title>
<path fill="none" stroke="black" stroke-width="4" d="M327.17,-872.021C347.568,-841.896 628.203,-427.46 647.91,-398.358"/>
</g>
<!-- &#45;6&#45;&#45;24 -->
<g id="edge45" class="edge"><title>&#45;6&#45;&#45;24</title>
<path fill="none" stroke="black" stroke-width="4" d="M408.867,-873.825C451.37,-875.58 1205.6,-906.709 1252.7,-908.653"/>
<text text-anchor="middle" x="1282.67" y="-905.09" font-family="Times,serif" font-size="16.00">Xmilleri</text>
</g>
<!-- &#45;7 -->
<g id="node31" class="node"><title>&#45;7</title>
<ellipse fill="black" stroke="black" cx="487" cy="-834.748" rx="1.8" ry="1.8"/>
</g>
<!-- &#45;6&#45;&#45;&#45;7 -->
<g id="edge11" class="edge"><title>&#45;6&#45;&#45;&#45;7</title>
<path fill="none" stroke="black" stroke-width="4" d="M408.876,-873.31C416.91,-869.293 477.665,-838.916 485.228,-835.134"/>
</g>
<!-- &#45;7&#45;&#45;6 -->
<g id="edge12" class="edge"><title>&#45;7&#45;&#45;6</title>
<path fill="none" stroke="black" stroke-width="4" d="M489.203,-834.748C532.842,-834.748 1210.61,-834.748 1252.93,-834.748"/>
<text text-anchor="middle" x="1282.93" y="-829.948" font-family="Times,serif" font-size="16.00">Xandersi</text>
</g>
<!-- &#45;8 -->
<g id="node32" class="node"><title>&#45;8</title>
<ellipse fill="black" stroke="black" cx="568" cy="-760.748" rx="1.8" ry="1.8"/>
</g>
<!-- &#45;7&#45;&#45;&#45;8 -->
<g id="edge13" class="edge"><title>&#45;7&#45;&#45;&#45;8</title>
<path fill="none" stroke="black" stroke-width="4" d="M488.887,-833.917C497.024,-826.295 558.558,-768.656 566.218,-761.481"/>
</g>
<!-- &#45;8&#45;&#45;7 -->
<g id="edge14" class="edge"><title>&#45;8&#45;&#45;7</title>
<path fill="none" stroke="black" stroke-width="4" d="M569.971,-760.748C609.007,-760.748 1215.29,-760.748 1253.15,-760.748"/>
<text text-anchor="middle" x="1283.15" y="-755.948" font-family="Times,serif" font-size="16.00">Xmaculatus</text>
</g>
<!-- &#45;9 -->
<g id="node33" class="node"><title>&#45;9</title>
<ellipse fill="black" stroke="black" cx="649" cy="-651.748" rx="1.8" ry="1.8"/>
</g>
<!-- &#45;8&#45;&#45;&#45;9 -->
<g id="edge15" class="edge"><title>&#45;8&#45;&#45;&#45;9</title>
<path fill="none" stroke="black" stroke-width="4" d="M569.887,-759.524C578.024,-748.298 639.558,-663.396 647.218,-652.827"/>
</g>
<!-- &#45;10 -->
<g id="node34" class="node"><title>&#45;10</title>
<ellipse fill="black" stroke="black" cx="933" cy="-651.748" rx="1.8" ry="1.8"/>
</g>
<!-- &#45;9&#45;&#45;&#45;10 -->
<g id="edge16" class="edge"><title>&#45;9&#45;&#45;&#45;10</title>
<path fill="none" stroke="black" stroke-width="4" d="M650.814,-651.748C673.773,-651.748 907.4,-651.748 931.068,-651.748"/>
</g>
<!-- 23 -->
<g id="node39" class="node"><title>23</title>
<ellipse fill="black" stroke="black" cx="852" cy="-396.748" rx="1.8" ry="1.8"/>
</g>
<!-- &#45;9&#45;&#45;23 -->
<g id="edge27" class="edge"><title>&#45;9&#45;&#45;23</title>
<path fill="none" stroke="#008b00" stroke-width="3.336" d="M650.896,-650.611C664.83,-632.934 836.761,-414.813 850.172,-397.799"/>
</g>
<!-- &#45;11 -->
<g id="node35" class="node"><title>&#45;11</title>
<ellipse fill="black" stroke="black" cx="1175" cy="-686.748" rx="1.8" ry="1.8"/>
</g>
<!-- &#45;10&#45;&#45;&#45;11 -->
<g id="edge17" class="edge"><title>&#45;10&#45;&#45;&#45;11</title>
<path fill="none" stroke="black" stroke-width="4" d="M934.809,-652.01C955.743,-655.038 1151.74,-683.384 1173.11,-686.475"/>
</g>
<!-- &#45;12 -->
<g id="node36" class="node"><title>&#45;12</title>
<ellipse fill="black" stroke="black" cx="1013" cy="-612.748" rx="1.8" ry="1.8"/>
</g>
<!-- &#45;10&#45;&#45;&#45;12 -->
<g id="edge20" class="edge"><title>&#45;10&#45;&#45;&#45;12</title>
<path fill="none" stroke="black" stroke-width="4" d="M934.876,-651.31C942.91,-647.293 1003.66,-616.916 1011.23,-613.134"/>
</g>
<!-- &#45;11&#45;&#45;8 -->
<g id="edge18" class="edge"><title>&#45;11&#45;&#45;8</title>
<path fill="none" stroke="black" stroke-width="4" d="M1176.88,-686.995C1184.84,-689.242 1244.66,-706.113 1253.03,-708.474"/>
<text text-anchor="middle" x="1281.9" y="-711.818" font-family="Times,serif" font-size="16.00">Xclemenciae_F2</text>
</g>
<!-- &#45;11&#45;&#45;9 -->
<g id="edge19" class="edge"><title>&#45;11&#45;&#45;9</title>
<path fill="none" stroke="black" stroke-width="4" d="M1176.88,-686.512C1184.84,-684.368 1244.66,-668.264 1253.03,-666.01"/>
<text text-anchor="middle" x="1282" y="-653.411" font-family="Times,serif" font-size="16.00">Xmonticolus</text>
</g>
<!-- &#45;12&#45;&#45;13 -->
<g id="edge26" class="edge"><title>&#45;12&#45;&#45;13</title>
<path fill="none" stroke="black" stroke-width="4" d="M1014.81,-612.748C1035.74,-612.748 1231.74,-612.748 1253.11,-612.748"/>
<text text-anchor="middle" x="1283.11" y="-607.948" font-family="Times,serif" font-size="16.00">Xsignum</text>
</g>
<!-- &#45;13 -->
<g id="node37" class="node"><title>&#45;13</title>
<ellipse fill="black" stroke="black" cx="1094" cy="-538.748" rx="1.8" ry="1.8"/>
</g>
<!-- &#45;12&#45;&#45;&#45;13 -->
<g id="edge21" class="edge"><title>&#45;12&#45;&#45;&#45;13</title>
<path fill="none" stroke="black" stroke-width="4" d="M1014.89,-611.917C1023.02,-604.295 1084.56,-546.656 1092.22,-539.481"/>
</g>
<!-- &#45;13&#45;&#45;10 -->
<g id="edge22" class="edge"><title>&#45;13&#45;&#45;10</title>
<path fill="none" stroke="black" stroke-width="4" d="M1095.81,-538.748C1112.25,-538.748 1235.71,-538.748 1252.99,-538.748"/>
<text text-anchor="middle" x="1282.99" y="-533.948" font-family="Times,serif" font-size="16.00">Xhellerii</text>
</g>
<!-- &#45;14 -->
<g id="node38" class="node"><title>&#45;14</title>
<ellipse fill="black" stroke="black" cx="1175" cy="-481.748" rx="1.8" ry="1.8"/>
</g>
<!-- &#45;13&#45;&#45;&#45;14 -->
<g id="edge23" class="edge"><title>&#45;13&#45;&#45;&#45;14</title>
<path fill="none" stroke="black" stroke-width="4" d="M1095.89,-538.108C1104.02,-532.237 1165.56,-487.839 1173.22,-482.312"/>
</g>
<!-- &#45;14&#45;&#45;11 -->
<g id="edge24" class="edge"><title>&#45;14&#45;&#45;11</title>
<path fill="none" stroke="black" stroke-width="4" d="M1176.88,-481.906C1184.84,-483.335 1244.66,-494.071 1253.03,-495.574"/>
<text text-anchor="middle" x="1282.56" y="-496.074" font-family="Times,serif" font-size="16.00">Xalvarezi</text>
</g>
<!-- &#45;14&#45;&#45;12 -->
<g id="edge25" class="edge"><title>&#45;14&#45;&#45;12</title>
<path fill="none" stroke="black" stroke-width="4" d="M1176.88,-481.423C1184.84,-478.461 1244.66,-456.222 1253.03,-453.11"/>
<text text-anchor="middle" x="1281.15" y="-437.855" font-family="Times,serif" font-size="16.00">Xmayae</text>
</g>
<!-- &#45;16 -->
<g id="node40" class="node"><title>&#45;16</title>
<ellipse fill="black" stroke="black" cx="933" cy="-309.748" rx="1.8" ry="1.8"/>
</g>
<!-- 23&#45;&#45;&#45;16 -->
<g id="edge28" class="edge"><title>23&#45;&#45;&#45;16</title>
<path fill="none" stroke="black" stroke-width="4" d="M853.887,-395.771C862.024,-386.811 923.558,-319.045 931.218,-310.609"/>
</g>
<!-- &#45;17 -->
<g id="node41" class="node"><title>&#45;17</title>
<ellipse fill="black" stroke="black" cx="1013" cy="-309.748" rx="1.8" ry="1.8"/>
</g>
<!-- &#45;16&#45;&#45;&#45;17 -->
<g id="edge29" class="edge"><title>&#45;16&#45;&#45;&#45;17</title>
<path fill="none" stroke="black" stroke-width="4" d="M934.876,-309.748C942.843,-309.748 1002.66,-309.748 1011.03,-309.748"/>
</g>
<!-- &#45;21 -->
<g id="node45" class="node"><title>&#45;21</title>
<ellipse fill="black" stroke="black" cx="1094" cy="-183.748" rx="1.8" ry="1.8"/>
</g>
<!-- &#45;16&#45;&#45;&#45;21 -->
<g id="edge38" class="edge"><title>&#45;16&#45;&#45;&#45;21</title>
<path fill="none" stroke="black" stroke-width="4" d="M934.808,-308.333C951.391,-295.356 1076.8,-197.213 1092.41,-184.995"/>
</g>
<!-- &#45;18 -->
<g id="node42" class="node"><title>&#45;18</title>
<ellipse fill="black" stroke="black" cx="1094" cy="-348.748" rx="1.8" ry="1.8"/>
</g>
<!-- &#45;17&#45;&#45;&#45;18 -->
<g id="edge30" class="edge"><title>&#45;17&#45;&#45;&#45;18</title>
<path fill="none" stroke="black" stroke-width="4" d="M1014.89,-310.186C1023.02,-314.203 1084.56,-344.581 1092.22,-348.362"/>
</g>
<!-- &#45;20 -->
<g id="node44" class="node"><title>&#45;20</title>
<ellipse fill="black" stroke="black" cx="1175" cy="-280.748" rx="1.8" ry="1.8"/>
</g>
<!-- &#45;17&#45;&#45;&#45;20 -->
<g id="edge35" class="edge"><title>&#45;17&#45;&#45;&#45;20</title>
<path fill="none" stroke="black" stroke-width="4" d="M1014.82,-309.423C1031.37,-306.461 1155.59,-284.222 1172.98,-281.11"/>
</g>
<!-- &#45;18&#45;&#45;16 -->
<g id="edge34" class="edge"><title>&#45;18&#45;&#45;16</title>
<path fill="none" stroke="black" stroke-width="4" d="M1095.81,-349.433C1112.25,-355.664 1235.71,-402.441 1252.99,-408.988"/>
<text text-anchor="middle" x="1281.05" y="-414.817" font-family="Times,serif" font-size="16.00">Xcortezi</text>
</g>
<!-- &#45;19 -->
<g id="node43" class="node"><title>&#45;19</title>
<ellipse fill="black" stroke="black" cx="1175" cy="-348.748" rx="1.8" ry="1.8"/>
</g>
<!-- &#45;18&#45;&#45;&#45;19 -->
<g id="edge31" class="edge"><title>&#45;18&#45;&#45;&#45;19</title>
<path fill="none" stroke="black" stroke-width="4" d="M1095.89,-348.748C1103.96,-348.748 1164.54,-348.748 1173.02,-348.748"/>
</g>
<!-- &#45;19&#45;&#45;14 -->
<g id="edge32" class="edge"><title>&#45;19&#45;&#45;14</title>
<path fill="none" stroke="black" stroke-width="4" d="M1176.88,-348.95C1184.84,-350.789 1244.66,-364.592 1253.03,-366.524"/>
<text text-anchor="middle" x="1282.26" y="-368.47" font-family="Times,serif" font-size="16.00">Xbirchmanni_GARC</text>
</g>
<!-- &#45;19&#45;&#45;15 -->
<g id="edge33" class="edge"><title>&#45;19&#45;&#45;15</title>
<path fill="none" stroke="black" stroke-width="4" d="M1176.88,-348.468C1184.84,-345.914 1244.66,-326.743 1253.03,-324.06"/>
<text text-anchor="middle" x="1281.6" y="-310.103" font-family="Times,serif" font-size="16.00">Xmalinche_CHIC2</text>
</g>
<!-- &#45;20&#45;&#45;17 -->
<g id="edge36" class="edge"><title>&#45;20&#45;&#45;17</title>
<path fill="none" stroke="black" stroke-width="4" d="M1176.88,-280.748C1184.84,-280.748 1244.66,-280.748 1253.03,-280.748"/>
<text text-anchor="middle" x="1283.03" y="-275.948" font-family="Times,serif" font-size="16.00">Xmontezumae</text>
</g>
<!-- &#45;20&#45;&#45;18 -->
<g id="edge37" class="edge"><title>&#45;20&#45;&#45;18</title>
<path fill="none" stroke="black" stroke-width="4" d="M1176.88,-280.265C1184.91,-275.837 1245.66,-242.343 1253.23,-238.174"/>
<text text-anchor="middle" x="1279.5" y="-218.89" font-family="Times,serif" font-size="16.00">Xnezahuacoyotl</text>
</g>
<!-- &#45;22 -->
<g id="node46" class="node"><title>&#45;22</title>
<ellipse fill="black" stroke="black" cx="1175" cy="-183.748" rx="1.8" ry="1.8"/>
</g>
<!-- &#45;21&#45;&#45;&#45;22 -->
<g id="edge39" class="edge"><title>&#45;21&#45;&#45;&#45;22</title>
<path fill="none" stroke="black" stroke-width="4" d="M1095.89,-183.748C1103.96,-183.748 1164.54,-183.748 1173.02,-183.748"/>
</g>
<!-- &#45;23 -->
<g id="node47" class="node"><title>&#45;23</title>
<ellipse fill="black" stroke="black" cx="1175" cy="-108.748" rx="1.8" ry="1.8"/>
</g>
<!-- &#45;21&#45;&#45;&#45;23 -->
<g id="edge42" class="edge"><title>&#45;21&#45;&#45;&#45;23</title>
<path fill="none" stroke="black" stroke-width="4" d="M1095.89,-182.906C1104.02,-175.181 1165.56,-116.763 1173.22,-109.491"/>
</g>
<!-- &#45;22&#45;&#45;19 -->
<g id="edge40" class="edge"><title>&#45;22&#45;&#45;19</title>
<path fill="none" stroke="black" stroke-width="4" d="M1176.88,-183.872C1184.84,-184.995 1244.66,-193.431 1253.03,-194.611"/>
<text text-anchor="middle" x="1282.73" y="-194.001" font-family="Times,serif" font-size="16.00">Xcontinens</text>
</g>
<!-- &#45;22&#45;&#45;20 -->
<g id="edge41" class="edge"><title>&#45;22&#45;&#45;20</title>
<path fill="none" stroke="black" stroke-width="4" d="M1176.88,-183.389C1184.91,-180.093 1245.66,-155.168 1253.23,-152.065"/>
<text text-anchor="middle" x="1280.98" y="-135.878" font-family="Times,serif" font-size="16.00">Xpygmaeus</text>
</g>
<!-- &#45;23&#45;&#45;21 -->
<g id="edge43" class="edge"><title>&#45;23&#45;&#45;21</title>
<path fill="none" stroke="black" stroke-width="4" d="M1176.88,-108.748C1184.84,-108.748 1244.66,-108.748 1253.03,-108.748"/>
<text text-anchor="middle" x="1283.03" y="-103.948" font-family="Times,serif" font-size="16.00">Xnigrensis</text>
</g>
<!-- &#45;23&#45;&#45;22 -->
<g id="edge44" class="edge"><title>&#45;23&#45;&#45;22</title>
<path fill="none" stroke="black" stroke-width="4" d="M1176.88,-108.265C1184.91,-103.837 1245.66,-70.3432 1253.23,-66.1739"/>
<text text-anchor="middle" x="1279.5" y="-46.8904" font-family="Times,serif" font-size="16.00">Xmultilineatus</text>
</g>
<!-- &#45;24&#45;&#45;25 -->
<g id="edge47" class="edge"><title>&#45;24&#45;&#45;25</title>
<path fill="none" stroke="black" stroke-width="4" d="M650.738,-395.675C685.172,-374.424 1219.98,-44.3638 1253.37,-23.7558"/>
<text text-anchor="middle" x="1278.9" y="-3.2" font-family="Times,serif" font-size="16.00">Xxiphidium</text>
</g>
<!-- &#45;24&#45;&#45;23 -->
<g id="edge48" class="edge"><title>&#45;24&#45;&#45;23</title>
<path fill="none" stroke="#008b00" stroke-width="0.664" d="M650.896,-396.748C664.83,-396.748 836.761,-396.748 850.172,-396.748"/>
<text text-anchor="middle" x="750" y="-399.948" font-family="Times,serif" font-size="16.00"> γ = 0.166</text>
</g>
</g>
</svg>
