<?xml version="1.0" encoding="UTF-8" standalone="no"?>
<!DOCTYPE svg PUBLIC "-//W3C//DTD SVG 1.1//EN"
 "http://www.w3.org/Graphics/SVG/1.1/DTD/svg11.dtd">
<!-- Generated by graphviz version 2.36.0 (20140111.2315)
 -->
<!-- Title: Phylogeny Pages: 1 -->
<svg width="428pt" height="432pt"
 viewBox="0.00 0.00 427.52 432.00" xmlns="http://www.w3.org/2000/svg" xmlns:xlink="http://www.w3.org/1999/xlink">
<g id="graph0" class="graph" transform="scale(0.650558 0.650558) rotate(0) translate(4 660.046)">
<title>Phylogeny</title>
<polygon fill="white" stroke="none" points="-4,4 -4,-660.046 653.164,-660.046 653.164,4 -4,4"/>
<!-- &#45;1 -->
<g id="node1" class="node"><title>&#45;1</title>
<ellipse fill="black" stroke="black" cx="113.669" cy="-654.046" rx="1.8" ry="1.8"/>
</g>
<!-- 12 -->
<g id="node10" class="node"><title>12</title>
<ellipse fill="black" stroke="black" cx="8.66942" cy="-36.0456" rx="1.8" ry="1.8"/>
</g>
<!-- &#45;1&#45;&#45;12 -->
<g id="edge23" class="edge"><title>&#45;1&#45;&#45;12</title>
<path fill="none" stroke="black" stroke-width="4" d="M113.33,-652.047C107.042,-615.036 15.4569,-75.9945 9.02507,-38.1389"/>
<text text-anchor="middle" x="4" y="-3.76274" font-family="Times,serif" font-size="16.00">2</text>
</g>
<!-- &#45;2 -->
<g id="node12" class="node"><title>&#45;2</title>
<ellipse fill="black" stroke="black" cx="113.669" cy="-602.046" rx="1.8" ry="1.8"/>
</g>
<!-- &#45;1&#45;&#45;&#45;2 -->
<g id="edge1" class="edge"><title>&#45;1&#45;&#45;&#45;2</title>
<path fill="none" stroke="black" stroke-width="4" d="M113.669,-652.178C113.669,-646.161 113.669,-610.698 113.669,-604.101"/>
</g>
<!-- &#45;14 -->
<g id="node24" class="node"><title>&#45;14</title>
<ellipse fill="black" stroke="black" cx="218.669" cy="-602.046" rx="1.8" ry="1.8"/>
</g>
<!-- &#45;1&#45;&#45;&#45;14 -->
<g id="edge24" class="edge"><title>&#45;1&#45;&#45;&#45;14</title>
<path fill="none" stroke="black" stroke-width="4" d="M114.849,-652.484C125.663,-647.334 207.449,-608.389 217.63,-603.54"/>
</g>
<!-- 1 -->
<g id="node2" class="node"><title>1</title>
<ellipse fill="black" stroke="black" cx="82.6694" cy="-36.0456" rx="1.8" ry="1.8"/>
</g>
<!-- 2 -->
<g id="node3" class="node"><title>2</title>
<ellipse fill="black" stroke="black" cx="156.669" cy="-36.0456" rx="1.8" ry="1.8"/>
</g>
<!-- 3 -->
<g id="node4" class="node"><title>3</title>
<ellipse fill="black" stroke="black" cx="209.669" cy="-36.0456" rx="1.8" ry="1.8"/>
</g>
<!-- 4 -->
<g id="node5" class="node"><title>4</title>
<ellipse fill="black" stroke="black" cx="252.669" cy="-36.0456" rx="1.8" ry="1.8"/>
</g>
<!-- 6 -->
<g id="node6" class="node"><title>6</title>
<ellipse fill="black" stroke="black" cx="378.669" cy="-36.0456" rx="1.8" ry="1.8"/>
</g>
<!-- 7 -->
<g id="node7" class="node"><title>7</title>
<ellipse fill="black" stroke="black" cx="458.669" cy="-36.0456" rx="1.8" ry="1.8"/>
</g>
<!-- 9 -->
<g id="node8" class="node"><title>9</title>
<ellipse fill="black" stroke="black" cx="554.669" cy="-36.0456" rx="1.8" ry="1.8"/>
</g>
<!-- 10 -->
<g id="node9" class="node"><title>10</title>
<ellipse fill="black" stroke="black" cx="304.669" cy="-36.0456" rx="1.8" ry="1.8"/>
</g>
<!-- 13 -->
<g id="node11" class="node"><title>13</title>
<ellipse fill="black" stroke="black" cx="628.669" cy="-36.0456" rx="1.8" ry="1.8"/>
</g>
<!-- &#45;2&#45;&#45;1 -->
<g id="edge2" class="edge"><title>&#45;2&#45;&#45;1</title>
<path fill="none" stroke="black" stroke-width="4" d="M113.557,-599.996C111.599,-564.251 84.6654,-72.488 82.774,-37.9551"/>
<text text-anchor="middle" x="81.1334" y="-3.2" font-family="Times,serif" font-size="16.00">4</text>
</g>
<!-- 11 -->
<g id="node13" class="node"><title>11</title>
<ellipse fill="black" stroke="black" cx="218.669" cy="-534.046" rx="1.8" ry="1.8"/>
</g>
<!-- &#45;2&#45;&#45;11 -->
<g id="edge3" class="edge"><title>&#45;2&#45;&#45;11</title>
<path fill="none" stroke="#008b00" stroke-width="2.976" d="M114.849,-600.304C125.663,-593.507 207.449,-542.098 217.63,-535.699"/>
</g>
<!-- &#45;4 -->
<g id="node14" class="node"><title>&#45;4</title>
<ellipse fill="black" stroke="black" cx="223.669" cy="-482.046" rx="1.8" ry="1.8"/>
</g>
<!-- 11&#45;&#45;&#45;4 -->
<g id="edge4" class="edge"><title>11&#45;&#45;&#45;4</title>
<path fill="none" stroke="black" stroke-width="4" d="M218.756,-532.178C219.358,-526.161 222.904,-490.698 223.564,-484.101"/>
</g>
<!-- &#45;5 -->
<g id="node15" class="node"><title>&#45;5</title>
<ellipse fill="black" stroke="black" cx="223.669" cy="-431.046" rx="1.8" ry="1.8"/>
</g>
<!-- &#45;4&#45;&#45;&#45;5 -->
<g id="edge5" class="edge"><title>&#45;4&#45;&#45;&#45;5</title>
<path fill="none" stroke="black" stroke-width="4" d="M223.669,-480.195C223.669,-474.298 223.669,-439.545 223.669,-433.08"/>
</g>
<!-- 5 -->
<g id="node18" class="node"><title>5</title>
<ellipse fill="black" stroke="black" cx="363.669" cy="-311.046" rx="1.8" ry="1.8"/>
</g>
<!-- &#45;4&#45;&#45;5 -->
<g id="edge12" class="edge"><title>&#45;4&#45;&#45;5</title>
<path fill="none" stroke="#008b00" stroke-width="3.996" d="M224.88,-480.567C237.708,-464.898 348.466,-329.615 362.261,-312.766"/>
</g>
<!-- &#45;5&#45;&#45;2 -->
<g id="edge6" class="edge"><title>&#45;5&#45;&#45;2</title>
<path fill="none" stroke="black" stroke-width="4" d="M223.309,-428.92C218.262,-399.166 161.839,-66.5258 157,-37.9946"/>
<text text-anchor="middle" x="151.983" y="-3.61702" font-family="Times,serif" font-size="16.00">5</text>
</g>
<!-- &#45;6 -->
<g id="node16" class="node"><title>&#45;6</title>
<ellipse fill="black" stroke="black" cx="230.669" cy="-379.046" rx="1.8" ry="1.8"/>
</g>
<!-- &#45;5&#45;&#45;&#45;6 -->
<g id="edge7" class="edge"><title>&#45;5&#45;&#45;&#45;6</title>
<path fill="none" stroke="black" stroke-width="4" d="M223.791,-429.178C224.633,-423.161 229.598,-387.698 230.522,-381.101"/>
</g>
<!-- &#45;7 -->
<g id="node17" class="node"><title>&#45;7</title>
<ellipse fill="black" stroke="black" cx="230.669" cy="-88.0456" rx="1.8" ry="1.8"/>
</g>
<!-- &#45;6&#45;&#45;&#45;7 -->
<g id="edge8" class="edge"><title>&#45;6&#45;&#45;&#45;7</title>
<path fill="none" stroke="black" stroke-width="4" d="M230.669,-377.187C230.669,-353.662 230.669,-114.277 230.669,-90.0247"/>
</g>
<!-- &#45;6&#45;&#45;5 -->
<g id="edge11" class="edge"><title>&#45;6&#45;&#45;5</title>
<path fill="none" stroke="#008b00" stroke-width="0.004" d="M232.163,-377.304C245.862,-370.507 349.457,-319.098 362.353,-312.699"/>
<text text-anchor="middle" x="319.181" y="-340.246" font-family="Times,serif" font-size="16.00"> γ = 0.001</text>
</g>
<!-- &#45;7&#45;&#45;3 -->
<g id="edge9" class="edge"><title>&#45;7&#45;&#45;3</title>
<path fill="none" stroke="black" stroke-width="4" d="M230.305,-86.1777C227.778,-80.1607 212.883,-44.6978 210.113,-38.1014"/>
<text text-anchor="middle" x="198.496" y="-5.64198" font-family="Times,serif" font-size="16.00">7</text>
</g>
<!-- &#45;7&#45;&#45;4 -->
<g id="edge10" class="edge"><title>&#45;7&#45;&#45;4</title>
<path fill="none" stroke="black" stroke-width="4" d="M231.051,-86.1777C233.699,-80.1607 249.302,-44.6978 252.205,-38.1014"/>
<text text-anchor="middle" x="264.287" y="-5.842" font-family="Times,serif" font-size="16.00">6</text>
</g>
<!-- &#45;9 -->
<g id="node19" class="node"><title>&#45;9</title>
<ellipse fill="black" stroke="black" cx="363.669" cy="-259.046" rx="1.8" ry="1.8"/>
</g>
<!-- 5&#45;&#45;&#45;9 -->
<g id="edge13" class="edge"><title>5&#45;&#45;&#45;9</title>
<path fill="none" stroke="black" stroke-width="4" d="M363.669,-309.178C363.669,-303.161 363.669,-267.698 363.669,-261.101"/>
</g>
<!-- &#45;9&#45;&#45;10 -->
<g id="edge22" class="edge"><title>&#45;9&#45;&#45;10</title>
<path fill="none" stroke="black" stroke-width="4" d="M363.159,-257.118C357.753,-236.684 311.076,-60.2618 305.263,-38.2889"/>
<text text-anchor="middle" x="297.59" y="-4.48677" font-family="Times,serif" font-size="16.00">8</text>
</g>
<!-- &#45;10 -->
<g id="node20" class="node"><title>&#45;10</title>
<ellipse fill="black" stroke="black" cx="394.669" cy="-208.046" rx="1.8" ry="1.8"/>
</g>
<!-- &#45;9&#45;&#45;&#45;10 -->
<g id="edge14" class="edge"><title>&#45;9&#45;&#45;&#45;10</title>
<path fill="none" stroke="black" stroke-width="4" d="M364.207,-257.195C367.938,-251.298 389.925,-216.545 394.015,-210.08"/>
</g>
<!-- &#45;11 -->
<g id="node21" class="node"><title>&#45;11</title>
<ellipse fill="black" stroke="black" cx="394.669" cy="-156.046" rx="1.8" ry="1.8"/>
</g>
<!-- &#45;10&#45;&#45;&#45;11 -->
<g id="edge15" class="edge"><title>&#45;10&#45;&#45;&#45;11</title>
<path fill="none" stroke="black" stroke-width="4" d="M394.669,-206.178C394.669,-200.161 394.669,-164.698 394.669,-158.101"/>
</g>
<!-- &#45;13 -->
<g id="node23" class="node"><title>&#45;13</title>
<ellipse fill="black" stroke="black" cx="481.669" cy="-156.046" rx="1.8" ry="1.8"/>
</g>
<!-- &#45;10&#45;&#45;&#45;13 -->
<g id="edge19" class="edge"><title>&#45;10&#45;&#45;&#45;13</title>
<path fill="none" stroke="black" stroke-width="4" d="M395.646,-206.484C404.533,-201.377 471.247,-163.035 480.585,-157.669"/>
</g>
<!-- &#45;11&#45;&#45;6 -->
<g id="edge16" class="edge"><title>&#45;11&#45;&#45;6</title>
<path fill="none" stroke="black" stroke-width="4" d="M394.392,-153.963C392.45,-139.397 380.922,-52.9383 378.955,-38.1858"/>
<text text-anchor="middle" x="374.99" y="-3.64891" font-family="Times,serif" font-size="16.00">10</text>
</g>
<!-- 8 -->
<g id="node22" class="node"><title>8</title>
<ellipse fill="black" stroke="black" cx="458.669" cy="-88.0456" rx="1.8" ry="1.8"/>
</g>
<!-- &#45;11&#45;&#45;8 -->
<g id="edge17" class="edge"><title>&#45;11&#45;&#45;8</title>
<path fill="none" stroke="#008b00" stroke-width="3.6" d="M395.388,-154.304C401.87,-147.62 450.181,-97.7995 457.69,-90.0559"/>
</g>
<!-- 8&#45;&#45;7 -->
<g id="edge18" class="edge"><title>8&#45;&#45;7</title>
<path fill="none" stroke="black" stroke-width="4" d="M458.669,-86.1777C458.669,-80.1607 458.669,-44.6978 458.669,-38.1014"/>
<text text-anchor="middle" x="458.669" y="-3.30145" font-family="Times,serif" font-size="16.00">1</text>
</g>
<!-- &#45;13&#45;&#45;9 -->
<g id="edge20" class="edge"><title>&#45;13&#45;&#45;9</title>
<path fill="none" stroke="black" stroke-width="4" d="M482.701,-154.349C490.881,-140.903 545.142,-51.7075 553.57,-37.8528"/>
<text text-anchor="middle" x="569.162" y="-7.42269" font-family="Times,serif" font-size="16.00">9</text>
</g>
<!-- &#45;13&#45;&#45;8 -->
<g id="edge21" class="edge"><title>&#45;13&#45;&#45;8</title>
<path fill="none" stroke="#008b00" stroke-width="0.4" d="M481.27,-153.9C478.455,-145.821 461.623,-97.5208 459.01,-90.0233"/>
<text text-anchor="middle" x="498.181" y="-117.246" font-family="Times,serif" font-size="16.00"> γ = 0.1</text>
</g>
<!-- &#45;14&#45;&#45;13 -->
<g id="edge26" class="edge"><title>&#45;14&#45;&#45;13</title>
<path fill="none" stroke="black" stroke-width="4" d="M219.846,-600.422C243.143,-568.261 604.973,-68.7579 627.565,-37.5704"/>
<text text-anchor="middle" x="645.164" y="-8.47492" font-family="Times,serif" font-size="16.00">3</text>
</g>
<!-- &#45;14&#45;&#45;11 -->
<g id="edge25" class="edge"><title>&#45;14&#45;&#45;11</title>
<path fill="none" stroke="#008b00" stroke-width="1.024" d="M218.669,-599.9C218.669,-591.821 218.669,-543.521 218.669,-536.023"/>
<text text-anchor="middle" x="251.181" y="-563.246" font-family="Times,serif" font-size="16.00"> γ = 0.256</text>
</g>
</g>
</svg>
