<?xml version="1.0" encoding="UTF-8" standalone="no"?>
<!DOCTYPE svg PUBLIC "-//W3C//DTD SVG 1.1//EN"
 "http://www.w3.org/Graphics/SVG/1.1/DTD/svg11.dtd">
<!-- Generated by graphviz version 2.36.0 (20140111.2315)
 -->
<!-- Title: %105 Pages: 1 -->
<svg width="432pt" height="421pt"
 viewBox="0.00 0.00 432.00 420.86" xmlns="http://www.w3.org/2000/svg" xmlns:xlink="http://www.w3.org/1999/xlink">
<g id="graph0" class="graph" transform="scale(0.942835 0.942835) rotate(0) translate(4 442.382)">
<title>%105</title>
<polygon fill="white" stroke="none" points="-4,4 -4,-442.382 454.192,-442.382 454.192,4 -4,4"/>
<!-- 1 -->
<g id="node1" class="node"><title>1</title>
<ellipse fill="black" stroke="black" cx="428" cy="-436" rx="1.8" ry="1.8"/>
</g>
<!-- &#45;5 -->
<g id="node7" class="node"><title>&#45;5</title>
<ellipse fill="black" stroke="black" cx="4" cy="-341" rx="1.8" ry="1.8"/>
</g>
<!-- 1&#45;&#45;&#45;5 -->
<g id="edge1" class="edge"><title>1&#45;&#45;&#45;5</title>
<path fill="none" stroke="black" stroke-width="4" d="M426.118,-436C417.408,-436 345.917,-436 288,-436 144,-436 144,-436 144,-436 73.8489,-436 13.0631,-352.504 5.73895,-342.067"/>
</g>
<!-- 3 -->
<g id="node2" class="node"><title>3</title>
<ellipse fill="black" stroke="black" cx="428" cy="-346" rx="1.8" ry="1.8"/>
</g>
<!-- 4 -->
<g id="node3" class="node"><title>4</title>
<ellipse fill="black" stroke="black" cx="428" cy="-256" rx="1.8" ry="1.8"/>
</g>
<!-- 5 -->
<g id="node4" class="node"><title>5</title>
<ellipse fill="black" stroke="black" cx="428" cy="-8" rx="1.8" ry="1.8"/>
</g>
<!-- 7 -->
<g id="node5" class="node"><title>7</title>
<ellipse fill="black" stroke="black" cx="428" cy="-77" rx="1.8" ry="1.8"/>
</g>
<!-- 8 -->
<g id="node6" class="node"><title>8</title>
<ellipse fill="black" stroke="black" cx="428" cy="-167" rx="1.8" ry="1.8"/>
</g>
<!-- 2 -->
<g id="node8" class="node"><title>2</title>
<ellipse fill="black" stroke="black" cx="216" cy="-341" rx="1.8" ry="1.8"/>
</g>
<!-- &#45;5&#45;&#45;2 -->
<g id="edge2" class="edge"><title>&#45;5&#45;&#45;2</title>
<path fill="none" stroke="red" stroke-width="0.4" d="M5.93627,-341C20.494,-341 200.123,-341 214.135,-341"/>
</g>
<!-- &#45;4 -->
<g id="node9" class="node"><title>&#45;4</title>
<ellipse fill="black" stroke="black" cx="74" cy="-262" rx="1.8" ry="1.8"/>
</g>
<!-- &#45;5&#45;&#45;&#45;4 -->
<g id="edge3" class="edge"><title>&#45;5&#45;&#45;&#45;4</title>
<path fill="none" stroke="black" stroke-width="4" d="M5.76367,-340.113C12.7675,-331.976 65.7336,-270.442 72.327,-262.782"/>
</g>
<!-- 2&#45;&#45;3 -->
<g id="edge6" class="edge"><title>2&#45;&#45;3</title>
<path fill="none" stroke="black" stroke-width="4" d="M217.936,-341.022C232.494,-341.369 412.123,-345.646 426.135,-345.979"/>
<text text-anchor="middle" x="446.129" y="-341.655" font-family="Times,serif" font-size="16.00">2</text>
</g>
<!-- &#45;6 -->
<g id="node10" class="node"><title>&#45;6</title>
<ellipse fill="black" stroke="black" cx="145" cy="-262" rx="1.8" ry="1.8"/>
</g>
<!-- &#45;4&#45;&#45;&#45;6 -->
<g id="edge4" class="edge"><title>&#45;4&#45;&#45;&#45;6</title>
<path fill="none" stroke="black" stroke-width="4" d="M75.9754,-262C83.7068,-262 134.994,-262 142.961,-262"/>
</g>
<!-- &#45;3 -->
<g id="node11" class="node"><title>&#45;3</title>
<ellipse fill="black" stroke="black" cx="145" cy="-122" rx="1.8" ry="1.8"/>
</g>
<!-- &#45;4&#45;&#45;&#45;3 -->
<g id="edge8" class="edge"><title>&#45;4&#45;&#45;&#45;3</title>
<path fill="none" stroke="black" stroke-width="4" d="M75.7749,-260.428C82.8817,-246.008 136.627,-136.96 143.317,-123.386"/>
</g>
<!-- &#45;6&#45;&#45;4 -->
<g id="edge7" class="edge"><title>&#45;6&#45;&#45;4</title>
<path fill="none" stroke="black" stroke-width="4" d="M146.806,-261.983C162.709,-261.643 408.763,-256.389 426.044,-256.02"/>
<text text-anchor="middle" x="446.04" y="-250.793" font-family="Times,serif" font-size="16.00">3</text>
</g>
<!-- &#45;6&#45;&#45;2 -->
<g id="edge5" class="edge"><title>&#45;6&#45;&#45;2</title>
<path fill="none" stroke="blue" stroke-width="3.6" d="M146.775,-262.887C153.882,-271.024 207.627,-332.558 214.317,-340.218"/>
<text text-anchor="middle" x="155.465" y="-302.24" font-family="Times,serif" font-size="16.00"> γ = 0.9</text>
</g>
<!-- 6 -->
<g id="node12" class="node"><title>6</title>
<ellipse fill="black" stroke="black" cx="358" cy="-8" rx="1.8" ry="1.8"/>
</g>
<!-- &#45;3&#45;&#45;6 -->
<g id="edge9" class="edge"><title>&#45;3&#45;&#45;6</title>
<path fill="none" stroke="blue" stroke-width="3.6" d="M146.941,-121.492C161.568,-113.589 342.052,-16.076 356.13,-8.46982"/>
<text text-anchor="middle" x="191.923" y="-117.963" font-family="Times,serif" font-size="16.00"> γ = 0.9</text>
</g>
<!-- &#45;2 -->
<g id="node13" class="node"><title>&#45;2</title>
<ellipse fill="black" stroke="black" cx="216" cy="-122" rx="1.8" ry="1.8"/>
</g>
<!-- &#45;3&#45;&#45;&#45;2 -->
<g id="edge11" class="edge"><title>&#45;3&#45;&#45;&#45;2</title>
<path fill="none" stroke="black" stroke-width="4" d="M146.975,-122C154.707,-122 205.994,-122 213.961,-122"/>
</g>
<!-- 6&#45;&#45;5 -->
<g id="edge10" class="edge"><title>6&#45;&#45;5</title>
<path fill="none" stroke="black" stroke-width="4" d="M359.961,-8C367.581,-8 418.125,-8 425.976,-8"/>
<text text-anchor="middle" x="445.976" y="-3.2" font-family="Times,serif" font-size="16.00">4</text>
</g>
<!-- &#45;2&#45;&#45;8 -->
<g id="edge15" class="edge"><title>&#45;2&#45;&#45;8</title>
<path fill="none" stroke="black" stroke-width="4" d="M217.936,-122.201C232.494,-125.32 412.123,-163.812 426.135,-166.815"/>
<text text-anchor="middle" x="445.691" y="-166.205" font-family="Times,serif" font-size="16.00">6</text>
</g>
<!-- &#45;9 -->
<g id="node14" class="node"><title>&#45;9</title>
<ellipse fill="black" stroke="black" cx="287" cy="-77" rx="1.8" ry="1.8"/>
</g>
<!-- &#45;2&#45;&#45;&#45;9 -->
<g id="edge12" class="edge"><title>&#45;2&#45;&#45;&#45;9</title>
<path fill="none" stroke="black" stroke-width="4" d="M217.775,-121.495C224.763,-116.937 276.848,-82.9686 284.944,-77.6888"/>
</g>
<!-- &#45;9&#45;&#45;7 -->
<g id="edge14" class="edge"><title>&#45;9&#45;&#45;7</title>
<path fill="none" stroke="black" stroke-width="4" d="M288.888,-77C300.171,-77 415.413,-77 426.192,-77"/>
<text text-anchor="middle" x="446.192" y="-72.2" font-family="Times,serif" font-size="16.00">5</text>
</g>
<!-- &#45;9&#45;&#45;6 -->
<g id="edge13" class="edge"><title>&#45;9&#45;&#45;6</title>
<path fill="none" stroke="red" stroke-width="0.4" d="M288.775,-76.2251C295.882,-69.1183 349.627,-15.3733 356.317,-8.68292"/>
</g>
</g>
</svg>
