<?xml version="1.0" encoding="UTF-8" standalone="no"?>
<!DOCTYPE svg PUBLIC "-//W3C//DTD SVG 1.1//EN"
 "http://www.w3.org/Graphics/SVG/1.1/DTD/svg11.dtd">
<!-- Generated by graphviz version 2.36.0 (20140111.2315)
 -->
<!-- Title: Phylogeny Pages: 1 -->
<svg width="429pt" height="432pt"
 viewBox="0.00 0.00 429.18 432.00" xmlns="http://www.w3.org/2000/svg" xmlns:xlink="http://www.w3.org/1999/xlink">
<g id="graph0" class="graph" transform="scale(0.729729 0.729729) rotate(0) translate(4 588.001)">
<title>Phylogeny</title>
<polygon fill="white" stroke="none" points="-4,4 -4,-588.001 584.143,-588.001 584.143,4 -4,4"/>
<!-- &#45;1 -->
<g id="node1" class="node"><title>&#45;1</title>
<ellipse fill="black" stroke="black" cx="103.085" cy="-581.001" rx="1.8" ry="1.8"/>
</g>
<!-- 12 -->
<g id="node10" class="node"><title>12</title>
<ellipse fill="black" stroke="black" cx="7.08496" cy="-26.0007" rx="1.8" ry="1.8"/>
</g>
<!-- &#45;1&#45;&#45;12 -->
<g id="edge23" class="edge"><title>&#45;1&#45;&#45;12</title>
<path fill="none" stroke="black" stroke-width="4" d="M102.737,-578.991C96.6745,-543.94 13.266,-61.7349 7.40884,-27.8731"/>
<text text-anchor="middle" x="4" y="-3.36579" font-family="Times,serif" font-size="16.00">2</text>
</g>
<!-- &#45;2 -->
<g id="node12" class="node"><title>&#45;2</title>
<ellipse fill="black" stroke="black" cx="103.085" cy="-531.001" rx="1.8" ry="1.8"/>
</g>
<!-- &#45;1&#45;&#45;&#45;2 -->
<g id="edge1" class="edge"><title>&#45;1&#45;&#45;&#45;2</title>
<path fill="none" stroke="black" stroke-width="4" d="M103.085,-579.168C103.085,-573.391 103.085,-539.347 103.085,-533.014"/>
</g>
<!-- &#45;14 -->
<g id="node24" class="node"><title>&#45;14</title>
<ellipse fill="black" stroke="black" cx="165.085" cy="-531.001" rx="1.8" ry="1.8"/>
</g>
<!-- &#45;1&#45;&#45;&#45;14 -->
<g id="edge24" class="edge"><title>&#45;1&#45;&#45;&#45;14</title>
<path fill="none" stroke="black" stroke-width="4" d="M104.161,-579.168C111.751,-573.292 157.123,-538.165 164.166,-532.712"/>
</g>
<!-- 1 -->
<g id="node2" class="node"><title>1</title>
<ellipse fill="black" stroke="black" cx="81.085" cy="-26.0007" rx="1.8" ry="1.8"/>
</g>
<!-- 2 -->
<g id="node3" class="node"><title>2</title>
<ellipse fill="black" stroke="black" cx="155.085" cy="-26.0007" rx="1.8" ry="1.8"/>
</g>
<!-- 3 -->
<g id="node4" class="node"><title>3</title>
<ellipse fill="black" stroke="black" cx="209.085" cy="-26.0007" rx="1.8" ry="1.8"/>
</g>
<!-- 4 -->
<g id="node5" class="node"><title>4</title>
<ellipse fill="black" stroke="black" cx="249.085" cy="-26.0007" rx="1.8" ry="1.8"/>
</g>
<!-- 6 -->
<g id="node6" class="node"><title>6</title>
<ellipse fill="black" stroke="black" cx="377.085" cy="-26.0007" rx="1.8" ry="1.8"/>
</g>
<!-- 7 -->
<g id="node7" class="node"><title>7</title>
<ellipse fill="black" stroke="black" cx="434.085" cy="-26.0007" rx="1.8" ry="1.8"/>
</g>
<!-- 9 -->
<g id="node8" class="node"><title>9</title>
<ellipse fill="black" stroke="black" cx="491.085" cy="-26.0007" rx="1.8" ry="1.8"/>
</g>
<!-- 10 -->
<g id="node9" class="node"><title>10</title>
<ellipse fill="black" stroke="black" cx="303.085" cy="-26.0007" rx="1.8" ry="1.8"/>
</g>
<!-- 13 -->
<g id="node11" class="node"><title>13</title>
<ellipse fill="black" stroke="black" cx="565.085" cy="-26.0007" rx="1.8" ry="1.8"/>
</g>
<!-- &#45;2&#45;&#45;1 -->
<g id="edge2" class="edge"><title>&#45;2&#45;&#45;1</title>
<path fill="none" stroke="black" stroke-width="4" d="M103.005,-529.172C101.622,-497.408 82.6559,-62.0617 81.1764,-28.0987"/>
<text text-anchor="middle" x="80.3059" y="-3.31764" font-family="Times,serif" font-size="16.00">4</text>
</g>
<!-- 11 -->
<g id="node13" class="node"><title>11</title>
<ellipse fill="black" stroke="black" cx="165.085" cy="-480.001" rx="1.8" ry="1.8"/>
</g>
<!-- &#45;2&#45;&#45;11 -->
<g id="edge3" class="edge"><title>&#45;2&#45;&#45;11</title>
<path fill="none" stroke="#008b00" stroke-width="2.97692" d="M104.161,-529.15C111.751,-523.152 157.123,-487.293 164.166,-481.727"/>
<text text-anchor="middle" x="129.404" y="-472.855" font-family="Times,serif" font-size="16.00"> γ = 0.7442310703483673</text>
</g>
<!-- &#45;4 -->
<g id="node14" class="node"><title>&#45;4</title>
<ellipse fill="black" stroke="black" cx="192.085" cy="-430.001" rx="1.8" ry="1.8"/>
</g>
<!-- 11&#45;&#45;&#45;4 -->
<g id="edge4" class="edge"><title>11&#45;&#45;&#45;4</title>
<path fill="none" stroke="black" stroke-width="4" d="M165.554,-478.168C168.803,-472.391 187.953,-438.347 191.515,-432.014"/>
</g>
<!-- &#45;5 -->
<g id="node15" class="node"><title>&#45;5</title>
<ellipse fill="black" stroke="black" cx="192.085" cy="-379.001" rx="1.8" ry="1.8"/>
</g>
<!-- &#45;4&#45;&#45;&#45;5 -->
<g id="edge5" class="edge"><title>&#45;4&#45;&#45;&#45;5</title>
<path fill="none" stroke="black" stroke-width="4" d="M192.085,-428.15C192.085,-422.254 192.085,-387.5 192.085,-381.035"/>
</g>
<!-- 5 -->
<g id="node18" class="node"><title>5</title>
<ellipse fill="black" stroke="black" cx="286.085" cy="-278.001" rx="1.8" ry="1.8"/>
</g>
<!-- &#45;4&#45;&#45;5 -->
<g id="edge12" class="edge"><title>&#45;4&#45;&#45;5</title>
<path fill="none" stroke="#008b00" stroke-width="3.99715" d="M193.141,-428.294C202.742,-412.769 274.824,-296.209 284.913,-279.895"/>
<text text-anchor="middle" x="250.848" y="-283.127" font-family="Times,serif" font-size="16.00"> γ = 0.999287943724497</text>
</g>
<!-- &#45;5&#45;&#45;2 -->
<g id="edge6" class="edge"><title>&#45;5&#45;&#45;2</title>
<path fill="none" stroke="black" stroke-width="4" d="M191.886,-377.101C189.11,-350.619 158.194,-55.6622 155.302,-28.0682"/>
<text text-anchor="middle" x="153.217" y="-3.37719" font-family="Times,serif" font-size="16.00">5</text>
</g>
<!-- &#45;6 -->
<g id="node16" class="node"><title>&#45;6</title>
<ellipse fill="black" stroke="black" cx="229.085" cy="-329.001" rx="1.8" ry="1.8"/>
</g>
<!-- &#45;5&#45;&#45;&#45;6 -->
<g id="edge7" class="edge"><title>&#45;5&#45;&#45;&#45;6</title>
<path fill="none" stroke="black" stroke-width="4" d="M192.727,-377.168C197.18,-371.391 223.422,-337.347 228.304,-331.014"/>
</g>
<!-- &#45;7 -->
<g id="node17" class="node"><title>&#45;7</title>
<ellipse fill="black" stroke="black" cx="229.085" cy="-76.0007" rx="1.8" ry="1.8"/>
</g>
<!-- &#45;6&#45;&#45;&#45;7 -->
<g id="edge8" class="edge"><title>&#45;6&#45;&#45;&#45;7</title>
<path fill="none" stroke="black" stroke-width="4" d="M229.085,-327.11C229.085,-305.224 229.085,-100.321 229.085,-77.9752"/>
</g>
<!-- &#45;6&#45;&#45;5 -->
<g id="edge11" class="edge"><title>&#45;6&#45;&#45;5</title>
<path fill="none" stroke="#008b00" stroke-width="0.00284823" d="M230.074,-327.15C237.052,-321.152 278.765,-285.293 285.241,-279.727"/>
</g>
<!-- &#45;7&#45;&#45;3 -->
<g id="edge9" class="edge"><title>&#45;7&#45;&#45;3</title>
<path fill="none" stroke="black" stroke-width="4" d="M228.738,-74.1676C226.331,-68.3913 212.146,-34.3469 209.507,-28.0144"/>
<text text-anchor="middle" x="201.815" y="-4.75282" font-family="Times,serif" font-size="16.00">7</text>
</g>
<!-- &#45;7&#45;&#45;4 -->
<g id="edge10" class="edge"><title>&#45;7&#45;&#45;4</title>
<path fill="none" stroke="black" stroke-width="4" d="M229.432,-74.1676C231.839,-68.3913 246.024,-34.3469 248.663,-28.0144"/>
<text text-anchor="middle" x="256.355" y="-4.75282" font-family="Times,serif" font-size="16.00">6</text>
</g>
<!-- &#45;9 -->
<g id="node19" class="node"><title>&#45;9</title>
<ellipse fill="black" stroke="black" cx="303.085" cy="-228.001" rx="1.8" ry="1.8"/>
</g>
<!-- 5&#45;&#45;&#45;9 -->
<g id="edge13" class="edge"><title>5&#45;&#45;&#45;9</title>
<path fill="none" stroke="black" stroke-width="4" d="M286.38,-276.168C288.426,-270.391 300.483,-236.347 302.726,-230.014"/>
</g>
<!-- &#45;9&#45;&#45;10 -->
<g id="edge22" class="edge"><title>&#45;9&#45;&#45;10</title>
<path fill="none" stroke="black" stroke-width="4" d="M303.085,-225.732C303.085,-204.927 303.085,-47.5863 303.085,-28"/>
<text text-anchor="middle" x="303.085" y="-3.2" font-family="Times,serif" font-size="16.00">8</text>
</g>
<!-- &#45;10 -->
<g id="node20" class="node"><title>&#45;10</title>
<ellipse fill="black" stroke="black" cx="386.085" cy="-177.001" rx="1.8" ry="1.8"/>
</g>
<!-- &#45;9&#45;&#45;&#45;10 -->
<g id="edge14" class="edge"><title>&#45;9&#45;&#45;&#45;10</title>
<path fill="none" stroke="black" stroke-width="4" d="M304.017,-226.45C312.495,-221.446 376.142,-183.871 385.051,-178.611"/>
</g>
<!-- &#45;11 -->
<g id="node21" class="node"><title>&#45;11</title>
<ellipse fill="black" stroke="black" cx="386.085" cy="-127.001" rx="1.8" ry="1.8"/>
</g>
<!-- &#45;10&#45;&#45;&#45;11 -->
<g id="edge15" class="edge"><title>&#45;10&#45;&#45;&#45;11</title>
<path fill="none" stroke="black" stroke-width="4" d="M386.085,-175.168C386.085,-169.391 386.085,-135.347 386.085,-129.014"/>
</g>
<!-- &#45;13 -->
<g id="node23" class="node"><title>&#45;13</title>
<ellipse fill="black" stroke="black" cx="434.085" cy="-127.001" rx="1.8" ry="1.8"/>
</g>
<!-- &#45;10&#45;&#45;&#45;13 -->
<g id="edge19" class="edge"><title>&#45;10&#45;&#45;&#45;13</title>
<path fill="none" stroke="black" stroke-width="4" d="M386.918,-175.168C392.794,-169.292 427.921,-134.165 433.374,-128.712"/>
</g>
<!-- &#45;11&#45;&#45;6 -->
<g id="edge16" class="edge"><title>&#45;11&#45;&#45;6</title>
<path fill="none" stroke="black" stroke-width="4" d="M385.897,-124.891C384.726,-111.747 378.44,-41.209 377.272,-28.0987"/>
<text text-anchor="middle" x="375.497" y="-3.37759" font-family="Times,serif" font-size="16.00">10</text>
</g>
<!-- 8 -->
<g id="node22" class="node"><title>8</title>
<ellipse fill="black" stroke="black" cx="434.085" cy="-76.0007" rx="1.8" ry="1.8"/>
</g>
<!-- &#45;11&#45;&#45;8 -->
<g id="edge17" class="edge"><title>&#45;11&#45;&#45;8</title>
<path fill="none" stroke="#008b00" stroke-width="3.6" d="M386.918,-125.15C392.794,-119.152 427.921,-83.293 433.374,-77.7266"/>
<text text-anchor="middle" x="398.376" y="-73.2874" font-family="Times,serif" font-size="16.00"> γ = 0.9</text>
</g>
<!-- 8&#45;&#45;7 -->
<g id="edge18" class="edge"><title>8&#45;&#45;7</title>
<path fill="none" stroke="black" stroke-width="4" d="M434.085,-74.1676C434.085,-68.3913 434.085,-34.3469 434.085,-28.0144"/>
<text text-anchor="middle" x="434.085" y="-3.21436" font-family="Times,serif" font-size="16.00">1</text>
</g>
<!-- &#45;13&#45;&#45;9 -->
<g id="edge20" class="edge"><title>&#45;13&#45;&#45;9</title>
<path fill="none" stroke="black" stroke-width="4" d="M435.074,-125.248C441.993,-112.989 483.061,-40.2188 490.068,-27.802"/>
<text text-anchor="middle" x="499.898" y="-5.58436" font-family="Times,serif" font-size="16.00">9</text>
</g>
<!-- &#45;13&#45;&#45;8 -->
<g id="edge21" class="edge"><title>&#45;13&#45;&#45;8</title>
<path fill="none" stroke="#008b00" stroke-width="0.4" d="M434.085,-125.15C434.085,-119.254 434.085,-84.5 434.085,-78.0355"/>
</g>
<!-- &#45;14&#45;&#45;13 -->
<g id="edge26" class="edge"><title>&#45;14&#45;&#45;13</title>
<path fill="none" stroke="black" stroke-width="4" d="M166.232,-529.552C188.87,-500.973 539.125,-58.7748 563.725,-27.7181"/>
<text text-anchor="middle" x="576.143" y="-7.24035" font-family="Times,serif" font-size="16.00">3</text>
</g>
<!-- &#45;14&#45;&#45;11 -->
<g id="edge25" class="edge"><title>&#45;14&#45;&#45;11</title>
<path fill="none" stroke="#008b00" stroke-width="1.02308" d="M165.085,-529.15C165.085,-523.254 165.085,-488.5 165.085,-482.035"/>
</g>
</g>
</svg>
