<?xml version="1.0" encoding="UTF-8" standalone="no"?>
<!DOCTYPE svg PUBLIC "-//W3C//DTD SVG 1.1//EN"
 "http://www.w3.org/Graphics/SVG/1.1/DTD/svg11.dtd">
<!-- Generated by graphviz version 2.36.0 (20140111.2315)
 -->
<!-- Title: %143 Pages: 1 -->
<svg width="334pt" height="576pt"
 viewBox="0.00 0.00 334.29 576.00" xmlns="http://www.w3.org/2000/svg" xmlns:xlink="http://www.w3.org/1999/xlink">
<g id="graph0" class="graph" transform="scale(0.986301 0.986301) rotate(0) translate(4 580)">
<title>%143</title>
<polygon fill="white" stroke="none" points="-4,4 -4,-580 334.932,-580 334.932,4 -4,4"/>
<!-- 1 -->
<g id="node1" class="node"><title>1</title>
<ellipse fill="none" stroke="black" cx="121.522" cy="-544" rx="18" ry="18"/>
<text text-anchor="middle" x="121.522" y="-539.8" font-family="Times,serif" font-size="14.00">1</text>
</g>
<!-- 2 -->
<g id="node6" class="node"><title>2</title>
<ellipse fill="none" stroke="black" cx="73.5217" cy="-415" rx="18" ry="18"/>
<text text-anchor="middle" x="73.5217" y="-410.8" font-family="Times,serif" font-size="14.00">2</text>
</g>
<!-- 1&#45;&#45;2 -->
<g id="edge1" class="edge"><title>1&#45;&#45;2</title>
<path fill="none" stroke="black" stroke-width="4" d="M115.443,-526.915C106.26,-502.62 88.9457,-456.809 79.7032,-432.355"/>
</g>
<!-- 3 -->
<g id="node9" class="node"><title>3</title>
<ellipse fill="none" stroke="black" cx="169.522" cy="-415" rx="18" ry="18"/>
<text text-anchor="middle" x="169.522" y="-410.8" font-family="Times,serif" font-size="14.00">3</text>
</g>
<!-- 1&#45;&#45;3 -->
<g id="edge7" class="edge"><title>1&#45;&#45;3</title>
<path fill="none" stroke="black" stroke-width="4" d="M127.601,-526.915C136.784,-502.62 154.098,-456.809 163.34,-432.355"/>
</g>
<!-- 4 -->
<g id="node2" class="node"><title>4</title>
<ellipse fill="none" stroke="black" cx="28.5217" cy="-30" rx="15.9005" ry="16.0303"/>
<text text-anchor="middle" x="28.5217" y="-25.8" font-family="Times,serif" font-size="14.00">4</text>
</g>
<!-- 6 -->
<g id="node3" class="node"><title>6</title>
<ellipse fill="none" stroke="black" cx="302.522" cy="-30" rx="15.9005" ry="16.0303"/>
<text text-anchor="middle" x="302.522" y="-25.8" font-family="Times,serif" font-size="14.00">6</text>
</g>
<!-- 8 -->
<g id="node4" class="node"><title>8</title>
<ellipse fill="none" stroke="black" cx="119.522" cy="-30" rx="15.9005" ry="16.0303"/>
<text text-anchor="middle" x="119.522" y="-25.8" font-family="Times,serif" font-size="14.00">8</text>
</g>
<!-- 9 -->
<g id="node5" class="node"><title>9</title>
<ellipse fill="none" stroke="black" cx="211.522" cy="-30" rx="15.9005" ry="16.0303"/>
<text text-anchor="middle" x="211.522" y="-25.8" font-family="Times,serif" font-size="14.00">9</text>
</g>
<!-- 2&#45;&#45;4 -->
<g id="edge2" class="edge"><title>2&#45;&#45;4</title>
<path fill="none" stroke="black" stroke-width="4" d="M71.5301,-397.049C64.0289,-333.205 37.5424,-107.776 30.3408,-46.4819"/>
</g>
<!-- 5 -->
<g id="node7" class="node"><title>5</title>
<ellipse fill="none" stroke="black" cx="144.522" cy="-286" rx="18" ry="18"/>
<text text-anchor="middle" x="144.522" y="-281.8" font-family="Times,serif" font-size="14.00">5</text>
</g>
<!-- 2&#45;&#45;5 -->
<g id="edge3" class="edge"><title>2&#45;&#45;5</title>
<path fill="none" stroke="blue" stroke-width="3.6" d="M81.9452,-398.933C95.6098,-374.49 122.452,-326.477 136.109,-302.048"/>
<text text-anchor="middle" x="116.942" y="-394.249" font-family="Times,serif" font-size="14.00"> γ = 0.9</text>
</g>
<!-- 7 -->
<g id="node8" class="node"><title>7</title>
<ellipse fill="none" stroke="black" cx="144.522" cy="-157" rx="18" ry="18"/>
<text text-anchor="middle" x="144.522" y="-152.8" font-family="Times,serif" font-size="14.00">7</text>
</g>
<!-- 5&#45;&#45;7 -->
<g id="edge4" class="edge"><title>5&#45;&#45;7</title>
<path fill="none" stroke="black" stroke-width="4" d="M144.522,-267.872C144.522,-243.633 144.522,-199.574 144.522,-175.262"/>
</g>
<!-- 7&#45;&#45;8 -->
<g id="edge5" class="edge"><title>7&#45;&#45;8</title>
<path fill="none" stroke="black" stroke-width="4" d="M141.15,-139.142C136.245,-114.618 127.218,-69.4812 122.528,-46.0313"/>
</g>
<!-- 7&#45;&#45;9 -->
<g id="edge6" class="edge"><title>7&#45;&#45;9</title>
<path fill="none" stroke="black" stroke-width="4" d="M152.737,-140.673C165.946,-116.03 191.692,-67.9956 204.264,-44.5406"/>
</g>
<!-- 3&#45;&#45;6 -->
<g id="edge9" class="edge"><title>3&#45;&#45;6</title>
<path fill="none" stroke="black" stroke-width="4" d="M175.237,-397.543C197.263,-334.114 276.463,-106.042 297.41,-45.721"/>
</g>
<!-- 3&#45;&#45;5 -->
<g id="edge8" class="edge"><title>3&#45;&#45;5</title>
<path fill="none" stroke="red" stroke-width="0.4" d="M166.202,-397.135C161.42,-372.845 152.645,-328.264 147.855,-303.934"/>
</g>
</g>
</svg>
