<?xml version="1.0" encoding="UTF-8" standalone="no"?>
<!DOCTYPE svg PUBLIC "-//W3C//DTD SVG 1.1//EN"
 "http://www.w3.org/Graphics/SVG/1.1/DTD/svg11.dtd">
<!-- Generated by graphviz version 2.36.0 (20140111.2315)
 -->
<!-- Title: Phylogeny Pages: 1 -->
<svg width="432pt" height="408pt"
 viewBox="0.00 0.00 432.00 408.46" xmlns="http://www.w3.org/2000/svg" xmlns:xlink="http://www.w3.org/1999/xlink">
<g id="graph0" class="graph" transform="scale(0.201319 0.201319) rotate(0) translate(4 2024.93)">
<title>Phylogeny</title>
<polygon fill="white" stroke="none" points="-4,4 -4,-2024.93 2141.85,-2024.93 2141.85,4 -4,4"/>
<!-- &#45;1 -->
<g id="node1" class="node"><title>&#45;1</title>
<ellipse fill="black" stroke="black" cx="6" cy="-1874.09" rx="1.8" ry="1.8"/>
</g>
<!-- 1 -->
<g id="node2" class="node"><title>1</title>
<ellipse fill="black" stroke="black" cx="1957" cy="-1992.09" rx="1.8" ry="1.8"/>
</g>
<!-- &#45;1&#45;&#45;1 -->
<g id="edge1" class="edge"><title>&#45;1&#45;&#45;1</title>
<path fill="none" stroke="black" stroke-width="4" d="M8.20367,-1874.23C80.0358,-1878.57 1884.42,-1987.7 1954.88,-1991.96"/>
<text text-anchor="middle" x="2013.23" y="-1996.93" font-family="Times,serif" font-size="30.00">Xgordoni</text>
</g>
<!-- 2 -->
<g id="node3" class="node"><title>2</title>
<ellipse fill="black" stroke="black" cx="1957" cy="-1874.09" rx="1.8" ry="1.8"/>
</g>
<!-- &#45;1&#45;&#45;2 -->
<g id="edge2" class="edge"><title>&#45;1&#45;&#45;2</title>
<path fill="none" stroke="black" stroke-width="4" d="M8.20367,-1874.09C80.0358,-1874.09 1884.42,-1874.09 1954.88,-1874.09"/>
<text text-anchor="middle" x="2013.97" y="-1875.51" font-family="Times,serif" font-size="30.00">Xmeyeri</text>
</g>
<!-- &#45;2 -->
<g id="node26" class="node"><title>&#45;2</title>
<ellipse fill="black" stroke="black" cx="121" cy="-1756.09" rx="1.8" ry="1.8"/>
</g>
<!-- &#45;1&#45;&#45;&#45;2 -->
<g id="edge3" class="edge"><title>&#45;1&#45;&#45;&#45;2</title>
<path fill="none" stroke="black" stroke-width="4" d="M7.7216,-1873.34C16.744,-1863.92 107.532,-1769.11 118.845,-1757.3"/>
</g>
<!-- 3 -->
<g id="node4" class="node"><title>3</title>
<ellipse fill="black" stroke="black" cx="1957" cy="-1756.09" rx="1.8" ry="1.8"/>
</g>
<!-- 4 -->
<g id="node5" class="node"><title>4</title>
<ellipse fill="black" stroke="black" cx="1957" cy="-1638.09" rx="1.8" ry="1.8"/>
</g>
<!-- 5 -->
<g id="node6" class="node"><title>5</title>
<ellipse fill="black" stroke="black" cx="1957" cy="-1520.09" rx="1.8" ry="1.8"/>
</g>
<!-- 6 -->
<g id="node7" class="node"><title>6</title>
<ellipse fill="black" stroke="black" cx="1957" cy="-1284.09" rx="1.8" ry="1.8"/>
</g>
<!-- 7 -->
<g id="node8" class="node"><title>7</title>
<ellipse fill="black" stroke="black" cx="1957" cy="-1166.09" rx="1.8" ry="1.8"/>
</g>
<!-- 8 -->
<g id="node9" class="node"><title>8</title>
<ellipse fill="black" stroke="black" cx="1957" cy="-1080.09" rx="1.8" ry="1.8"/>
</g>
<!-- 9 -->
<g id="node10" class="node"><title>9</title>
<ellipse fill="black" stroke="black" cx="1957" cy="-1015.09" rx="1.8" ry="1.8"/>
</g>
<!-- 10 -->
<g id="node11" class="node"><title>10</title>
<ellipse fill="black" stroke="black" cx="1957" cy="-812.092" rx="1.8" ry="1.8"/>
</g>
<!-- 11 -->
<g id="node12" class="node"><title>11</title>
<ellipse fill="black" stroke="black" cx="1957" cy="-747.092" rx="1.8" ry="1.8"/>
</g>
<!-- 12 -->
<g id="node13" class="node"><title>12</title>
<ellipse fill="black" stroke="black" cx="1957" cy="-682.092" rx="1.8" ry="1.8"/>
</g>
<!-- 13 -->
<g id="node14" class="node"><title>13</title>
<ellipse fill="black" stroke="black" cx="1957" cy="-930.092" rx="1.8" ry="1.8"/>
</g>
<!-- 14 -->
<g id="node15" class="node"><title>14</title>
<ellipse fill="black" stroke="black" cx="1957" cy="-552.092" rx="1.8" ry="1.8"/>
</g>
<!-- 15 -->
<g id="node16" class="node"><title>15</title>
<ellipse fill="black" stroke="black" cx="1957" cy="-487.092" rx="1.8" ry="1.8"/>
</g>
<!-- 16 -->
<g id="node17" class="node"><title>16</title>
<ellipse fill="black" stroke="black" cx="1957" cy="-617.092" rx="1.8" ry="1.8"/>
</g>
<!-- 17 -->
<g id="node18" class="node"><title>17</title>
<ellipse fill="black" stroke="black" cx="1957" cy="-422.092" rx="1.8" ry="1.8"/>
</g>
<!-- 18 -->
<g id="node19" class="node"><title>18</title>
<ellipse fill="black" stroke="black" cx="1957" cy="-357.092" rx="1.8" ry="1.8"/>
</g>
<!-- 19 -->
<g id="node20" class="node"><title>19</title>
<ellipse fill="black" stroke="black" cx="1957" cy="-292.092" rx="1.8" ry="1.8"/>
</g>
<!-- 20 -->
<g id="node21" class="node"><title>20</title>
<ellipse fill="black" stroke="black" cx="1957" cy="-227.092" rx="1.8" ry="1.8"/>
</g>
<!-- 21 -->
<g id="node22" class="node"><title>21</title>
<ellipse fill="black" stroke="black" cx="1957" cy="-162.092" rx="1.8" ry="1.8"/>
</g>
<!-- 22 -->
<g id="node23" class="node"><title>22</title>
<ellipse fill="black" stroke="black" cx="1957" cy="-97.0921" rx="1.8" ry="1.8"/>
</g>
<!-- 24 -->
<g id="node24" class="node"><title>24</title>
<ellipse fill="black" stroke="black" cx="1957" cy="-1402.09" rx="1.8" ry="1.8"/>
</g>
<!-- 25 -->
<g id="node25" class="node"><title>25</title>
<ellipse fill="black" stroke="black" cx="1957" cy="-32.0921" rx="1.8" ry="1.8"/>
</g>
<!-- &#45;2&#45;&#45;3 -->
<g id="edge4" class="edge"><title>&#45;2&#45;&#45;3</title>
<path fill="none" stroke="black" stroke-width="4" d="M123.074,-1756.09C190.672,-1756.09 1888.7,-1756.09 1955.01,-1756.09"/>
<text text-anchor="middle" x="2014.09" y="-1757.51" font-family="Times,serif" font-size="30.00">Xcouchianus</text>
</g>
<!-- &#45;3 -->
<g id="node27" class="node"><title>&#45;3</title>
<ellipse fill="black" stroke="black" cx="237" cy="-1638.09" rx="1.8" ry="1.8"/>
</g>
<!-- &#45;2&#45;&#45;&#45;3 -->
<g id="edge5" class="edge"><title>&#45;2&#45;&#45;&#45;3</title>
<path fill="none" stroke="black" stroke-width="4" d="M122.728,-1755.34C131.83,-1745.92 223.421,-1651.11 234.835,-1639.3"/>
</g>
<!-- &#45;3&#45;&#45;4 -->
<g id="edge6" class="edge"><title>&#45;3&#45;&#45;4</title>
<path fill="none" stroke="black" stroke-width="4" d="M238.943,-1638.09C302.27,-1638.09 1893.02,-1638.09 1955.13,-1638.09"/>
<text text-anchor="middle" x="2014.22" y="-1639.51" font-family="Times,serif" font-size="30.00">Xvariatus</text>
</g>
<!-- &#45;4 -->
<g id="node28" class="node"><title>&#45;4</title>
<ellipse fill="black" stroke="black" cx="353" cy="-1520.09" rx="1.8" ry="1.8"/>
</g>
<!-- &#45;3&#45;&#45;&#45;4 -->
<g id="edge7" class="edge"><title>&#45;3&#45;&#45;&#45;4</title>
<path fill="none" stroke="black" stroke-width="4" d="M238.728,-1637.34C247.83,-1627.92 339.421,-1533.11 350.835,-1521.3"/>
</g>
<!-- &#45;4&#45;&#45;5 -->
<g id="edge8" class="edge"><title>&#45;4&#45;&#45;5</title>
<path fill="none" stroke="black" stroke-width="4" d="M354.812,-1520.09C413.75,-1520.09 1891.43,-1520.09 1954.89,-1520.09"/>
<text text-anchor="middle" x="2013.98" y="-1521.51" font-family="Times,serif" font-size="30.00">Xevelynae</text>
</g>
<!-- &#45;5 -->
<g id="node29" class="node"><title>&#45;5</title>
<ellipse fill="black" stroke="black" cx="469" cy="-1343.09" rx="1.8" ry="1.8"/>
</g>
<!-- &#45;4&#45;&#45;&#45;5 -->
<g id="edge9" class="edge"><title>&#45;4&#45;&#45;&#45;5</title>
<path fill="none" stroke="black" stroke-width="4" d="M354.728,-1518.96C363.982,-1504.59 458.497,-1357.85 467.338,-1344.12"/>
</g>
<!-- &#45;6 -->
<g id="node30" class="node"><title>&#45;6</title>
<ellipse fill="black" stroke="black" cx="584" cy="-1343.09" rx="1.8" ry="1.8"/>
</g>
<!-- &#45;5&#45;&#45;&#45;6 -->
<g id="edge10" class="edge"><title>&#45;5&#45;&#45;&#45;6</title>
<path fill="none" stroke="black" stroke-width="4" d="M471.269,-1343.09C482.908,-1343.09 570.925,-1343.09 581.882,-1343.09"/>
</g>
<!-- &#45;24 -->
<g id="node48" class="node"><title>&#45;24</title>
<ellipse fill="black" stroke="black" cx="932" cy="-566.092" rx="1.8" ry="1.8"/>
</g>
<!-- &#45;5&#45;&#45;&#45;24 -->
<g id="edge46" class="edge"><title>&#45;5&#45;&#45;&#45;24</title>
<path fill="none" stroke="black" stroke-width="4" d="M470.02,-1341.38C493.319,-1302.28 908.355,-605.773 931.035,-567.712"/>
</g>
<!-- &#45;6&#45;&#45;24 -->
<g id="edge45" class="edge"><title>&#45;6&#45;&#45;24</title>
<path fill="none" stroke="black" stroke-width="4" d="M585.874,-1343.17C641.038,-1345.54 1896.07,-1399.47 1954.87,-1402"/>
<text text-anchor="middle" x="2013.45" y="-1405.95" font-family="Times,serif" font-size="30.00">Xmilleri</text>
</g>
<!-- &#45;7 -->
<g id="node31" class="node"><title>&#45;7</title>
<ellipse fill="black" stroke="black" cx="700" cy="-1284.09" rx="1.8" ry="1.8"/>
</g>
<!-- &#45;6&#45;&#45;&#45;7 -->
<g id="edge11" class="edge"><title>&#45;6&#45;&#45;&#45;7</title>
<path fill="none" stroke="black" stroke-width="4" d="M586.28,-1342.43C598.022,-1336.35 686.818,-1290.4 697.872,-1284.68"/>
</g>
<!-- &#45;7&#45;&#45;6 -->
<g id="edge12" class="edge"><title>&#45;7&#45;&#45;6</title>
<path fill="none" stroke="black" stroke-width="4" d="M702.039,-1284.09C756.914,-1284.09 1901.44,-1284.09 1955.05,-1284.09"/>
<text text-anchor="middle" x="2014.14" y="-1285.51" font-family="Times,serif" font-size="30.00">Xandersi</text>
</g>
<!-- &#45;8 -->
<g id="node32" class="node"><title>&#45;8</title>
<ellipse fill="black" stroke="black" cx="816" cy="-1166.09" rx="1.8" ry="1.8"/>
</g>
<!-- &#45;7&#45;&#45;&#45;8 -->
<g id="edge13" class="edge"><title>&#45;7&#45;&#45;&#45;8</title>
<path fill="none" stroke="black" stroke-width="4" d="M701.728,-1283.34C710.83,-1273.92 802.421,-1179.11 813.835,-1167.3"/>
</g>
<!-- &#45;8&#45;&#45;7 -->
<g id="edge14" class="edge"><title>&#45;8&#45;&#45;7</title>
<path fill="none" stroke="black" stroke-width="4" d="M817.851,-1166.09C867.563,-1166.09 1902.41,-1166.09 1954.93,-1166.09"/>
<text text-anchor="middle" x="2014.02" y="-1167.51" font-family="Times,serif" font-size="30.00">Xmaculatus</text>
</g>
<!-- &#45;9 -->
<g id="node33" class="node"><title>&#45;9</title>
<ellipse fill="black" stroke="black" cx="932" cy="-994.092" rx="1.8" ry="1.8"/>
</g>
<!-- &#45;8&#45;&#45;&#45;9 -->
<g id="edge15" class="edge"><title>&#45;8&#45;&#45;&#45;9</title>
<path fill="none" stroke="black" stroke-width="4" d="M817.728,-1164.99C826.982,-1151.03 921.497,-1008.43 930.338,-995.091"/>
</g>
<!-- &#45;10 -->
<g id="node34" class="node"><title>&#45;10</title>
<ellipse fill="black" stroke="black" cx="1494" cy="-994.092" rx="1.8" ry="1.8"/>
</g>
<!-- &#45;9&#45;&#45;&#45;10 -->
<g id="edge16" class="edge"><title>&#45;9&#45;&#45;&#45;10</title>
<path fill="none" stroke="black" stroke-width="4" d="M934.035,-994.092C969.528,-994.092 1457.82,-994.092 1492.1,-994.092"/>
</g>
<!-- 23 -->
<g id="node39" class="node"><title>23</title>
<ellipse fill="black" stroke="black" cx="1379" cy="-566.092" rx="1.8" ry="1.8"/>
</g>
<!-- &#45;9&#45;&#45;23 -->
<g id="edge27" class="edge"><title>&#45;9&#45;&#45;23</title>
<path fill="none" stroke="#008b00" stroke-width="3.336" d="M933.722,-993.398C953.149,-974.713 1358.33,-585.011 1377.31,-566.754"/>
<text text-anchor="middle" x="1155" y="-837.092" font-family="Times,serif" font-size="30.00"> γ = 0.834</text>
</g>
<!-- &#45;11 -->
<g id="node35" class="node"><title>&#45;11</title>
<ellipse fill="black" stroke="black" cx="1842" cy="-1048.09" rx="1.8" ry="1.8"/>
</g>
<!-- &#45;10&#45;&#45;&#45;11 -->
<g id="edge17" class="edge"><title>&#45;10&#45;&#45;&#45;11</title>
<path fill="none" stroke="black" stroke-width="4" d="M1495.87,-994.383C1521.98,-998.434 1812.76,-1043.55 1839.96,-1047.78"/>
</g>
<!-- &#45;12 -->
<g id="node36" class="node"><title>&#45;12</title>
<ellipse fill="black" stroke="black" cx="1610" cy="-930.092" rx="1.8" ry="1.8"/>
</g>
<!-- &#45;10&#45;&#45;&#45;12 -->
<g id="edge20" class="edge"><title>&#45;10&#45;&#45;&#45;12</title>
<path fill="none" stroke="black" stroke-width="4" d="M1496.28,-993.373C1508.02,-986.782 1596.82,-936.931 1607.87,-930.726"/>
</g>
<!-- &#45;11&#45;&#45;8 -->
<g id="edge18" class="edge"><title>&#45;11&#45;&#45;8</title>
<path fill="none" stroke="black" stroke-width="4" d="M1844.27,-1048.45C1855.91,-1051.75 1943.92,-1076.67 1954.88,-1079.78"/>
<text text-anchor="middle" x="2008.9" y="-1096.9" font-family="Times,serif" font-size="30.00">Xclemenciae_F2</text>
</g>
<!-- &#45;11&#45;&#45;9 -->
<g id="edge19" class="edge"><title>&#45;11&#45;&#45;9</title>
<path fill="none" stroke="black" stroke-width="4" d="M1844.27,-1047.72C1855.91,-1044.32 1943.92,-1018.62 1954.88,-1015.42"/>
<text text-anchor="middle" x="2014.52" y="-999.856" font-family="Times,serif" font-size="30.00">Xmonticolus</text>
</g>
<!-- &#45;12&#45;&#45;13 -->
<g id="edge26" class="edge"><title>&#45;12&#45;&#45;13</title>
<path fill="none" stroke="black" stroke-width="4" d="M1611.87,-930.092C1637.9,-930.092 1927.84,-930.092 1954.97,-930.092"/>
<text text-anchor="middle" x="2014.06" y="-931.511" font-family="Times,serif" font-size="30.00">Xsignum</text>
</g>
<!-- &#45;13 -->
<g id="node37" class="node"><title>&#45;13</title>
<ellipse fill="black" stroke="black" cx="1726" cy="-812.092" rx="1.8" ry="1.8"/>
</g>
<!-- &#45;12&#45;&#45;&#45;13 -->
<g id="edge21" class="edge"><title>&#45;12&#45;&#45;&#45;13</title>
<path fill="none" stroke="black" stroke-width="4" d="M1611.73,-929.339C1620.83,-919.917 1712.42,-825.112 1723.83,-813.298"/>
</g>
<!-- &#45;13&#45;&#45;10 -->
<g id="edge22" class="edge"><title>&#45;13&#45;&#45;10</title>
<path fill="none" stroke="black" stroke-width="4" d="M1728,-812.092C1749.16,-812.092 1931.92,-812.092 1954.68,-812.092"/>
<text text-anchor="middle" x="2013.76" y="-813.511" font-family="Times,serif" font-size="30.00">Xhellerii</text>
</g>
<!-- &#45;14 -->
<g id="node38" class="node"><title>&#45;14</title>
<ellipse fill="black" stroke="black" cx="1842" cy="-722.092" rx="1.8" ry="1.8"/>
</g>
<!-- &#45;13&#45;&#45;&#45;14 -->
<g id="edge23" class="edge"><title>&#45;13&#45;&#45;&#45;14</title>
<path fill="none" stroke="black" stroke-width="4" d="M1727.73,-811.517C1736.83,-804.331 1828.42,-732.023 1839.83,-723.012"/>
</g>
<!-- &#45;14&#45;&#45;11 -->
<g id="edge24" class="edge"><title>&#45;14&#45;&#45;11</title>
<path fill="none" stroke="black" stroke-width="4" d="M1844.27,-722.373C1855.91,-724.948 1943.92,-744.421 1954.88,-746.845"/>
<text text-anchor="middle" x="2010.32" y="-760.782" font-family="Times,serif" font-size="30.00">Xalvarezi</text>
</g>
<!-- &#45;14&#45;&#45;12 -->
<g id="edge25" class="edge"><title>&#45;14&#45;&#45;12</title>
<path fill="none" stroke="black" stroke-width="4" d="M1844.27,-721.643C1855.91,-717.523 1943.92,-686.366 1954.88,-682.488"/>
<text text-anchor="middle" x="2014.06" y="-663.592" font-family="Times,serif" font-size="30.00">Xmayae</text>
</g>
<!-- &#45;16 -->
<g id="node40" class="node"><title>&#45;16</title>
<ellipse fill="black" stroke="black" cx="1494" cy="-468.092" rx="1.8" ry="1.8"/>
</g>
<!-- 23&#45;&#45;&#45;16 -->
<g id="edge28" class="edge"><title>23&#45;&#45;&#45;16</title>
<path fill="none" stroke="black" stroke-width="4" d="M1380.72,-565.466C1389.74,-557.642 1480.53,-478.905 1491.84,-469.094"/>
</g>
<!-- &#45;17 -->
<g id="node41" class="node"><title>&#45;17</title>
<ellipse fill="black" stroke="black" cx="1610" cy="-468.092" rx="1.8" ry="1.8"/>
</g>
<!-- &#45;16&#45;&#45;&#45;17 -->
<g id="edge29" class="edge"><title>&#45;16&#45;&#45;&#45;17</title>
<path fill="none" stroke="black" stroke-width="4" d="M1496.28,-468.092C1508.02,-468.092 1596.82,-468.092 1607.87,-468.092"/>
</g>
<!-- &#45;21 -->
<g id="node45" class="node"><title>&#45;21</title>
<ellipse fill="black" stroke="black" cx="1726" cy="-276.092" rx="1.8" ry="1.8"/>
</g>
<!-- &#45;16&#45;&#45;&#45;21 -->
<g id="edge38" class="edge"><title>&#45;16&#45;&#45;&#45;21</title>
<path fill="none" stroke="black" stroke-width="4" d="M1495.48,-466.866C1514.16,-451.408 1703.52,-294.697 1724.17,-277.603"/>
</g>
<!-- &#45;18 -->
<g id="node42" class="node"><title>&#45;18</title>
<ellipse fill="black" stroke="black" cx="1726" cy="-523.092" rx="1.8" ry="1.8"/>
</g>
<!-- &#45;17&#45;&#45;&#45;18 -->
<g id="edge30" class="edge"><title>&#45;17&#45;&#45;&#45;18</title>
<path fill="none" stroke="black" stroke-width="4" d="M1612.28,-468.71C1624.02,-474.375 1712.82,-517.215 1723.87,-522.548"/>
</g>
<!-- &#45;20 -->
<g id="node44" class="node"><title>&#45;20</title>
<ellipse fill="black" stroke="black" cx="1842" cy="-422.092" rx="1.8" ry="1.8"/>
</g>
<!-- &#45;17&#45;&#45;&#45;20 -->
<g id="edge35" class="edge"><title>&#45;17&#45;&#45;&#45;20</title>
<path fill="none" stroke="black" stroke-width="4" d="M1612.01,-467.694C1633.44,-463.444 1819.88,-426.479 1840.2,-422.448"/>
</g>
<!-- &#45;18&#45;&#45;16 -->
<g id="edge34" class="edge"><title>&#45;18&#45;&#45;16</title>
<path fill="none" stroke="black" stroke-width="4" d="M1727.73,-523.795C1747.71,-531.926 1934.79,-608.056 1955.2,-616.358"/>
<text text-anchor="middle" x="2006" y="-639.28" font-family="Times,serif" font-size="30.00">Xcortezi</text>
</g>
<!-- &#45;19 -->
<g id="node43" class="node"><title>&#45;19</title>
<ellipse fill="black" stroke="black" cx="1842" cy="-523.092" rx="1.8" ry="1.8"/>
</g>
<!-- &#45;18&#45;&#45;&#45;19 -->
<g id="edge31" class="edge"><title>&#45;18&#45;&#45;&#45;19</title>
<path fill="none" stroke="black" stroke-width="4" d="M1728.28,-523.092C1740.02,-523.092 1828.82,-523.092 1839.87,-523.092"/>
</g>
<!-- &#45;19&#45;&#45;14 -->
<g id="edge32" class="edge"><title>&#45;19&#45;&#45;14</title>
<path fill="none" stroke="black" stroke-width="4" d="M1844.27,-523.418C1855.91,-526.405 1943.92,-548.993 1954.88,-551.805"/>
<text text-anchor="middle" x="2009.53" y="-567.585" font-family="Times,serif" font-size="30.00">Xbirchmanni_GARC</text>
</g>
<!-- &#45;19&#45;&#45;15 -->
<g id="edge33" class="edge"><title>&#45;19&#45;&#45;15</title>
<path fill="none" stroke="black" stroke-width="4" d="M1844.27,-522.688C1855.91,-518.98 1943.92,-490.939 1954.88,-487.448"/>
<text text-anchor="middle" x="2014.34" y="-470.439" font-family="Times,serif" font-size="30.00">Xmalinche_CHIC2</text>
</g>
<!-- &#45;20&#45;&#45;17 -->
<g id="edge36" class="edge"><title>&#45;20&#45;&#45;17</title>
<path fill="none" stroke="black" stroke-width="4" d="M1844.27,-422.092C1855.91,-422.092 1943.92,-422.092 1954.88,-422.092"/>
<text text-anchor="middle" x="2013.97" y="-423.511" font-family="Times,serif" font-size="30.00">Xmontezumae</text>
</g>
<!-- &#45;20&#45;&#45;18 -->
<g id="edge37" class="edge"><title>&#45;20&#45;&#45;18</title>
<path fill="none" stroke="black" stroke-width="4" d="M1844.27,-421.362C1855.91,-414.667 1943.92,-364.038 1954.88,-357.735"/>
<text text-anchor="middle" x="2011.3" y="-328.304" font-family="Times,serif" font-size="30.00">Xnezahuacoyotl</text>
</g>
<!-- &#45;22 -->
<g id="node46" class="node"><title>&#45;22</title>
<ellipse fill="black" stroke="black" cx="1842" cy="-276.092" rx="1.8" ry="1.8"/>
</g>
<!-- &#45;21&#45;&#45;&#45;22 -->
<g id="edge39" class="edge"><title>&#45;21&#45;&#45;&#45;22</title>
<path fill="none" stroke="black" stroke-width="4" d="M1728.28,-276.092C1740.02,-276.092 1828.82,-276.092 1839.87,-276.092"/>
</g>
<!-- &#45;23 -->
<g id="node47" class="node"><title>&#45;23</title>
<ellipse fill="black" stroke="black" cx="1842" cy="-162.092" rx="1.8" ry="1.8"/>
</g>
<!-- &#45;21&#45;&#45;&#45;23 -->
<g id="edge42" class="edge"><title>&#45;21&#45;&#45;&#45;23</title>
<path fill="none" stroke="black" stroke-width="4" d="M1727.73,-275.364C1736.83,-266.262 1828.42,-174.671 1839.83,-163.258"/>
</g>
<!-- &#45;22&#45;&#45;19 -->
<g id="edge40" class="edge"><title>&#45;22&#45;&#45;19</title>
<path fill="none" stroke="black" stroke-width="4" d="M1844.27,-276.272C1855.91,-277.92 1943.92,-290.382 1954.88,-291.934"/>
<text text-anchor="middle" x="2011.93" y="-301.534" font-family="Times,serif" font-size="30.00">Xcontinens</text>
</g>
<!-- &#45;22&#45;&#45;20 -->
<g id="edge41" class="edge"><title>&#45;22&#45;&#45;20</title>
<path fill="none" stroke="black" stroke-width="4" d="M1844.27,-275.542C1855.91,-270.495 1943.92,-232.328 1954.88,-227.577"/>
<text text-anchor="middle" x="2013.24" y="-204.628" font-family="Times,serif" font-size="30.00">Xpygmaeus</text>
</g>
<!-- &#45;23&#45;&#45;21 -->
<g id="edge43" class="edge"><title>&#45;23&#45;&#45;21</title>
<path fill="none" stroke="black" stroke-width="4" d="M1844.27,-162.092C1855.91,-162.092 1943.92,-162.092 1954.88,-162.092"/>
<text text-anchor="middle" x="2013.97" y="-163.511" font-family="Times,serif" font-size="30.00">Xnigrensis</text>
</g>
<!-- &#45;23&#45;&#45;22 -->
<g id="edge44" class="edge"><title>&#45;23&#45;&#45;22</title>
<path fill="none" stroke="black" stroke-width="4" d="M1844.27,-161.362C1855.91,-154.667 1943.92,-104.038 1954.88,-97.7354"/>
<text text-anchor="middle" x="2011.3" y="-68.3043" font-family="Times,serif" font-size="30.00">Xmultilineatus</text>
</g>
<!-- &#45;24&#45;&#45;25 -->
<g id="edge47" class="edge"><title>&#45;24&#45;&#45;25</title>
<path fill="none" stroke="black" stroke-width="4" d="M933.663,-565.226C978.32,-541.96 1907.96,-57.6401 1955.14,-33.0607"/>
<text text-anchor="middle" x="2012.36" y="-6" font-family="Times,serif" font-size="30.00">Xxiphidium</text>
</g>
<!-- &#45;24&#45;&#45;23 -->
<g id="edge48" class="edge"><title>&#45;24&#45;&#45;23</title>
<path fill="none" stroke="#008b00" stroke-width="0.664" d="M934.277,-566.092C959.562,-566.092 1352.28,-566.092 1376.8,-566.092"/>
</g>
</g>
</svg>
