<?xml version="1.0" encoding="UTF-8" standalone="no"?>
<!DOCTYPE svg PUBLIC "-//W3C//DTD SVG 1.1//EN"
 "http://www.w3.org/Graphics/SVG/1.1/DTD/svg11.dtd">
<!-- Generated by graphviz version 2.36.0 (20140111.2315)
 -->
<!-- Title: %47 Pages: 1 -->
<svg width="257pt" height="576pt"
 viewBox="0.00 0.00 257.49 576.00" xmlns="http://www.w3.org/2000/svg" xmlns:xlink="http://www.w3.org/1999/xlink">
<g id="graph0" class="graph" transform="scale(0.978593 0.978593) rotate(0) translate(4 584.6)">
<title>%47</title>
<polygon fill="white" stroke="none" points="-4,4 -4,-584.6 259.122,-584.6 259.122,4 -4,4"/>
<!-- 1 -->
<g id="node1" class="node"><title>1</title>
<ellipse fill="black" stroke="black" cx="123.6" cy="-563" rx="3.6" ry="3.6"/>
<text text-anchor="middle" x="116.5" y="-569.4" font-family="Times,serif" font-size="14.00">1</text>
</g>
<!-- 2 -->
<g id="node6" class="node"><title>2</title>
<ellipse fill="black" stroke="black" cx="85.6" cy="-426" rx="3.6" ry="3.6"/>
<text text-anchor="middle" x="78.5" y="-432.4" font-family="Times,serif" font-size="14.00">2</text>
</g>
<!-- 1&#45;&#45;2 -->
<g id="edge1" class="edge"><title>1&#45;&#45;2</title>
<path fill="none" stroke="black" stroke-width="4" d="M122.806,-559.18C117.861,-541.611 91.3219,-447.328 86.3893,-429.804"/>
</g>
<!-- 3 -->
<g id="node7" class="node"><title>3</title>
<ellipse fill="black" stroke="black" cx="164.6" cy="-426" rx="3.6" ry="3.6"/>
<text text-anchor="middle" x="157.5" y="-432.4" font-family="Times,serif" font-size="14.00">3</text>
</g>
<!-- 1&#45;&#45;3 -->
<g id="edge7" class="edge"><title>1&#45;&#45;3</title>
<path fill="none" stroke="black" stroke-width="4" d="M124.456,-559.18C129.792,-541.611 158.426,-447.328 163.748,-429.804"/>
</g>
<!-- 4 -->
<g id="node2" class="node"><title>4</title>
<ellipse fill="black" stroke="black" cx="10.6" cy="-13" rx="3.6" ry="3.6"/>
<text text-anchor="middle" x="3.5" y="-19.4" font-family="Times,serif" font-size="14.00">4</text>
</g>
<!-- 6 -->
<g id="node3" class="node"><title>6</title>
<ellipse fill="black" stroke="black" cx="245.6" cy="-13" rx="3.6" ry="3.6"/>
<text text-anchor="middle" x="238.5" y="-19.4" font-family="Times,serif" font-size="14.00">6</text>
</g>
<!-- 8 -->
<g id="node4" class="node"><title>8</title>
<ellipse fill="black" stroke="black" cx="89.6" cy="-13" rx="3.6" ry="3.6"/>
<text text-anchor="middle" x="82.5" y="-19.4" font-family="Times,serif" font-size="14.00">8</text>
</g>
<!-- 9 -->
<g id="node5" class="node"><title>9</title>
<ellipse fill="black" stroke="black" cx="167.6" cy="-13" rx="3.6" ry="3.6"/>
<text text-anchor="middle" x="160.5" y="-19.4" font-family="Times,serif" font-size="14.00">9</text>
</g>
<!-- 2&#45;&#45;4 -->
<g id="edge2" class="edge"><title>2&#45;&#45;4</title>
<path fill="none" stroke="black" stroke-width="4" d="M85.1211,-422.375C79.0579,-389.149 17.3606,-51.048 11.1101,-16.7953"/>
</g>
<!-- 5 -->
<g id="node8" class="node"><title>5</title>
<ellipse fill="black" stroke="black" cx="126.6" cy="-288" rx="3.6" ry="3.6"/>
<text text-anchor="middle" x="119.5" y="-294.4" font-family="Times,serif" font-size="14.00">5</text>
</g>
<!-- 2&#45;&#45;5 -->
<g id="edge3" class="edge"><title>2&#45;&#45;5</title>
<path fill="none" stroke="blue" stroke-width="3.6" d="M86.4563,-422.159C91.7921,-404.46 120.426,-309.478 125.748,-291.825"/>
<text text-anchor="middle" x="120.528" y="-409.953" font-family="Times,serif" font-size="14.00"> γ = 0.9</text>
</g>
<!-- 3&#45;&#45;6 -->
<g id="edge9" class="edge"><title>3&#45;&#45;6</title>
<path fill="none" stroke="black" stroke-width="4" d="M165.117,-422.375C171.665,-389.149 238.299,-51.048 245.049,-16.7953"/>
</g>
<!-- 3&#45;&#45;5 -->
<g id="edge8" class="edge"><title>3&#45;&#45;5</title>
<path fill="none" stroke="red" stroke-width="0.4" d="M163.806,-422.159C158.861,-404.46 132.322,-309.478 127.389,-291.825"/>
</g>
<!-- 7 -->
<g id="node9" class="node"><title>7</title>
<ellipse fill="black" stroke="black" cx="126.6" cy="-150" rx="3.6" ry="3.6"/>
<text text-anchor="middle" x="119.5" y="-156.4" font-family="Times,serif" font-size="14.00">7</text>
</g>
<!-- 5&#45;&#45;7 -->
<g id="edge4" class="edge"><title>5&#45;&#45;7</title>
<path fill="none" stroke="black" stroke-width="4" d="M126.6,-284.159C126.6,-266.46 126.6,-171.478 126.6,-153.825"/>
</g>
<!-- 7&#45;&#45;8 -->
<g id="edge5" class="edge"><title>7&#45;&#45;8</title>
<path fill="none" stroke="black" stroke-width="4" d="M125.827,-146.18C121.012,-128.611 95.1713,-34.3279 90.3685,-16.8042"/>
</g>
<!-- 7&#45;&#45;9 -->
<g id="edge6" class="edge"><title>7&#45;&#45;9</title>
<path fill="none" stroke="black" stroke-width="4" d="M127.456,-146.18C132.792,-128.611 161.426,-34.3279 166.748,-16.8042"/>
</g>
</g>
</svg>
