<?xml version="1.0" encoding="UTF-8" standalone="no"?>
<!DOCTYPE svg PUBLIC "-//W3C//DTD SVG 1.1//EN"
 "http://www.w3.org/Graphics/SVG/1.1/DTD/svg11.dtd">
<!-- Generated by graphviz version 2.36.0 (20140111.2315)
 -->
<!-- Title: Phylogeny Pages: 1 -->
<svg width="432pt" height="417pt"
 viewBox="0.00 0.00 432.00 416.96" xmlns="http://www.w3.org/2000/svg" xmlns:xlink="http://www.w3.org/1999/xlink">
<g id="graph0" class="graph" transform="scale(0.204874 0.204874) rotate(0) translate(4 2031.19)">
<title>Phylogeny</title>
<polygon fill="white" stroke="none" points="-4,4 -4,-2031.19 2104.61,-2031.19 2104.61,4 -4,4"/>
<!-- &#45;1 -->
<g id="node1" class="node"><title>&#45;1</title>
<ellipse fill="black" stroke="black" cx="167.49" cy="-2021.19" rx="1.8" ry="1.8"/>
</g>
<!-- 1 -->
<g id="node2" class="node"><title>1</title>
<ellipse fill="black" stroke="black" cx="49.4902" cy="-70.1852" rx="1.8" ry="1.8"/>
</g>
<!-- &#45;1&#45;&#45;1 -->
<g id="edge1" class="edge"><title>&#45;1&#45;&#45;1</title>
<path fill="none" stroke="black" stroke-width="4" d="M167.357,-2018.98C163.012,-1947.15 53.8797,-142.761 49.6184,-72.3042"/>
<text text-anchor="middle" x="45.9961" y="-5.21362" font-family="Times,serif" font-size="24.00">Xgordoni</text>
</g>
<!-- 2 -->
<g id="node3" class="node"><title>2</title>
<ellipse fill="black" stroke="black" cx="167.49" cy="-70.1852" rx="1.8" ry="1.8"/>
</g>
<!-- &#45;1&#45;&#45;2 -->
<g id="edge2" class="edge"><title>&#45;1&#45;&#45;2</title>
<path fill="none" stroke="black" stroke-width="4" d="M167.49,-2018.98C167.49,-1947.15 167.49,-142.761 167.49,-72.3042"/>
<text text-anchor="middle" x="167.49" y="-5.10418" font-family="Times,serif" font-size="24.00">Xmeyeri</text>
</g>
<!-- &#45;2 -->
<g id="node26" class="node"><title>&#45;2</title>
<ellipse fill="black" stroke="black" cx="285.49" cy="-1886.19" rx="1.8" ry="1.8"/>
</g>
<!-- &#45;1&#45;&#45;&#45;2 -->
<g id="edge3" class="edge"><title>&#45;1&#45;&#45;&#45;2</title>
<path fill="none" stroke="black" stroke-width="4" d="M168.244,-2019.34C177.822,-2008.54 275.654,-1898.27 284.805,-1887.96"/>
</g>
<!-- 3 -->
<g id="node4" class="node"><title>3</title>
<ellipse fill="black" stroke="black" cx="285.49" cy="-70.1852" rx="1.8" ry="1.8"/>
</g>
<!-- 4 -->
<g id="node5" class="node"><title>4</title>
<ellipse fill="black" stroke="black" cx="403.49" cy="-70.1852" rx="1.8" ry="1.8"/>
</g>
<!-- 5 -->
<g id="node6" class="node"><title>5</title>
<ellipse fill="black" stroke="black" cx="521.49" cy="-70.1852" rx="1.8" ry="1.8"/>
</g>
<!-- 6 -->
<g id="node7" class="node"><title>6</title>
<ellipse fill="black" stroke="black" cx="757.49" cy="-70.1852" rx="1.8" ry="1.8"/>
</g>
<!-- 7 -->
<g id="node8" class="node"><title>7</title>
<ellipse fill="black" stroke="black" cx="875.49" cy="-70.1852" rx="1.8" ry="1.8"/>
</g>
<!-- 8 -->
<g id="node9" class="node"><title>8</title>
<ellipse fill="black" stroke="black" cx="960.49" cy="-70.1852" rx="1.8" ry="1.8"/>
</g>
<!-- 9 -->
<g id="node10" class="node"><title>9</title>
<ellipse fill="black" stroke="black" cx="1025.49" cy="-70.1852" rx="1.8" ry="1.8"/>
</g>
<!-- 10 -->
<g id="node11" class="node"><title>10</title>
<ellipse fill="black" stroke="black" cx="1229.49" cy="-70.1852" rx="1.8" ry="1.8"/>
</g>
<!-- 11 -->
<g id="node12" class="node"><title>11</title>
<ellipse fill="black" stroke="black" cx="1294.49" cy="-70.1852" rx="1.8" ry="1.8"/>
</g>
<!-- 12 -->
<g id="node13" class="node"><title>12</title>
<ellipse fill="black" stroke="black" cx="1359.49" cy="-70.1852" rx="1.8" ry="1.8"/>
</g>
<!-- 13 -->
<g id="node14" class="node"><title>13</title>
<ellipse fill="black" stroke="black" cx="1111.49" cy="-70.1852" rx="1.8" ry="1.8"/>
</g>
<!-- 14 -->
<g id="node15" class="node"><title>14</title>
<ellipse fill="black" stroke="black" cx="1489.49" cy="-70.1852" rx="1.8" ry="1.8"/>
</g>
<!-- 15 -->
<g id="node16" class="node"><title>15</title>
<ellipse fill="black" stroke="black" cx="1554.49" cy="-70.1852" rx="1.8" ry="1.8"/>
</g>
<!-- 16 -->
<g id="node17" class="node"><title>16</title>
<ellipse fill="black" stroke="black" cx="1424.49" cy="-70.1852" rx="1.8" ry="1.8"/>
</g>
<!-- 17 -->
<g id="node18" class="node"><title>17</title>
<ellipse fill="black" stroke="black" cx="1619.49" cy="-70.1852" rx="1.8" ry="1.8"/>
</g>
<!-- 18 -->
<g id="node19" class="node"><title>18</title>
<ellipse fill="black" stroke="black" cx="1684.49" cy="-70.1852" rx="1.8" ry="1.8"/>
</g>
<!-- 19 -->
<g id="node20" class="node"><title>19</title>
<ellipse fill="black" stroke="black" cx="1749.49" cy="-70.1852" rx="1.8" ry="1.8"/>
</g>
<!-- 20 -->
<g id="node21" class="node"><title>20</title>
<ellipse fill="black" stroke="black" cx="1814.49" cy="-70.1852" rx="1.8" ry="1.8"/>
</g>
<!-- 21 -->
<g id="node22" class="node"><title>21</title>
<ellipse fill="black" stroke="black" cx="1879.49" cy="-70.1852" rx="1.8" ry="1.8"/>
</g>
<!-- 22 -->
<g id="node23" class="node"><title>22</title>
<ellipse fill="black" stroke="black" cx="1944.49" cy="-70.1852" rx="1.8" ry="1.8"/>
</g>
<!-- 24 -->
<g id="node24" class="node"><title>24</title>
<ellipse fill="black" stroke="black" cx="639.49" cy="-70.1852" rx="1.8" ry="1.8"/>
</g>
<!-- 25 -->
<g id="node25" class="node"><title>25</title>
<ellipse fill="black" stroke="black" cx="2009.49" cy="-70.1852" rx="1.8" ry="1.8"/>
</g>
<!-- &#45;2&#45;&#45;3 -->
<g id="edge4" class="edge"><title>&#45;2&#45;&#45;3</title>
<path fill="none" stroke="black" stroke-width="4" d="M285.49,-1884.13C285.49,-1817.27 285.49,-137.739 285.49,-72.1576"/>
<text text-anchor="middle" x="285.49" y="-4.95756" font-family="Times,serif" font-size="24.00">Xcouchianus</text>
</g>
<!-- &#45;3 -->
<g id="node27" class="node"><title>&#45;3</title>
<ellipse fill="black" stroke="black" cx="403.49" cy="-1752.19" rx="1.8" ry="1.8"/>
</g>
<!-- &#45;2&#45;&#45;&#45;3 -->
<g id="edge5" class="edge"><title>&#45;2&#45;&#45;&#45;3</title>
<path fill="none" stroke="black" stroke-width="4" d="M286.244,-1884.34C295.822,-1873.63 393.654,-1764.19 402.805,-1753.95"/>
</g>
<!-- &#45;3&#45;&#45;4 -->
<g id="edge6" class="edge"><title>&#45;3&#45;&#45;4</title>
<path fill="none" stroke="black" stroke-width="4" d="M403.49,-1750.29C403.49,-1688.36 403.49,-132.754 403.49,-72.012"/>
<text text-anchor="middle" x="403.49" y="-4.81202" font-family="Times,serif" font-size="24.00">Xvariatus</text>
</g>
<!-- &#45;4 -->
<g id="node28" class="node"><title>&#45;4</title>
<ellipse fill="black" stroke="black" cx="521.49" cy="-1618.19" rx="1.8" ry="1.8"/>
</g>
<!-- &#45;3&#45;&#45;&#45;4 -->
<g id="edge7" class="edge"><title>&#45;3&#45;&#45;&#45;4</title>
<path fill="none" stroke="black" stroke-width="4" d="M404.244,-1750.34C413.822,-1739.63 511.654,-1630.19 520.805,-1619.95"/>
</g>
<!-- &#45;4&#45;&#45;5 -->
<g id="edge8" class="edge"><title>&#45;4&#45;&#45;5</title>
<path fill="none" stroke="black" stroke-width="4" d="M521.49,-1616.07C521.49,-1553.75 521.49,-133.219 521.49,-72.2089"/>
<text text-anchor="middle" x="521.49" y="-5.00889" font-family="Times,serif" font-size="24.00">Xevelynae</text>
</g>
<!-- &#45;5 -->
<g id="node29" class="node"><title>&#45;5</title>
<ellipse fill="black" stroke="black" cx="698.49" cy="-1483.19" rx="1.8" ry="1.8"/>
</g>
<!-- &#45;4&#45;&#45;&#45;5 -->
<g id="edge9" class="edge"><title>&#45;4&#45;&#45;&#45;5</title>
<path fill="none" stroke="black" stroke-width="4" d="M522.621,-1616.34C536.988,-1605.54 683.736,-1495.27 697.462,-1484.96"/>
</g>
<!-- &#45;6 -->
<g id="node30" class="node"><title>&#45;6</title>
<ellipse fill="black" stroke="black" cx="698.49" cy="-1349.19" rx="1.8" ry="1.8"/>
</g>
<!-- &#45;5&#45;&#45;&#45;6 -->
<g id="edge10" class="edge"><title>&#45;5&#45;&#45;&#45;6</title>
<path fill="none" stroke="black" stroke-width="4" d="M698.49,-1481.34C698.49,-1470.8 698.49,-1364.75 698.49,-1351.53"/>
</g>
<!-- &#45;24 -->
<g id="node48" class="node"><title>&#45;24</title>
<ellipse fill="black" stroke="black" cx="1396.49" cy="-946.185" rx="1.8" ry="1.8"/>
</g>
<!-- &#45;5&#45;&#45;&#45;24 -->
<g id="edge46" class="edge"><title>&#45;5&#45;&#45;&#45;24</title>
<path fill="none" stroke="black" stroke-width="4" d="M700.027,-1482C735.153,-1454.98 1360.84,-973.609 1395.04,-947.305"/>
</g>
<!-- &#45;6&#45;&#45;24 -->
<g id="edge45" class="edge"><title>&#45;6&#45;&#45;24</title>
<path fill="none" stroke="black" stroke-width="4" d="M698.395,-1347.11C695.819,-1291.27 642.098,-126.722 639.582,-72.1646"/>
<text text-anchor="middle" x="636.817" y="-5.02836" font-family="Times,serif" font-size="24.00">Xmilleri</text>
</g>
<!-- &#45;7 -->
<g id="node31" class="node"><title>&#45;7</title>
<ellipse fill="black" stroke="black" cx="757.49" cy="-1215.19" rx="1.8" ry="1.8"/>
</g>
<!-- &#45;6&#45;&#45;&#45;7 -->
<g id="edge11" class="edge"><title>&#45;6&#45;&#45;&#45;7</title>
<path fill="none" stroke="black" stroke-width="4" d="M698.867,-1347.34C703.578,-1336.8 750.98,-1230.75 756.887,-1217.53"/>
</g>
<!-- &#45;7&#45;&#45;6 -->
<g id="edge12" class="edge"><title>&#45;7&#45;&#45;6</title>
<path fill="none" stroke="black" stroke-width="4" d="M757.49,-1213.33C757.49,-1163.44 757.49,-124.965 757.49,-72.2622"/>
<text text-anchor="middle" x="757.49" y="-5.0622" font-family="Times,serif" font-size="24.00">Xandersi</text>
</g>
<!-- &#45;8 -->
<g id="node32" class="node"><title>&#45;8</title>
<ellipse fill="black" stroke="black" cx="875.49" cy="-1081.19" rx="1.8" ry="1.8"/>
</g>
<!-- &#45;7&#45;&#45;&#45;8 -->
<g id="edge13" class="edge"><title>&#45;7&#45;&#45;&#45;8</title>
<path fill="none" stroke="black" stroke-width="4" d="M758.244,-1213.34C767.822,-1202.63 865.654,-1093.19 874.805,-1082.95"/>
</g>
<!-- &#45;8&#45;&#45;7 -->
<g id="edge14" class="edge"><title>&#45;8&#45;&#45;7</title>
<path fill="none" stroke="black" stroke-width="4" d="M875.49,-1079.26C875.49,-1031.74 875.49,-118.363 875.49,-72.0119"/>
<text text-anchor="middle" x="875.49" y="-4.81186" font-family="Times,serif" font-size="24.00">Xmaculatus</text>
</g>
<!-- &#45;9 -->
<g id="node33" class="node"><title>&#45;9</title>
<ellipse fill="black" stroke="black" cx="1022.49" cy="-946.185" rx="1.8" ry="1.8"/>
</g>
<!-- &#45;8&#45;&#45;&#45;9 -->
<g id="edge15" class="edge"><title>&#45;8&#45;&#45;&#45;9</title>
<path fill="none" stroke="black" stroke-width="4" d="M876.429,-1079.34C888.362,-1068.54 1010.24,-958.272 1021.64,-947.958"/>
</g>
<!-- &#45;10 -->
<g id="node34" class="node"><title>&#45;10</title>
<ellipse fill="black" stroke="black" cx="1022.49" cy="-608.185" rx="1.8" ry="1.8"/>
</g>
<!-- &#45;9&#45;&#45;&#45;10 -->
<g id="edge16" class="edge"><title>&#45;9&#45;&#45;&#45;10</title>
<path fill="none" stroke="black" stroke-width="4" d="M1022.49,-944.367C1022.49,-919.009 1022.49,-636.586 1022.49,-610.165"/>
</g>
<!-- 23 -->
<g id="node39" class="node"><title>23</title>
<ellipse fill="black" stroke="black" cx="1396.49" cy="-742.185" rx="1.8" ry="1.8"/>
</g>
<!-- &#45;9&#45;&#45;23 -->
<g id="edge27" class="edge"><title>&#45;9&#45;&#45;23</title>
<path fill="none" stroke="#008b00" stroke-width="3.336" d="M1023.56,-944.606C1044.81,-933.128 1374.87,-754.86 1395.48,-743.729"/>
<text text-anchor="middle" x="1270.26" y="-836.985" font-family="Times,serif" font-size="24.00"> γ = 0.834</text>
</g>
<!-- &#45;11 -->
<g id="node35" class="node"><title>&#45;11</title>
<ellipse fill="black" stroke="black" cx="993.49" cy="-205.185" rx="1.8" ry="1.8"/>
</g>
<!-- &#45;10&#45;&#45;&#45;11 -->
<g id="edge17" class="edge"><title>&#45;10&#45;&#45;&#45;11</title>
<path fill="none" stroke="black" stroke-width="4" d="M1022.36,-606.388C1020.36,-578.565 995.746,-236.532 993.634,-207.19"/>
</g>
<!-- &#45;12 -->
<g id="node36" class="node"><title>&#45;12</title>
<ellipse fill="black" stroke="black" cx="1111.49" cy="-473.185" rx="1.8" ry="1.8"/>
</g>
<!-- &#45;10&#45;&#45;&#45;12 -->
<g id="edge20" class="edge"><title>&#45;10&#45;&#45;&#45;12</title>
<path fill="none" stroke="black" stroke-width="4" d="M1023.06,-606.336C1030.28,-595.54 1104.07,-485.272 1110.97,-474.958"/>
</g>
<!-- &#45;11&#45;&#45;8 -->
<g id="edge18" class="edge"><title>&#45;11&#45;&#45;8</title>
<path fill="none" stroke="black" stroke-width="4" d="M993.279,-203.336C990.645,-192.717 964.131,-85.8604 960.828,-72.5449"/>
<text text-anchor="middle" x="946.378" y="-7.11066" font-family="Times,serif" font-size="24.00">Xclemenciae_F2</text>
</g>
<!-- &#45;11&#45;&#45;9 -->
<g id="edge19" class="edge"><title>&#45;11&#45;&#45;9</title>
<path fill="none" stroke="black" stroke-width="4" d="M993.695,-203.336C996.25,-192.717 1021.96,-85.8604 1025.16,-72.5449"/>
<text text-anchor="middle" x="1039.2" y="-7.00961" font-family="Times,serif" font-size="24.00">Xmonticolus</text>
</g>
<!-- &#45;12&#45;&#45;13 -->
<g id="edge26" class="edge"><title>&#45;12&#45;&#45;13</title>
<path fill="none" stroke="black" stroke-width="4" d="M1111.49,-471.017C1111.49,-440.659 1111.49,-101.283 1111.49,-72.1736"/>
<text text-anchor="middle" x="1111.49" y="-4.97364" font-family="Times,serif" font-size="24.00">Xsignum</text>
</g>
<!-- &#45;13 -->
<g id="node37" class="node"><title>&#45;13</title>
<ellipse fill="black" stroke="black" cx="1229.49" cy="-339.185" rx="1.8" ry="1.8"/>
</g>
<!-- &#45;12&#45;&#45;&#45;13 -->
<g id="edge21" class="edge"><title>&#45;12&#45;&#45;&#45;13</title>
<path fill="none" stroke="black" stroke-width="4" d="M1112.24,-471.342C1121.82,-460.627 1219.65,-351.188 1228.8,-340.952"/>
</g>
<!-- &#45;13&#45;&#45;10 -->
<g id="edge22" class="edge"><title>&#45;13&#45;&#45;10</title>
<path fill="none" stroke="black" stroke-width="4" d="M1229.49,-337.175C1229.49,-313.809 1229.49,-94.2397 1229.49,-72"/>
<text text-anchor="middle" x="1229.49" y="-4.8" font-family="Times,serif" font-size="24.00">Xhellerii</text>
</g>
<!-- &#45;14 -->
<g id="node38" class="node"><title>&#45;14</title>
<ellipse fill="black" stroke="black" cx="1319.49" cy="-205.185" rx="1.8" ry="1.8"/>
</g>
<!-- &#45;13&#45;&#45;&#45;14 -->
<g id="edge23" class="edge"><title>&#45;13&#45;&#45;&#45;14</title>
<path fill="none" stroke="black" stroke-width="4" d="M1230.06,-337.342C1237.37,-326.627 1311.99,-217.188 1318.97,-206.952"/>
</g>
<!-- &#45;14&#45;&#45;11 -->
<g id="edge24" class="edge"><title>&#45;14&#45;&#45;11</title>
<path fill="none" stroke="black" stroke-width="4" d="M1319.33,-203.336C1317.33,-192.717 1297.25,-85.8604 1294.75,-72.5449"/>
<text text-anchor="middle" x="1283.66" y="-6.37757" font-family="Times,serif" font-size="24.00">Xalvarezi</text>
</g>
<!-- &#45;14&#45;&#45;12 -->
<g id="edge25" class="edge"><title>&#45;14&#45;&#45;12</title>
<path fill="none" stroke="black" stroke-width="4" d="M1319.75,-203.336C1322.94,-192.717 1355.08,-85.8604 1359.08,-72.5449"/>
<text text-anchor="middle" x="1376.36" y="-7.8872" font-family="Times,serif" font-size="24.00">Xmayae</text>
</g>
<!-- &#45;16 -->
<g id="node40" class="node"><title>&#45;16</title>
<ellipse fill="black" stroke="black" cx="1595.49" cy="-608.185" rx="1.8" ry="1.8"/>
</g>
<!-- 23&#45;&#45;&#45;16 -->
<g id="edge28" class="edge"><title>23&#45;&#45;&#45;16</title>
<path fill="none" stroke="black" stroke-width="4" d="M1397.38,-740.597C1411.06,-731.52 1578.64,-620.365 1594.32,-609.965"/>
</g>
<!-- &#45;17 -->
<g id="node41" class="node"><title>&#45;17</title>
<ellipse fill="black" stroke="black" cx="1595.49" cy="-473.185" rx="1.8" ry="1.8"/>
</g>
<!-- &#45;16&#45;&#45;&#45;17 -->
<g id="edge29" class="edge"><title>&#45;16&#45;&#45;&#45;17</title>
<path fill="none" stroke="black" stroke-width="4" d="M1595.49,-606.336C1595.49,-595.717 1595.49,-488.86 1595.49,-475.545"/>
</g>
<!-- &#45;21 -->
<g id="node45" class="node"><title>&#45;21</title>
<ellipse fill="black" stroke="black" cx="1765.49" cy="-339.185" rx="1.8" ry="1.8"/>
</g>
<!-- &#45;16&#45;&#45;&#45;21 -->
<g id="edge38" class="edge"><title>&#45;16&#45;&#45;&#45;21</title>
<path fill="none" stroke="black" stroke-width="4" d="M1596.58,-606.467C1610.38,-584.631 1751.32,-361.608 1764.5,-340.748"/>
</g>
<!-- &#45;18 -->
<g id="node42" class="node"><title>&#45;18</title>
<ellipse fill="black" stroke="black" cx="1518.49" cy="-339.185" rx="1.8" ry="1.8"/>
</g>
<!-- &#45;17&#45;&#45;&#45;18 -->
<g id="edge30" class="edge"><title>&#45;17&#45;&#45;&#45;18</title>
<path fill="none" stroke="black" stroke-width="4" d="M1595,-471.342C1588.75,-460.627 1524.91,-351.188 1518.94,-340.952"/>
</g>
<!-- &#45;20 -->
<g id="node44" class="node"><title>&#45;20</title>
<ellipse fill="black" stroke="black" cx="1619.49" cy="-205.185" rx="1.8" ry="1.8"/>
</g>
<!-- &#45;17&#45;&#45;&#45;20 -->
<g id="edge35" class="edge"><title>&#45;17&#45;&#45;&#45;20</title>
<path fill="none" stroke="black" stroke-width="4" d="M1595.67,-471.182C1597.75,-447.903 1617.34,-229.15 1619.33,-206.993"/>
</g>
<!-- &#45;18&#45;&#45;16 -->
<g id="edge34" class="edge"><title>&#45;18&#45;&#45;16</title>
<path fill="none" stroke="black" stroke-width="4" d="M1517.89,-337.467C1510.29,-315.721 1432.96,-94.4332 1425.13,-72.0147"/>
<text text-anchor="middle" x="1405.34" y="-8.17337" font-family="Times,serif" font-size="24.00">Xcortezi</text>
</g>
<!-- &#45;19 -->
<g id="node43" class="node"><title>&#45;19</title>
<ellipse fill="black" stroke="black" cx="1518.49" cy="-205.185" rx="1.8" ry="1.8"/>
</g>
<!-- &#45;18&#45;&#45;&#45;19 -->
<g id="edge31" class="edge"><title>&#45;18&#45;&#45;&#45;19</title>
<path fill="none" stroke="black" stroke-width="4" d="M1518.49,-337.342C1518.49,-326.803 1518.49,-220.75 1518.49,-207.535"/>
</g>
<!-- &#45;19&#45;&#45;14 -->
<g id="edge32" class="edge"><title>&#45;19&#45;&#45;14</title>
<path fill="none" stroke="black" stroke-width="4" d="M1518.31,-203.336C1515.99,-192.717 1492.69,-85.8604 1489.79,-72.5449"/>
<text text-anchor="middle" x="1477" y="-6.72226" font-family="Times,serif" font-size="24.00">Xbirchmanni_GARC</text>
</g>
<!-- &#45;19&#45;&#45;15 -->
<g id="edge33" class="edge"><title>&#45;19&#45;&#45;15</title>
<path fill="none" stroke="black" stroke-width="4" d="M1518.72,-203.336C1521.59,-192.717 1550.52,-85.8604 1554.12,-72.5449"/>
<text text-anchor="middle" x="1569.8" y="-7.429" font-family="Times,serif" font-size="24.00">Xmalinche_CHIC2</text>
</g>
<!-- &#45;20&#45;&#45;17 -->
<g id="edge36" class="edge"><title>&#45;20&#45;&#45;17</title>
<path fill="none" stroke="black" stroke-width="4" d="M1619.49,-203.336C1619.49,-192.717 1619.49,-85.8604 1619.49,-72.5449"/>
<text text-anchor="middle" x="1619.49" y="-5.34487" font-family="Times,serif" font-size="24.00">Xmontezumae</text>
</g>
<!-- &#45;20&#45;&#45;18 -->
<g id="edge37" class="edge"><title>&#45;20&#45;&#45;18</title>
<path fill="none" stroke="black" stroke-width="4" d="M1619.91,-203.336C1625.18,-192.54 1679.07,-82.2718 1684.11,-71.9579"/>
<text text-anchor="middle" x="1710.46" y="-10.8513" font-family="Times,serif" font-size="24.00">Xnezahuacoyotl</text>
</g>
<!-- &#45;22 -->
<g id="node46" class="node"><title>&#45;22</title>
<ellipse fill="black" stroke="black" cx="1765.49" cy="-205.185" rx="1.8" ry="1.8"/>
</g>
<!-- &#45;21&#45;&#45;&#45;22 -->
<g id="edge39" class="edge"><title>&#45;21&#45;&#45;&#45;22</title>
<path fill="none" stroke="black" stroke-width="4" d="M1765.49,-337.342C1765.49,-326.803 1765.49,-220.75 1765.49,-207.535"/>
</g>
<!-- &#45;23 -->
<g id="node47" class="node"><title>&#45;23</title>
<ellipse fill="black" stroke="black" cx="1879.49" cy="-205.185" rx="1.8" ry="1.8"/>
</g>
<!-- &#45;21&#45;&#45;&#45;23 -->
<g id="edge42" class="edge"><title>&#45;21&#45;&#45;&#45;23</title>
<path fill="none" stroke="black" stroke-width="4" d="M1766.22,-337.342C1775.47,-326.627 1869.99,-217.188 1878.83,-206.952"/>
</g>
<!-- &#45;22&#45;&#45;19 -->
<g id="edge40" class="edge"><title>&#45;22&#45;&#45;19</title>
<path fill="none" stroke="black" stroke-width="4" d="M1765.39,-203.336C1764.11,-192.717 1751.26,-85.8604 1749.65,-72.5449"/>
<text text-anchor="middle" x="1742.49" y="-5.77439" font-family="Times,serif" font-size="24.00">Xcontinens</text>
</g>
<!-- &#45;22&#45;&#45;20 -->
<g id="edge41" class="edge"><title>&#45;22&#45;&#45;20</title>
<path fill="none" stroke="black" stroke-width="4" d="M1765.8,-203.336C1769.72,-192.717 1809.08,-85.8604 1813.99,-72.5449"/>
<text text-anchor="middle" x="1834.73" y="-9.04429" font-family="Times,serif" font-size="24.00">Xpygmaeus</text>
</g>
<!-- &#45;23&#45;&#45;21 -->
<g id="edge43" class="edge"><title>&#45;23&#45;&#45;21</title>
<path fill="none" stroke="black" stroke-width="4" d="M1879.49,-203.336C1879.49,-192.717 1879.49,-85.8604 1879.49,-72.5449"/>
<text text-anchor="middle" x="1879.49" y="-5.34487" font-family="Times,serif" font-size="24.00">Xnigrensis</text>
</g>
<!-- &#45;23&#45;&#45;22 -->
<g id="edge44" class="edge"><title>&#45;23&#45;&#45;22</title>
<path fill="none" stroke="black" stroke-width="4" d="M1879.91,-203.336C1885.18,-192.54 1939.07,-82.2718 1944.11,-71.9579"/>
<text text-anchor="middle" x="1970.46" y="-10.8513" font-family="Times,serif" font-size="24.00">Xmultilineatus</text>
</g>
<!-- &#45;24&#45;&#45;25 -->
<g id="edge47" class="edge"><title>&#45;24&#45;&#45;25</title>
<path fill="none" stroke="black" stroke-width="4" d="M1397.66,-944.52C1426.42,-903.421 1978.06,-115.099 2008.21,-72.0184"/>
<text text-anchor="middle" x="2042.61" y="-15.6592" font-family="Times,serif" font-size="24.00">Xxiphidium</text>
</g>
<!-- &#45;24&#45;&#45;23 -->
<g id="edge48" class="edge"><title>&#45;24&#45;&#45;23</title>
<path fill="none" stroke="#008b00" stroke-width="0.664" d="M1396.49,-944.285C1396.49,-930.281 1396.49,-757.495 1396.49,-744.018"/>
</g>
</g>
</svg>
