<?xml version="1.0" encoding="UTF-8" standalone="no"?>
<!DOCTYPE svg PUBLIC "-//W3C//DTD SVG 1.1//EN"
 "http://www.w3.org/Graphics/SVG/1.1/DTD/svg11.dtd">
<!-- Generated by graphviz version 2.36.0 (20140111.2315)
 -->
<!-- Title: Phylogeny Pages: 1 -->
<svg width="426pt" height="432pt"
 viewBox="0.00 0.00 426.32 432.00" xmlns="http://www.w3.org/2000/svg" xmlns:xlink="http://www.w3.org/1999/xlink">
<g id="graph0" class="graph" transform="scale(0.932657 0.932657) rotate(0) translate(4 459.193)">
<title>Phylogeny</title>
<polygon fill="white" stroke="none" points="-4,4 -4,-459.193 453.103,-459.193 453.103,4 -4,4"/>
<!-- 1 -->
<g id="node1" class="node"><title>1</title>
<ellipse fill="black" stroke="black" cx="327.371" cy="-452.193" rx="1.8" ry="1.8"/>
</g>
<!-- &#45;2 -->
<g id="node7" class="node"><title>&#45;2</title>
<ellipse fill="black" stroke="black" cx="327.371" cy="-391.193" rx="1.8" ry="1.8"/>
</g>
<!-- 1&#45;&#45;&#45;2 -->
<g id="edge1" class="edge"><title>1&#45;&#45;&#45;2</title>
<path fill="none" stroke="black" stroke-width="4" d="M327.371,-450.169C327.371,-442.946 327.371,-399.769 327.371,-393.067"/>
</g>
<!-- 2 -->
<g id="node2" class="node"><title>2</title>
<ellipse fill="black" stroke="black" cx="13.3711" cy="-26.1927" rx="1.8" ry="1.8"/>
</g>
<!-- 3 -->
<g id="node3" class="node"><title>3</title>
<ellipse fill="black" stroke="black" cx="126.371" cy="-26.1927" rx="1.8" ry="1.8"/>
</g>
<!-- 5 -->
<g id="node4" class="node"><title>5</title>
<ellipse fill="black" stroke="black" cx="214.371" cy="-26.1927" rx="1.8" ry="1.8"/>
</g>
<!-- 6 -->
<g id="node5" class="node"><title>6</title>
<ellipse fill="black" stroke="black" cx="327.371" cy="-26.1927" rx="1.8" ry="1.8"/>
</g>
<!-- 8 -->
<g id="node6" class="node"><title>8</title>
<ellipse fill="black" stroke="black" cx="440.371" cy="-26.1927" rx="1.8" ry="1.8"/>
</g>
<!-- &#45;3 -->
<g id="node8" class="node"><title>&#45;3</title>
<ellipse fill="black" stroke="black" cx="296.371" cy="-330.193" rx="1.8" ry="1.8"/>
</g>
<!-- &#45;2&#45;&#45;&#45;3 -->
<g id="edge2" class="edge"><title>&#45;2&#45;&#45;&#45;3</title>
<path fill="none" stroke="black" stroke-width="4" d="M326.833,-389.169C323.038,-381.946 300.352,-338.769 296.83,-332.067"/>
</g>
<!-- &#45;9 -->
<g id="node14" class="node"><title>&#45;9</title>
<ellipse fill="black" stroke="black" cx="358.371" cy="-330.193" rx="1.8" ry="1.8"/>
</g>
<!-- &#45;2&#45;&#45;&#45;9 -->
<g id="edge13" class="edge"><title>&#45;2&#45;&#45;&#45;9</title>
<path fill="none" stroke="black" stroke-width="4" d="M327.909,-389.169C331.704,-381.946 354.39,-338.769 357.912,-332.067"/>
</g>
<!-- &#45;4 -->
<g id="node9" class="node"><title>&#45;4</title>
<ellipse fill="black" stroke="black" cx="214.371" cy="-269.193" rx="1.8" ry="1.8"/>
</g>
<!-- &#45;3&#45;&#45;&#45;4 -->
<g id="edge3" class="edge"><title>&#45;3&#45;&#45;&#45;4</title>
<path fill="none" stroke="black" stroke-width="4" d="M295.45,-328.53C287.075,-322.504 224.194,-277.261 215.393,-270.928"/>
</g>
<!-- 7 -->
<g id="node13" class="node"><title>7</title>
<ellipse fill="black" stroke="black" cx="327.371" cy="-269.193" rx="1.8" ry="1.8"/>
</g>
<!-- &#45;3&#45;&#45;7 -->
<g id="edge11" class="edge"><title>&#45;3&#45;&#45;7</title>
<path fill="none" stroke="#008b00" stroke-width="3.6" d="M296.909,-328.169C300.704,-320.946 323.39,-277.769 326.912,-271.067"/>
<text text-anchor="middle" x="288.867" y="-290.3" font-family="Times,serif" font-size="16.00"> γ = 0.9</text>
</g>
<!-- &#45;5 -->
<g id="node10" class="node"><title>&#45;5</title>
<ellipse fill="black" stroke="black" cx="126.371" cy="-209.193" rx="1.8" ry="1.8"/>
</g>
<!-- &#45;4&#45;&#45;&#45;5 -->
<g id="edge4" class="edge"><title>&#45;4&#45;&#45;&#45;5</title>
<path fill="none" stroke="black" stroke-width="4" d="M213.383,-267.541C204.395,-261.617 136.913,-217.141 127.468,-210.916"/>
</g>
<!-- 4 -->
<g id="node12" class="node"><title>4</title>
<ellipse fill="black" stroke="black" cx="214.371" cy="-87.1927" rx="1.8" ry="1.8"/>
</g>
<!-- &#45;4&#45;&#45;4 -->
<g id="edge9" class="edge"><title>&#45;4&#45;&#45;4</title>
<path fill="none" stroke="#008b00" stroke-width="3.6" d="M214.371,-267.149C214.371,-248.403 214.371,-106.641 214.371,-88.994"/>
<text text-anchor="middle" x="191.871" y="-123.165" font-family="Times,serif" font-size="16.00"> γ = 0.9</text>
</g>
<!-- &#45;5&#45;&#45;2 -->
<g id="edge5" class="edge"><title>&#45;5&#45;&#45;2</title>
<path fill="none" stroke="black" stroke-width="4" d="M125.394,-207.611C115.04,-190.842 25.6422,-46.0652 14.5079,-28.0336"/>
<text text-anchor="middle" x="4" y="-6.2164" font-family="Times,serif" font-size="16.00">1</text>
</g>
<!-- &#45;6 -->
<g id="node11" class="node"><title>&#45;6</title>
<ellipse fill="black" stroke="black" cx="126.371" cy="-148.193" rx="1.8" ry="1.8"/>
</g>
<!-- &#45;5&#45;&#45;&#45;6 -->
<g id="edge6" class="edge"><title>&#45;5&#45;&#45;&#45;6</title>
<path fill="none" stroke="black" stroke-width="4" d="M126.371,-207.169C126.371,-199.946 126.371,-156.769 126.371,-150.067"/>
</g>
<!-- &#45;6&#45;&#45;3 -->
<g id="edge7" class="edge"><title>&#45;6&#45;&#45;3</title>
<path fill="none" stroke="black" stroke-width="4" d="M126.371,-146.075C126.371,-131.14 126.371,-41.8591 126.371,-28"/>
<text text-anchor="middle" x="126.371" y="-3.2" font-family="Times,serif" font-size="16.00">2</text>
</g>
<!-- &#45;6&#45;&#45;4 -->
<g id="edge8" class="edge"><title>&#45;6&#45;&#45;4</title>
<path fill="none" stroke="#008b00" stroke-width="0.4" d="M127.359,-146.53C136.423,-140.453 204.968,-94.4974 213.5,-88.7766"/>
</g>
<!-- 4&#45;&#45;5 -->
<g id="edge10" class="edge"><title>4&#45;&#45;5</title>
<path fill="none" stroke="black" stroke-width="4" d="M214.371,-85.1686C214.371,-77.9461 214.371,-34.769 214.371,-28.0667"/>
<text text-anchor="middle" x="214.371" y="-3.26671" font-family="Times,serif" font-size="16.00">3</text>
</g>
<!-- 7&#45;&#45;6 -->
<g id="edge12" class="edge"><title>7&#45;&#45;6</title>
<path fill="none" stroke="black" stroke-width="4" d="M327.371,-267.376C327.371,-246.356 327.371,-49.5517 327.371,-28.0891"/>
<text text-anchor="middle" x="327.371" y="-3.28912" font-family="Times,serif" font-size="16.00">4</text>
</g>
<!-- &#45;9&#45;&#45;8 -->
<g id="edge14" class="edge"><title>&#45;9&#45;&#45;8</title>
<path fill="none" stroke="black" stroke-width="4" d="M358.895,-328.251C365.551,-303.574 433.536,-51.5335 439.895,-27.9589"/>
<text text-anchor="middle" x="445.103" y="-3.84904" font-family="Times,serif" font-size="16.00">5</text>
</g>
<!-- &#45;9&#45;&#45;7 -->
<g id="edge15" class="edge"><title>&#45;9&#45;&#45;7</title>
<path fill="none" stroke="#008b00" stroke-width="0.4" d="M357.833,-328.169C354.038,-320.946 331.352,-277.769 327.83,-271.067"/>
</g>
</g>
</svg>
