<?xml version="1.0" encoding="UTF-8" standalone="no"?>
<!DOCTYPE svg PUBLIC "-//W3C//DTD SVG 1.1//EN"
 "http://www.w3.org/Graphics/SVG/1.1/DTD/svg11.dtd">
<!-- Generated by graphviz version 2.36.0 (20140111.2315)
 -->
<!-- Title: Phylogeny Pages: 1 -->
<svg width="416pt" height="432pt"
 viewBox="0.00 0.00 415.56 432.00" xmlns="http://www.w3.org/2000/svg" xmlns:xlink="http://www.w3.org/1999/xlink">
<g id="graph0" class="graph" transform="scale(0.653661 0.653661) rotate(0) translate(4 656.893)">
<title>Phylogeny</title>
<polygon fill="white" stroke="none" points="-4,4 -4,-656.893 631.742,-656.893 631.742,4 -4,4"/>
<!-- &#45;1 -->
<g id="node1" class="node"><title>&#45;1</title>
<ellipse fill="black" stroke="black" cx="69.8053" cy="-346.819" rx="1.8" ry="1.8"/>
</g>
<!-- 1 -->
<g id="node2" class="node"><title>1</title>
<ellipse fill="black" stroke="black" cx="23.1031" cy="-273.218" rx="1.8" ry="1.8"/>
</g>
<!-- &#45;1&#45;&#45;1 -->
<g id="edge1" class="edge"><title>&#45;1&#45;&#45;1</title>
<path fill="none" stroke="black" stroke-width="4" d="M68.8299,-345.281C62.752,-335.703 30.1354,-284.3 24.0732,-274.746"/>
<text text-anchor="middle" x="8" y="-244.616" font-family="Times,serif" font-size="16.00">10</text>
</g>
<!-- &#45;2 -->
<g id="node12" class="node"><title>&#45;2</title>
<ellipse fill="black" stroke="black" cx="134.86" cy="-403.172" rx="1.8" ry="1.8"/>
</g>
<!-- &#45;1&#45;&#45;&#45;2 -->
<g id="edge2" class="edge"><title>&#45;1&#45;&#45;&#45;2</title>
<path fill="none" stroke="black" stroke-width="4" d="M71.4134,-348.212C80.3356,-355.94 123.692,-393.497 133.069,-401.621"/>
</g>
<!-- 3 -->
<g id="node3" class="node"><title>3</title>
<ellipse fill="black" stroke="black" cx="83.8894" cy="-586.225" rx="1.8" ry="1.8"/>
</g>
<!-- 4 -->
<g id="node4" class="node"><title>4</title>
<ellipse fill="black" stroke="black" cx="228.506" cy="-617.518" rx="1.8" ry="1.8"/>
</g>
<!-- 5 -->
<g id="node5" class="node"><title>5</title>
<ellipse fill="black" stroke="black" cx="221.994" cy="-144.96" rx="1.8" ry="1.8"/>
</g>
<!-- 7 -->
<g id="node6" class="node"><title>7</title>
<ellipse fill="black" stroke="black" cx="384.801" cy="-492.369" rx="1.8" ry="1.8"/>
</g>
<!-- 8 -->
<g id="node7" class="node"><title>8</title>
<ellipse fill="black" stroke="black" cx="491.78" cy="-437.23" rx="1.8" ry="1.8"/>
</g>
<!-- 9 -->
<g id="node8" class="node"><title>9</title>
<ellipse fill="black" stroke="black" cx="600.412" cy="-180.499" rx="1.8" ry="1.8"/>
</g>
<!-- 10 -->
<g id="node9" class="node"><title>10</title>
<ellipse fill="black" stroke="black" cx="606.4" cy="-321.662" rx="1.8" ry="1.8"/>
</g>
<!-- 11 -->
<g id="node10" class="node"><title>11</title>
<ellipse fill="black" stroke="black" cx="451.577" cy="-55.0687" rx="1.8" ry="1.8"/>
</g>
<!-- 12 -->
<g id="node11" class="node"><title>12</title>
<ellipse fill="black" stroke="black" cx="318.428" cy="-35.3719" rx="1.8" ry="1.8"/>
</g>
<!-- 2 -->
<g id="node13" class="node"><title>2</title>
<ellipse fill="black" stroke="black" cx="216.741" cy="-403.678" rx="1.8" ry="1.8"/>
</g>
<!-- &#45;2&#45;&#45;2 -->
<g id="edge3" class="edge"><title>&#45;2&#45;&#45;2</title>
<path fill="none" stroke="#008b00" stroke-width="0.4" d="M136.884,-403.184C148.212,-403.254 203.645,-403.597 214.788,-403.666"/>
<text text-anchor="middle" x="188.092" y="-390.625" font-family="Times,serif" font-size="16.00"> γ = 0.1</text>
</g>
<!-- &#45;3 -->
<g id="node14" class="node"><title>&#45;3</title>
<ellipse fill="black" stroke="black" cx="125.222" cy="-508.403" rx="1.8" ry="1.8"/>
</g>
<!-- &#45;2&#45;&#45;&#45;3 -->
<g id="edge4" class="edge"><title>&#45;2&#45;&#45;&#45;3</title>
<path fill="none" stroke="black" stroke-width="4" d="M134.692,-404.998C133.523,-417.771 126.579,-493.589 125.394,-506.526"/>
</g>
<!-- &#45;6 -->
<g id="node16" class="node"><title>&#45;6</title>
<ellipse fill="black" stroke="black" cx="283.767" cy="-335.378" rx="1.8" ry="1.8"/>
</g>
<!-- 2&#45;&#45;&#45;6 -->
<g id="edge9" class="edge"><title>2&#45;&#45;&#45;6</title>
<path fill="none" stroke="black" stroke-width="4" d="M218.141,-402.251C226.864,-393.363 273.674,-345.662 282.375,-336.796"/>
</g>
<!-- &#45;3&#45;&#45;3 -->
<g id="edge5" class="edge"><title>&#45;3&#45;&#45;3</title>
<path fill="none" stroke="black" stroke-width="4" d="M124.359,-510.029C118.98,-520.156 90.1131,-574.506 84.7479,-584.608"/>
<text text-anchor="middle" x="70.6759" y="-606.303" font-family="Times,serif" font-size="16.00">1</text>
</g>
<!-- &#45;4 -->
<g id="node15" class="node"><title>&#45;4</title>
<ellipse fill="black" stroke="black" cx="204.373" cy="-515.418" rx="1.8" ry="1.8"/>
</g>
<!-- &#45;3&#45;&#45;&#45;4 -->
<g id="edge6" class="edge"><title>&#45;3&#45;&#45;&#45;4</title>
<path fill="none" stroke="black" stroke-width="4" d="M127.179,-508.577C138.129,-509.547 191.714,-514.296 202.485,-515.251"/>
</g>
<!-- &#45;4&#45;&#45;4 -->
<g id="edge7" class="edge"><title>&#45;4&#45;&#45;4</title>
<path fill="none" stroke="black" stroke-width="4" d="M204.792,-517.19C207.721,-529.583 225.109,-603.145 228.076,-615.697"/>
<text text-anchor="middle" x="234.976" y="-640.093" font-family="Times,serif" font-size="16.00">2</text>
</g>
<!-- &#45;4&#45;&#45;2 -->
<g id="edge8" class="edge"><title>&#45;4&#45;&#45;2</title>
<path fill="none" stroke="#008b00" stroke-width="3.6" d="M204.588,-513.479C206.089,-499.916 215,-419.408 216.52,-405.671"/>
</g>
<!-- 6 -->
<g id="node17" class="node"><title>6</title>
<ellipse fill="black" stroke="black" cx="282.47" cy="-219.269" rx="1.8" ry="1.8"/>
</g>
<!-- &#45;6&#45;&#45;6 -->
<g id="edge10" class="edge"><title>&#45;6&#45;&#45;6</title>
<path fill="none" stroke="#008b00" stroke-width="3.6" d="M283.744,-333.362C283.587,-319.269 282.653,-235.614 282.493,-221.34"/>
</g>
<!-- &#45;8 -->
<g id="node18" class="node"><title>&#45;8</title>
<ellipse fill="black" stroke="black" cx="362.301" cy="-385.376" rx="1.8" ry="1.8"/>
</g>
<!-- &#45;6&#45;&#45;&#45;8 -->
<g id="edge12" class="edge"><title>&#45;6&#45;&#45;&#45;8</title>
<path fill="none" stroke="black" stroke-width="4" d="M285.407,-336.422C295.628,-342.929 350.476,-377.847 360.67,-384.338"/>
</g>
<!-- 6&#45;&#45;5 -->
<g id="edge11" class="edge"><title>6&#45;&#45;5</title>
<path fill="none" stroke="black" stroke-width="4" d="M281.207,-217.717C273.336,-208.047 231.1,-156.149 223.25,-146.503"/>
<text text-anchor="middle" x="204.313" y="-118.435" font-family="Times,serif" font-size="16.00">9</text>
</g>
<!-- &#45;8&#45;&#45;7 -->
<g id="edge13" class="edge"><title>&#45;8&#45;&#45;7</title>
<path fill="none" stroke="black" stroke-width="4" d="M362.692,-387.233C365.423,-400.22 381.633,-477.307 384.399,-490.461"/>
<text text-anchor="middle" x="390.573" y="-515.019" font-family="Times,serif" font-size="16.00">3</text>
</g>
<!-- &#45;9 -->
<g id="node19" class="node"><title>&#45;9</title>
<ellipse fill="black" stroke="black" cx="440.284" cy="-350.153" rx="1.8" ry="1.8"/>
</g>
<!-- &#45;8&#45;&#45;&#45;9 -->
<g id="edge14" class="edge"><title>&#45;8&#45;&#45;&#45;9</title>
<path fill="none" stroke="black" stroke-width="4" d="M364.229,-384.505C375.018,-379.632 427.812,-355.787 438.424,-350.993"/>
</g>
<!-- &#45;9&#45;&#45;8 -->
<g id="edge15" class="edge"><title>&#45;9&#45;&#45;8</title>
<path fill="none" stroke="black" stroke-width="4" d="M441.36,-351.972C448.061,-363.304 484.026,-424.119 490.71,-435.422"/>
<text text-anchor="middle" x="505.981" y="-456.444" font-family="Times,serif" font-size="16.00">4</text>
</g>
<!-- &#45;10 -->
<g id="node20" class="node"><title>&#45;10</title>
<ellipse fill="black" stroke="black" cx="470.946" cy="-246.435" rx="1.8" ry="1.8"/>
</g>
<!-- &#45;9&#45;&#45;&#45;10 -->
<g id="edge16" class="edge"><title>&#45;9&#45;&#45;&#45;10</title>
<path fill="none" stroke="black" stroke-width="4" d="M440.816,-348.353C444.538,-335.764 466.629,-261.035 470.399,-248.284"/>
</g>
<!-- &#45;11 -->
<g id="node21" class="node"><title>&#45;11</title>
<ellipse fill="black" stroke="black" cx="549.922" cy="-249.655" rx="1.8" ry="1.8"/>
</g>
<!-- &#45;10&#45;&#45;&#45;11 -->
<g id="edge17" class="edge"><title>&#45;10&#45;&#45;&#45;11</title>
<path fill="none" stroke="black" stroke-width="4" d="M472.898,-246.514C483.824,-246.96 537.29,-249.14 548.038,-249.578"/>
</g>
<!-- &#45;12 -->
<g id="node22" class="node"><title>&#45;12</title>
<ellipse fill="black" stroke="black" cx="424.907" cy="-152.887" rx="1.8" ry="1.8"/>
</g>
<!-- &#45;10&#45;&#45;&#45;12 -->
<g id="edge20" class="edge"><title>&#45;10&#45;&#45;&#45;12</title>
<path fill="none" stroke="black" stroke-width="4" d="M470.146,-244.811C464.558,-233.456 431.388,-166.056 425.728,-154.555"/>
</g>
<!-- &#45;11&#45;&#45;9 -->
<g id="edge18" class="edge"><title>&#45;11&#45;&#45;9</title>
<path fill="none" stroke="black" stroke-width="4" d="M551.17,-247.946C558.095,-238.461 591.744,-192.371 599.022,-182.403"/>
<text text-anchor="middle" x="616.712" y="-153.373" font-family="Times,serif" font-size="16.00">5</text>
</g>
<!-- &#45;11&#45;&#45;10 -->
<g id="edge19" class="edge"><title>&#45;11&#45;&#45;10</title>
<path fill="none" stroke="black" stroke-width="4" d="M551.102,-251.159C558.452,-260.53 597.896,-310.82 605.227,-320.167"/>
<text text-anchor="middle" x="623.742" y="-338.972" font-family="Times,serif" font-size="16.00">6</text>
</g>
<!-- &#45;12&#45;&#45;11 -->
<g id="edge21" class="edge"><title>&#45;12&#45;&#45;11</title>
<path fill="none" stroke="black" stroke-width="4" d="M425.464,-150.844C428.935,-138.114 447.562,-69.7979 451.023,-57.1006"/>
<text text-anchor="middle" x="458.915" y="-23.3571" font-family="Times,serif" font-size="16.00">7</text>
</g>
<!-- &#45;13 -->
<g id="node23" class="node"><title>&#45;13</title>
<ellipse fill="black" stroke="black" cx="342.434" cy="-140.572" rx="1.8" ry="1.8"/>
</g>
<!-- &#45;12&#45;&#45;&#45;13 -->
<g id="edge22" class="edge"><title>&#45;12&#45;&#45;&#45;13</title>
<path fill="none" stroke="black" stroke-width="4" d="M422.869,-152.582C411.458,-150.879 355.625,-142.541 344.402,-140.865"/>
</g>
<!-- &#45;13&#45;&#45;12 -->
<g id="edge23" class="edge"><title>&#45;13&#45;&#45;12</title>
<path fill="none" stroke="black" stroke-width="4" d="M342.018,-138.746C339.104,-125.977 321.807,-50.1812 318.856,-37.2481"/>
<text text-anchor="middle" x="312.181" y="-3.2" font-family="Times,serif" font-size="16.00">8</text>
</g>
<!-- &#45;13&#45;&#45;6 -->
<g id="edge24" class="edge"><title>&#45;13&#45;&#45;6</title>
<path fill="none" stroke="#008b00" stroke-width="0.4" d="M341.182,-142.215C333.378,-152.457 291.499,-207.419 283.716,-217.635"/>
<text text-anchor="middle" x="287.937" y="-183.125" font-family="Times,serif" font-size="16.00"> γ = 0.1</text>
</g>
</g>
</svg>
