<?xml version="1.0" encoding="UTF-8" standalone="no"?>
<!DOCTYPE svg PUBLIC "-//W3C//DTD SVG 1.1//EN"
 "http://www.w3.org/Graphics/SVG/1.1/DTD/svg11.dtd">
<!-- Generated by graphviz version 2.36.0 (20140111.2315)
 -->
<!-- Title: %1041 Pages: 1 -->
<svg width="550pt" height="576pt"
 viewBox="0.00 0.00 549.64 576.00" xmlns="http://www.w3.org/2000/svg" xmlns:xlink="http://www.w3.org/1999/xlink">
<g id="graph0" class="graph" transform="scale(0.986301 0.986301) rotate(0) translate(4 580)">
<title>%1041</title>
<polygon fill="white" stroke="none" points="-4,4 -4,-580 553.278,-580 553.278,4 -4,4"/>
<!-- 1 -->
<g id="node1" class="node"><title>1</title>
<ellipse fill="black" stroke="black" cx="272.804" cy="-570" rx="1.8" ry="1.8"/>
</g>
<!-- 2 -->
<g id="node6" class="node"><title>2</title>
<ellipse fill="black" stroke="black" cx="240.804" cy="-451" rx="1.8" ry="1.8"/>
</g>
<!-- 1&#45;&#45;2 -->
<g id="edge1" class="edge"><title>1&#45;&#45;2</title>
<path fill="none" stroke="black" stroke-width="4" d="M272.445,-567.686C269.149,-555.635 244.224,-464.503 241.121,-453.158"/>
</g>
<!-- 3 -->
<g id="node7" class="node"><title>3</title>
<ellipse fill="black" stroke="black" cx="305.804" cy="-451" rx="1.8" ry="1.8"/>
</g>
<!-- 1&#45;&#45;3 -->
<g id="edge2" class="edge"><title>1&#45;&#45;3</title>
<path fill="none" stroke="black" stroke-width="4" d="M273.175,-567.686C276.574,-555.635 302.278,-464.503 305.478,-453.158"/>
</g>
<!-- 4 -->
<g id="node2" class="node"><title>4</title>
<ellipse fill="none" stroke="black" cx="47.8041" cy="-50" rx="15.9005" ry="16.0303"/>
<text text-anchor="middle" x="47.8041" y="-45.8" font-family="Times,serif" font-size="14.00">4</text>
</g>
<!-- 6 -->
<g id="node3" class="node"><title>6</title>
<ellipse fill="none" stroke="black" cx="501.804" cy="-50" rx="15.9005" ry="16.0303"/>
<text text-anchor="middle" x="501.804" y="-45.8" font-family="Times,serif" font-size="14.00">6</text>
</g>
<!-- 8 -->
<g id="node4" class="node"><title>8</title>
<ellipse fill="none" stroke="black" cx="198.804" cy="-50" rx="15.9005" ry="16.0303"/>
<text text-anchor="middle" x="198.804" y="-45.8" font-family="Times,serif" font-size="14.00">8</text>
</g>
<!-- 9 -->
<g id="node5" class="node"><title>9</title>
<ellipse fill="none" stroke="black" cx="350.804" cy="-50" rx="15.9005" ry="16.0303"/>
<text text-anchor="middle" x="350.804" y="-45.8" font-family="Times,serif" font-size="14.00">9</text>
</g>
<!-- 2&#45;&#45;4 -->
<g id="edge3" class="edge"><title>2&#45;&#45;4</title>
<path fill="none" stroke="black" stroke-width="4" d="M240.25,-448.855C230.235,-428.149 87.2932,-132.638 54.4826,-64.8069"/>
</g>
<!-- 5 -->
<g id="node8" class="node"><title>5</title>
<ellipse fill="black" stroke="black" cx="272.804" cy="-333" rx="1.8" ry="1.8"/>
</g>
<!-- 2&#45;&#45;5 -->
<g id="edge4" class="edge"><title>2&#45;&#45;5</title>
<path fill="none" stroke="blue" stroke-width="3.6" d="M241.163,-448.697C244.459,-436.75 269.385,-346.396 272.487,-335.148"/>
<text text-anchor="middle" x="275.037" y="-435.688" font-family="Times,serif" font-size="14.00"> γ = 0.9</text>
</g>
<!-- 3&#45;&#45;6 -->
<g id="edge6" class="edge"><title>3&#45;&#45;6</title>
<path fill="none" stroke="black" stroke-width="4" d="M306.366,-448.855C316.538,-428.149 461.701,-132.638 495.022,-64.8069"/>
</g>
<!-- 3&#45;&#45;5 -->
<g id="edge5" class="edge"><title>3&#45;&#45;5</title>
<path fill="none" stroke="red" stroke-width="0.4" d="M305.434,-448.697C302.035,-436.75 276.33,-346.396 273.131,-335.148"/>
</g>
<!-- 7 -->
<g id="node9" class="node"><title>7</title>
<ellipse fill="black" stroke="black" cx="272.804" cy="-214" rx="1.8" ry="1.8"/>
</g>
<!-- 5&#45;&#45;7 -->
<g id="edge7" class="edge"><title>5&#45;&#45;7</title>
<path fill="none" stroke="black" stroke-width="4" d="M272.804,-330.686C272.804,-318.635 272.804,-227.503 272.804,-216.158"/>
</g>
<!-- 7&#45;&#45;8 -->
<g id="edge8" class="edge"><title>7&#45;&#45;8</title>
<path fill="none" stroke="black" stroke-width="4" d="M272.332,-211.965C267.236,-200.809 222.307,-102.452 205.294,-65.2079"/>
</g>
<!-- 7&#45;&#45;9 -->
<g id="edge9" class="edge"><title>7&#45;&#45;9</title>
<path fill="none" stroke="black" stroke-width="4" d="M273.302,-211.965C278.687,-200.782 326.26,-101.976 344.093,-64.9391"/>
</g>
</g>
</svg>
