<?xml version="1.0" encoding="UTF-8" standalone="no"?>
<!DOCTYPE svg PUBLIC "-//W3C//DTD SVG 1.1//EN"
 "http://www.w3.org/Graphics/SVG/1.1/DTD/svg11.dtd">
<!-- Generated by graphviz version 2.36.0 (20140111.2315)
 -->
<!-- Title: Phylogeny Pages: 1 -->
<svg width="432pt" height="404pt"
 viewBox="0.00 0.00 432.00 403.90" xmlns="http://www.w3.org/2000/svg" xmlns:xlink="http://www.w3.org/1999/xlink">
<g id="graph0" class="graph" transform="scale(0.4471 0.4471) rotate(0) translate(4 899.379)">
<title>Phylogeny</title>
<polygon fill="white" stroke="none" points="-4,4 -4,-899.379 962.227,-899.379 962.227,4 -4,4"/>
<!-- &#45;1 -->
<g id="node1" class="node"><title>&#45;1</title>
<ellipse fill="black" stroke="black" cx="697.556" cy="-780.465" rx="1.8" ry="1.8"/>
</g>
<!-- 1 -->
<g id="node2" class="node"><title>1</title>
<ellipse fill="black" stroke="black" cx="684.269" cy="-859.682" rx="1.8" ry="1.8"/>
</g>
<!-- &#45;1&#45;&#45;1 -->
<g id="edge1" class="edge"><title>&#45;1&#45;&#45;1</title>
<path fill="none" stroke="black" stroke-width="4" d="M697.228,-782.423C695.39,-793.383 686.395,-847.012 684.586,-857.793"/>
<text text-anchor="middle" x="679.624" y="-882.579" font-family="Times,serif" font-size="16.00">Xbirchmanni_GARC</text>
</g>
<!-- 2 -->
<g id="node3" class="node"><title>2</title>
<ellipse fill="black" stroke="black" cx="769.152" cy="-803.098" rx="1.8" ry="1.8"/>
</g>
<!-- &#45;1&#45;&#45;2 -->
<g id="edge2" class="edge"><title>&#45;1&#45;&#45;2</title>
<path fill="none" stroke="black" stroke-width="4" d="M699.326,-781.024C709.145,-784.129 756.861,-799.213 767.181,-802.475"/>
<text text-anchor="middle" x="795.786" y="-806.718" font-family="Times,serif" font-size="16.00">Xmalinche_CHIC2</text>
</g>
<!-- &#45;2 -->
<g id="node26" class="node"><title>&#45;2</title>
<ellipse fill="black" stroke="black" cx="643.27" cy="-720.521" rx="1.8" ry="1.8"/>
</g>
<!-- &#45;1&#45;&#45;&#45;2 -->
<g id="edge3" class="edge"><title>&#45;1&#45;&#45;&#45;2</title>
<path fill="none" stroke="black" stroke-width="4" d="M696.214,-778.983C688.769,-770.762 652.589,-730.812 644.764,-722.171"/>
</g>
<!-- 3 -->
<g id="node4" class="node"><title>3</title>
<ellipse fill="black" stroke="black" cx="608.804" cy="-792.623" rx="1.8" ry="1.8"/>
</g>
<!-- 4 -->
<g id="node5" class="node"><title>4</title>
<ellipse fill="black" stroke="black" cx="455.891" cy="-762.662" rx="1.8" ry="1.8"/>
</g>
<!-- 5 -->
<g id="node6" class="node"><title>5</title>
<ellipse fill="black" stroke="black" cx="511.937" cy="-799.511" rx="1.8" ry="1.8"/>
</g>
<!-- 6 -->
<g id="node7" class="node"><title>6</title>
<ellipse fill="black" stroke="black" cx="406.635" cy="-373.251" rx="1.8" ry="1.8"/>
</g>
<!-- 7 -->
<g id="node8" class="node"><title>7</title>
<ellipse fill="black" stroke="black" cx="79.7236" cy="-292.734" rx="1.8" ry="1.8"/>
</g>
<!-- 8 -->
<g id="node9" class="node"><title>8</title>
<ellipse fill="black" stroke="black" cx="157.636" cy="-261.852" rx="1.8" ry="1.8"/>
</g>
<!-- 9 -->
<g id="node10" class="node"><title>9</title>
<ellipse fill="black" stroke="black" cx="67.5572" cy="-444.73" rx="1.8" ry="1.8"/>
</g>
<!-- 10 -->
<g id="node11" class="node"><title>10</title>
<ellipse fill="black" stroke="black" cx="137.094" cy="-552.86" rx="1.8" ry="1.8"/>
</g>
<!-- 11 -->
<g id="node12" class="node"><title>11</title>
<ellipse fill="black" stroke="black" cx="249.971" cy="-423.003" rx="1.8" ry="1.8"/>
</g>
<!-- 12 -->
<g id="node13" class="node"><title>12</title>
<ellipse fill="black" stroke="black" cx="299.355" cy="-598.455" rx="1.8" ry="1.8"/>
</g>
<!-- 13 -->
<g id="node14" class="node"><title>13</title>
<ellipse fill="black" stroke="black" cx="459.675" cy="-615.525" rx="1.8" ry="1.8"/>
</g>
<!-- 15 -->
<g id="node15" class="node"><title>15</title>
<ellipse fill="black" stroke="black" cx="504.868" cy="-334.318" rx="1.8" ry="1.8"/>
</g>
<!-- 16 -->
<g id="node16" class="node"><title>16</title>
<ellipse fill="black" stroke="black" cx="619.789" cy="-37.4136" rx="1.8" ry="1.8"/>
</g>
<!-- 17 -->
<g id="node17" class="node"><title>17</title>
<ellipse fill="black" stroke="black" cx="720.904" cy="-31.2279" rx="1.8" ry="1.8"/>
</g>
<!-- 18 -->
<g id="node18" class="node"><title>18</title>
<ellipse fill="black" stroke="black" cx="791.802" cy="-141.049" rx="1.8" ry="1.8"/>
</g>
<!-- 19 -->
<g id="node19" class="node"><title>19</title>
<ellipse fill="black" stroke="black" cx="780.206" cy="-248.996" rx="1.8" ry="1.8"/>
</g>
<!-- 20 -->
<g id="node20" class="node"><title>20</title>
<ellipse fill="black" stroke="black" cx="570.987" cy="-167.488" rx="1.8" ry="1.8"/>
</g>
<!-- 21 -->
<g id="node21" class="node"><title>21</title>
<ellipse fill="black" stroke="black" cx="512.263" cy="-195.33" rx="1.8" ry="1.8"/>
</g>
<!-- 22 -->
<g id="node22" class="node"><title>22</title>
<ellipse fill="black" stroke="black" cx="882.82" cy="-560.358" rx="1.8" ry="1.8"/>
</g>
<!-- 23 -->
<g id="node23" class="node"><title>23</title>
<ellipse fill="black" stroke="black" cx="840.553" cy="-620.631" rx="1.8" ry="1.8"/>
</g>
<!-- 24 -->
<g id="node24" class="node"><title>24</title>
<ellipse fill="black" stroke="black" cx="895.904" cy="-472.715" rx="1.8" ry="1.8"/>
</g>
<!-- 25 -->
<g id="node25" class="node"><title>25</title>
<ellipse fill="black" stroke="black" cx="871.039" cy="-405.864" rx="1.8" ry="1.8"/>
</g>
<!-- &#45;2&#45;&#45;3 -->
<g id="edge4" class="edge"><title>&#45;2&#45;&#45;3</title>
<path fill="none" stroke="black" stroke-width="4" d="M642.418,-722.304C637.649,-732.279 614.317,-781.091 609.626,-790.903"/>
<text text-anchor="middle" x="596.688" y="-813.17" font-family="Times,serif" font-size="16.00">Xcortezi</text>
</g>
<!-- &#45;3 -->
<g id="node27" class="node"><title>&#45;3</title>
<ellipse fill="black" stroke="black" cx="593.059" cy="-654.968" rx="1.8" ry="1.8"/>
</g>
<!-- &#45;2&#45;&#45;&#45;3 -->
<g id="edge5" class="edge"><title>&#45;2&#45;&#45;&#45;3</title>
<path fill="none" stroke="black" stroke-width="4" d="M642.028,-718.901C635.142,-709.91 601.679,-666.222 594.441,-656.772"/>
</g>
<!-- &#45;4 -->
<g id="node28" class="node"><title>&#45;4</title>
<ellipse fill="black" stroke="black" cx="529.562" cy="-718.86" rx="1.8" ry="1.8"/>
</g>
<!-- &#45;3&#45;&#45;&#45;4 -->
<g id="edge6" class="edge"><title>&#45;3&#45;&#45;&#45;4</title>
<path fill="none" stroke="black" stroke-width="4" d="M591.489,-656.547C582.628,-665.464 538.968,-709.396 530.859,-717.555"/>
</g>
<!-- &#45;5 -->
<g id="node29" class="node"><title>&#45;5</title>
<ellipse fill="black" stroke="black" cx="590.852" cy="-564.36" rx="1.8" ry="1.8"/>
</g>
<!-- &#45;3&#45;&#45;&#45;5 -->
<g id="edge9" class="edge"><title>&#45;3&#45;&#45;&#45;5</title>
<path fill="none" stroke="black" stroke-width="4" d="M593.013,-653.075C592.726,-641.283 591.184,-578.003 590.898,-566.242"/>
</g>
<!-- &#45;4&#45;&#45;4 -->
<g id="edge7" class="edge"><title>&#45;4&#45;&#45;4</title>
<path fill="none" stroke="black" stroke-width="4" d="M527.741,-719.943C517.549,-726.003 467.674,-755.656 457.649,-761.617"/>
<text text-anchor="middle" x="431.862" y="-772.149" font-family="Times,serif" font-size="16.00">Xmontezumae</text>
</g>
<!-- &#45;4&#45;&#45;5 -->
<g id="edge8" class="edge"><title>&#45;4&#45;&#45;5</title>
<path fill="none" stroke="black" stroke-width="4" d="M529.126,-720.854C526.688,-732.012 514.756,-786.612 512.358,-797.587"/>
<text text-anchor="middle" x="505.953" y="-822.095" font-family="Times,serif" font-size="16.00">Xnezahuacoyotl</text>
</g>
<!-- &#45;6 -->
<g id="node30" class="node"><title>&#45;6</title>
<ellipse fill="black" stroke="black" cx="650.451" cy="-489.831" rx="1.8" ry="1.8"/>
</g>
<!-- &#45;5&#45;&#45;&#45;6 -->
<g id="edge10" class="edge"><title>&#45;5&#45;&#45;&#45;6</title>
<path fill="none" stroke="black" stroke-width="4" d="M592.097,-562.803C599.853,-553.104 641.477,-501.053 649.213,-491.379"/>
</g>
<!-- 14 -->
<g id="node40" class="node"><title>14</title>
<ellipse fill="black" stroke="black" cx="501.793" cy="-553.967" rx="1.8" ry="1.8"/>
</g>
<!-- &#45;5&#45;&#45;14 -->
<g id="edge48" class="edge"><title>&#45;5&#45;&#45;14</title>
<path fill="none" stroke="#008b00" stroke-width="0.292" d="M588.992,-564.142C577.402,-562.79 515.203,-555.532 503.643,-554.183"/>
<text text-anchor="middle" x="513.806" y="-562.363" font-family="Times,serif" font-size="16.00"> γ = 0.073</text>
</g>
<!-- &#45;7 -->
<g id="node31" class="node"><title>&#45;7</title>
<ellipse fill="black" stroke="black" cx="624.71" cy="-401.622" rx="1.8" ry="1.8"/>
</g>
<!-- &#45;6&#45;&#45;&#45;7 -->
<g id="edge11" class="edge"><title>&#45;6&#45;&#45;&#45;7</title>
<path fill="none" stroke="black" stroke-width="4" d="M649.913,-487.989C646.563,-476.509 628.586,-414.904 625.244,-403.454"/>
</g>
<!-- &#45;22 -->
<g id="node46" class="node"><title>&#45;22</title>
<ellipse fill="black" stroke="black" cx="738.134" cy="-499.643" rx="1.8" ry="1.8"/>
</g>
<!-- &#45;6&#45;&#45;&#45;22 -->
<g id="edge41" class="edge"><title>&#45;6&#45;&#45;&#45;22</title>
<path fill="none" stroke="black" stroke-width="4" d="M652.282,-490.036C663.693,-491.313 724.931,-498.165 736.313,-499.439"/>
</g>
<!-- &#45;8 -->
<g id="node32" class="node"><title>&#45;8</title>
<ellipse fill="black" stroke="black" cx="540.65" cy="-401.274" rx="1.8" ry="1.8"/>
</g>
<!-- &#45;7&#45;&#45;&#45;8 -->
<g id="edge12" class="edge"><title>&#45;7&#45;&#45;&#45;8</title>
<path fill="none" stroke="black" stroke-width="4" d="M622.632,-401.613C611.002,-401.565 554.094,-401.33 542.655,-401.283"/>
</g>
<!-- &#45;17 -->
<g id="node41" class="node"><title>&#45;17</title>
<ellipse fill="black" stroke="black" cx="642.926" cy="-311.502" rx="1.8" ry="1.8"/>
</g>
<!-- &#45;7&#45;&#45;&#45;17 -->
<g id="edge30" class="edge"><title>&#45;7&#45;&#45;&#45;17</title>
<path fill="none" stroke="black" stroke-width="4" d="M625.09,-399.74C627.461,-388.011 640.183,-325.072 642.547,-313.374"/>
</g>
<!-- &#45;8&#45;&#45;15 -->
<g id="edge29" class="edge"><title>&#45;8&#45;&#45;15</title>
<path fill="none" stroke="black" stroke-width="4" d="M539.765,-399.619C534.858,-390.436 511.011,-345.812 505.853,-336.161"/>
<text text-anchor="middle" x="491.714" y="-304.902" font-family="Times,serif" font-size="16.00">Xmaculatus</text>
</g>
<!-- &#45;9 -->
<g id="node33" class="node"><title>&#45;9</title>
<ellipse fill="black" stroke="black" cx="461.09" cy="-433.201" rx="1.8" ry="1.8"/>
</g>
<!-- &#45;8&#45;&#45;&#45;9 -->
<g id="edge13" class="edge"><title>&#45;8&#45;&#45;&#45;9</title>
<path fill="none" stroke="black" stroke-width="4" d="M538.683,-402.064C527.676,-406.481 473.815,-428.095 462.988,-432.44"/>
</g>
<!-- &#45;9&#45;&#45;6 -->
<g id="edge14" class="edge"><title>&#45;9&#45;&#45;6</title>
<path fill="none" stroke="black" stroke-width="4" d="M459.744,-431.719C452.275,-423.497 415.983,-383.543 408.134,-374.901"/>
<text text-anchor="middle" x="387.963" y="-347.894" font-family="Times,serif" font-size="16.00">Xandersi</text>
</g>
<!-- &#45;10 -->
<g id="node34" class="node"><title>&#45;10</title>
<ellipse fill="black" stroke="black" cx="426.918" cy="-508.32" rx="1.8" ry="1.8"/>
</g>
<!-- &#45;9&#45;&#45;&#45;10 -->
<g id="edge15" class="edge"><title>&#45;9&#45;&#45;&#45;10</title>
<path fill="none" stroke="black" stroke-width="4" d="M460.245,-435.058C455.517,-445.451 432.383,-496.306 427.733,-506.528"/>
</g>
<!-- &#45;11 -->
<g id="node35" class="node"><title>&#45;11</title>
<ellipse fill="black" stroke="black" cx="338.321" cy="-524.932" rx="1.8" ry="1.8"/>
</g>
<!-- &#45;10&#45;&#45;&#45;11 -->
<g id="edge16" class="edge"><title>&#45;10&#45;&#45;&#45;11</title>
<path fill="none" stroke="black" stroke-width="4" d="M425.067,-508.667C413.537,-510.829 351.662,-522.431 340.162,-524.587"/>
</g>
<!-- &#45;10&#45;&#45;14 -->
<g id="edge27" class="edge"><title>&#45;10&#45;&#45;14</title>
<path fill="none" stroke="#008b00" stroke-width="3.708" d="M428.481,-509.274C438.226,-515.214 490.518,-547.094 500.238,-553.019"/>
</g>
<!-- &#45;11&#45;&#45;12 -->
<g id="edge26" class="edge"><title>&#45;11&#45;&#45;12</title>
<path fill="none" stroke="black" stroke-width="4" d="M337.358,-526.75C331.967,-536.922 305.588,-586.696 300.285,-596.701"/>
<text text-anchor="middle" x="286.236" y="-618.408" font-family="Times,serif" font-size="16.00">Xmilleri</text>
</g>
<!-- &#45;12 -->
<g id="node36" class="node"><title>&#45;12</title>
<ellipse fill="black" stroke="black" cx="259.915" cy="-495.364" rx="1.8" ry="1.8"/>
</g>
<!-- &#45;11&#45;&#45;&#45;12 -->
<g id="edge17" class="edge"><title>&#45;11&#45;&#45;&#45;12</title>
<path fill="none" stroke="black" stroke-width="4" d="M336.383,-524.201C325.536,-520.111 272.455,-500.093 261.785,-496.07"/>
</g>
<!-- &#45;12&#45;&#45;11 -->
<g id="edge25" class="edge"><title>&#45;12&#45;&#45;11</title>
<path fill="none" stroke="black" stroke-width="4" d="M259.669,-493.575C258.305,-483.651 251.678,-435.426 250.245,-424.995"/>
<text text-anchor="middle" x="246.161" y="-390.475" font-family="Times,serif" font-size="16.00">Xevelynae</text>
</g>
<!-- &#45;13 -->
<g id="node37" class="node"><title>&#45;13</title>
<ellipse fill="black" stroke="black" cx="179.045" cy="-486.438" rx="1.8" ry="1.8"/>
</g>
<!-- &#45;12&#45;&#45;&#45;13 -->
<g id="edge18" class="edge"><title>&#45;12&#45;&#45;&#45;13</title>
<path fill="none" stroke="black" stroke-width="4" d="M257.916,-495.144C246.728,-493.909 191.98,-487.866 180.974,-486.651"/>
</g>
<!-- &#45;13&#45;&#45;10 -->
<g id="edge24" class="edge"><title>&#45;13&#45;&#45;10</title>
<path fill="none" stroke="black" stroke-width="4" d="M178.008,-488.08C172.255,-497.19 144.296,-541.457 138.249,-551.032"/>
<text text-anchor="middle" x="122.229" y="-571.596" font-family="Times,serif" font-size="16.00">Xvariatus</text>
</g>
<!-- &#45;14 -->
<g id="node38" class="node"><title>&#45;14</title>
<ellipse fill="black" stroke="black" cx="135.587" cy="-416.19" rx="1.8" ry="1.8"/>
</g>
<!-- &#45;13&#45;&#45;&#45;14 -->
<g id="edge19" class="edge"><title>&#45;13&#45;&#45;&#45;14</title>
<path fill="none" stroke="black" stroke-width="4" d="M177.971,-484.702C172.011,-475.067 143.048,-428.25 136.783,-418.124"/>
</g>
<!-- &#45;14&#45;&#45;9 -->
<g id="edge23" class="edge"><title>&#45;14&#45;&#45;9</title>
<path fill="none" stroke="black" stroke-width="4" d="M133.905,-416.896C124.575,-420.81 79.2362,-439.83 69.4299,-443.944"/>
<text text-anchor="middle" x="41.7656" y="-450.749" font-family="Times,serif" font-size="16.00">Xcouchianus</text>
</g>
<!-- &#45;15 -->
<g id="node39" class="node"><title>&#45;15</title>
<ellipse fill="black" stroke="black" cx="132.245" cy="-336.964" rx="1.8" ry="1.8"/>
</g>
<!-- &#45;14&#45;&#45;&#45;15 -->
<g id="edge20" class="edge"><title>&#45;14&#45;&#45;&#45;15</title>
<path fill="none" stroke="black" stroke-width="4" d="M135.504,-414.232C135.042,-403.271 132.779,-349.636 132.324,-338.854"/>
</g>
<!-- &#45;15&#45;&#45;7 -->
<g id="edge21" class="edge"><title>&#45;15&#45;&#45;7</title>
<path fill="none" stroke="black" stroke-width="4" d="M130.497,-335.492C122.381,-328.657 88.4474,-300.081 81.1216,-293.912"/>
<text text-anchor="middle" x="58.1745" y="-269.787" font-family="Times,serif" font-size="16.00">Xgordoni</text>
</g>
<!-- &#45;15&#45;&#45;8 -->
<g id="edge22" class="edge"><title>&#45;15&#45;&#45;8</title>
<path fill="none" stroke="black" stroke-width="4" d="M132.872,-335.107C136.385,-324.715 153.574,-273.866 157.03,-263.644"/>
<text text-anchor="middle" x="166.637" y="-230.424" font-family="Times,serif" font-size="16.00">Xmeyeri</text>
</g>
<!-- 14&#45;&#45;13 -->
<g id="edge28" class="edge"><title>14&#45;&#45;13</title>
<path fill="none" stroke="black" stroke-width="4" d="M500.752,-555.489C494.975,-563.931 466.906,-604.957 460.834,-613.83"/>
<text text-anchor="middle" x="443.894" y="-633.789" font-family="Times,serif" font-size="16.00">Xxiphidium</text>
</g>
<!-- &#45;18 -->
<g id="node42" class="node"><title>&#45;18</title>
<ellipse fill="black" stroke="black" cx="701.253" cy="-248.774" rx="1.8" ry="1.8"/>
</g>
<!-- &#45;17&#45;&#45;&#45;18 -->
<g id="edge31" class="edge"><title>&#45;17&#45;&#45;&#45;18</title>
<path fill="none" stroke="black" stroke-width="4" d="M644.368,-309.951C652.367,-301.348 691.24,-259.543 699.648,-250.501"/>
</g>
<!-- &#45;21 -->
<g id="node45" class="node"><title>&#45;21</title>
<ellipse fill="black" stroke="black" cx="585.155" cy="-245.284" rx="1.8" ry="1.8"/>
</g>
<!-- &#45;17&#45;&#45;&#45;21 -->
<g id="edge38" class="edge"><title>&#45;17&#45;&#45;&#45;21</title>
<path fill="none" stroke="black" stroke-width="4" d="M641.498,-309.865C633.575,-300.783 595.073,-256.652 586.746,-247.107"/>
</g>
<!-- &#45;18&#45;&#45;19 -->
<g id="edge37" class="edge"><title>&#45;18&#45;&#45;19</title>
<path fill="none" stroke="black" stroke-width="4" d="M703.205,-248.78C714.128,-248.81 767.578,-248.961 778.322,-248.991"/>
<text text-anchor="middle" x="808.322" y="-244.275" font-family="Times,serif" font-size="16.00">Xsignum</text>
</g>
<!-- &#45;19 -->
<g id="node43" class="node"><title>&#45;19</title>
<ellipse fill="black" stroke="black" cx="714.595" cy="-164.827" rx="1.8" ry="1.8"/>
</g>
<!-- &#45;18&#45;&#45;&#45;19 -->
<g id="edge32" class="edge"><title>&#45;18&#45;&#45;&#45;19</title>
<path fill="none" stroke="black" stroke-width="4" d="M701.583,-246.699C703.429,-235.085 712.461,-178.253 714.277,-166.829"/>
</g>
<!-- &#45;19&#45;&#45;18 -->
<g id="edge36" class="edge"><title>&#45;19&#45;&#45;18</title>
<path fill="none" stroke="black" stroke-width="4" d="M716.504,-164.239C727.185,-160.949 779.454,-144.852 789.96,-141.616"/>
<text text-anchor="middle" x="818.631" y="-127.986" font-family="Times,serif" font-size="16.00">Xhellerii</text>
</g>
<!-- &#45;20 -->
<g id="node44" class="node"><title>&#45;20</title>
<ellipse fill="black" stroke="black" cx="680.993" cy="-90.0061" rx="1.8" ry="1.8"/>
</g>
<!-- &#45;19&#45;&#45;&#45;20 -->
<g id="edge33" class="edge"><title>&#45;19&#45;&#45;&#45;20</title>
<path fill="none" stroke="black" stroke-width="4" d="M713.764,-162.977C709.115,-152.626 686.367,-101.973 681.794,-91.791"/>
</g>
<!-- &#45;20&#45;&#45;16 -->
<g id="edge34" class="edge"><title>&#45;20&#45;&#45;16</title>
<path fill="none" stroke="black" stroke-width="4" d="M679.48,-88.7061C671.086,-81.4931 630.296,-46.4424 621.473,-38.8613"/>
<text text-anchor="middle" x="598.72" y="-14.5093" font-family="Times,serif" font-size="16.00">Xalvarezi</text>
</g>
<!-- &#45;20&#45;&#45;17 -->
<g id="edge35" class="edge"><title>&#45;20&#45;&#45;17</title>
<path fill="none" stroke="black" stroke-width="4" d="M682.144,-88.3104C687.972,-79.7272 714.164,-41.1543 719.824,-32.8191"/>
<text text-anchor="middle" x="736.676" y="-3.2" font-family="Times,serif" font-size="16.00">Xmayae</text>
</g>
<!-- &#45;21&#45;&#45;20 -->
<g id="edge39" class="edge"><title>&#45;21&#45;&#45;20</title>
<path fill="none" stroke="black" stroke-width="4" d="M584.805,-243.361C582.845,-232.598 573.253,-179.931 571.325,-169.344"/>
<text text-anchor="middle" x="565.949" y="-135.029" font-family="Times,serif" font-size="16.00">Xclemenciae_F2</text>
</g>
<!-- &#45;21&#45;&#45;21 -->
<g id="edge40" class="edge"><title>&#45;21&#45;&#45;21</title>
<path fill="none" stroke="black" stroke-width="4" d="M583.633,-244.241C574.147,-237.74 523.239,-202.852 513.777,-196.367"/>
<text text-anchor="middle" x="489.03" y="-174.608" font-family="Times,serif" font-size="16.00">Xmonticolus</text>
</g>
<!-- &#45;23 -->
<g id="node47" class="node"><title>&#45;23</title>
<ellipse fill="black" stroke="black" cx="798.322" cy="-555.354" rx="1.8" ry="1.8"/>
</g>
<!-- &#45;22&#45;&#45;&#45;23 -->
<g id="edge42" class="edge"><title>&#45;22&#45;&#45;&#45;23</title>
<path fill="none" stroke="black" stroke-width="4" d="M739.622,-501.02C747.877,-508.661 787.989,-545.79 796.665,-553.821"/>
</g>
<!-- &#45;24 -->
<g id="node48" class="node"><title>&#45;24</title>
<ellipse fill="black" stroke="black" cx="812.247" cy="-459.906" rx="1.8" ry="1.8"/>
</g>
<!-- &#45;22&#45;&#45;&#45;24 -->
<g id="edge45" class="edge"><title>&#45;22&#45;&#45;&#45;24</title>
<path fill="none" stroke="black" stroke-width="4" d="M739.966,-498.66C750.22,-493.163 800.393,-466.261 810.479,-460.854"/>
</g>
<!-- &#45;23&#45;&#45;22 -->
<g id="edge43" class="edge"><title>&#45;23&#45;&#45;22</title>
<path fill="none" stroke="black" stroke-width="4" d="M800.411,-555.478C812.101,-556.17 869.305,-559.558 880.804,-560.239"/>
<text text-anchor="middle" x="910.752" y="-557.212" font-family="Times,serif" font-size="16.00">Xcontinens</text>
</g>
<!-- &#45;23&#45;&#45;23 -->
<g id="edge44" class="edge"><title>&#45;23&#45;&#45;23</title>
<path fill="none" stroke="black" stroke-width="4" d="M799.366,-556.968C805.158,-565.92 833.303,-609.425 839.391,-618.834"/>
<text text-anchor="middle" x="855.686" y="-639.223" font-family="Times,serif" font-size="16.00">Xpygmaeus</text>
</g>
<!-- &#45;24&#45;&#45;24 -->
<g id="edge46" class="edge"><title>&#45;24&#45;&#45;24</title>
<path fill="none" stroke="black" stroke-width="4" d="M814.315,-460.223C825.889,-461.995 882.524,-470.667 893.908,-472.41"/>
<text text-anchor="middle" x="923.562" y="-472.15" font-family="Times,serif" font-size="16.00">Xnigrensis</text>
</g>
<!-- &#45;24&#45;&#45;25 -->
<g id="edge47" class="edge"><title>&#45;24&#45;&#45;25</title>
<path fill="none" stroke="black" stroke-width="4" d="M813.7,-458.57C821.764,-451.158 860.946,-415.142 869.421,-407.352"/>
<text text-anchor="middle" x="891.508" y="-382.25" font-family="Times,serif" font-size="16.00">Xmultilineatus</text>
</g>
</g>
</svg>
