<?xml version="1.0" encoding="UTF-8" standalone="no"?>
<!DOCTYPE svg PUBLIC "-//W3C//DTD SVG 1.1//EN"
 "http://www.w3.org/Graphics/SVG/1.1/DTD/svg11.dtd">
<!-- Generated by graphviz version 2.36.0 (20140111.2315)
 -->
<!-- Title: Phylogeny Pages: 1 -->
<svg width="432pt" height="406pt"
 viewBox="0.00 0.00 432.00 405.67" xmlns="http://www.w3.org/2000/svg" xmlns:xlink="http://www.w3.org/1999/xlink">
<g id="graph0" class="graph" transform="scale(0.301352 0.301352) rotate(0) translate(4 1342.18)">
<title>Phylogeny</title>
<polygon fill="white" stroke="none" points="-4,4 -4,-1342.18 1429.54,-1342.18 1429.54,4 -4,4"/>
<!-- &#45;1 -->
<g id="node1" class="node"><title>&#45;1</title>
<ellipse fill="black" stroke="black" cx="123.317" cy="-1334.18" rx="1.8" ry="1.8"/>
</g>
<!-- 1 -->
<g id="node2" class="node"><title>1</title>
<ellipse fill="black" stroke="black" cx="49.3171" cy="-83.1766" rx="1.8" ry="1.8"/>
</g>
<!-- &#45;1&#45;&#45;1 -->
<g id="edge1" class="edge"><title>&#45;1&#45;&#45;1</title>
<path fill="none" stroke="black" stroke-width="4" d="M123.197,-1332.15C119.967,-1277.53 52.5882,-138.476 49.4316,-85.1127"/>
<text text-anchor="middle" x="57.4951" y="-6.57865" font-family="Times,serif" font-size="30.00">Xgordoni</text>
</g>
<!-- 2 -->
<g id="node3" class="node"><title>2</title>
<ellipse fill="black" stroke="black" cx="123.317" cy="-83.1766" rx="1.8" ry="1.8"/>
</g>
<!-- &#45;1&#45;&#45;2 -->
<g id="edge2" class="edge"><title>&#45;1&#45;&#45;2</title>
<path fill="none" stroke="black" stroke-width="4" d="M123.317,-1332.15C123.317,-1277.53 123.317,-138.476 123.317,-85.1127"/>
<text text-anchor="middle" x="135.472" y="-7.17612" font-family="Times,serif" font-size="30.00">Xmeyeri</text>
</g>
<!-- &#45;2 -->
<g id="node26" class="node"><title>&#45;2</title>
<ellipse fill="black" stroke="black" cx="197.317" cy="-1249.18" rx="1.8" ry="1.8"/>
</g>
<!-- &#45;1&#45;&#45;&#45;2 -->
<g id="edge3" class="edge"><title>&#45;1&#45;&#45;&#45;2</title>
<path fill="none" stroke="black" stroke-width="4" d="M124.148,-1332.24C131.77,-1323.7 189.41,-1259.05 196.585,-1251"/>
</g>
<!-- 3 -->
<g id="node4" class="node"><title>3</title>
<ellipse fill="black" stroke="black" cx="197.317" cy="-83.1766" rx="1.8" ry="1.8"/>
</g>
<!-- 4 -->
<g id="node5" class="node"><title>4</title>
<ellipse fill="black" stroke="black" cx="271.317" cy="-83.1766" rx="1.8" ry="1.8"/>
</g>
<!-- 5 -->
<g id="node6" class="node"><title>5</title>
<ellipse fill="black" stroke="black" cx="345.317" cy="-83.1766" rx="1.8" ry="1.8"/>
</g>
<!-- 6 -->
<g id="node7" class="node"><title>6</title>
<ellipse fill="black" stroke="black" cx="493.317" cy="-83.1766" rx="1.8" ry="1.8"/>
</g>
<!-- 7 -->
<g id="node8" class="node"><title>7</title>
<ellipse fill="black" stroke="black" cx="567.317" cy="-83.1766" rx="1.8" ry="1.8"/>
</g>
<!-- 8 -->
<g id="node9" class="node"><title>8</title>
<ellipse fill="black" stroke="black" cx="620.317" cy="-83.1766" rx="1.8" ry="1.8"/>
</g>
<!-- 9 -->
<g id="node10" class="node"><title>9</title>
<ellipse fill="black" stroke="black" cx="663.317" cy="-83.1766" rx="1.8" ry="1.8"/>
</g>
<!-- 10 -->
<g id="node11" class="node"><title>10</title>
<ellipse fill="black" stroke="black" cx="789.317" cy="-83.1766" rx="1.8" ry="1.8"/>
</g>
<!-- 11 -->
<g id="node12" class="node"><title>11</title>
<ellipse fill="black" stroke="black" cx="832.317" cy="-83.1766" rx="1.8" ry="1.8"/>
</g>
<!-- 12 -->
<g id="node13" class="node"><title>12</title>
<ellipse fill="black" stroke="black" cx="875.317" cy="-83.1766" rx="1.8" ry="1.8"/>
</g>
<!-- 13 -->
<g id="node14" class="node"><title>13</title>
<ellipse fill="black" stroke="black" cx="715.317" cy="-83.1766" rx="1.8" ry="1.8"/>
</g>
<!-- 14 -->
<g id="node15" class="node"><title>14</title>
<ellipse fill="black" stroke="black" cx="961.317" cy="-83.1766" rx="1.8" ry="1.8"/>
</g>
<!-- 15 -->
<g id="node16" class="node"><title>15</title>
<ellipse fill="black" stroke="black" cx="1004.32" cy="-83.1766" rx="1.8" ry="1.8"/>
</g>
<!-- 16 -->
<g id="node17" class="node"><title>16</title>
<ellipse fill="black" stroke="black" cx="918.317" cy="-83.1766" rx="1.8" ry="1.8"/>
</g>
<!-- 17 -->
<g id="node18" class="node"><title>17</title>
<ellipse fill="black" stroke="black" cx="1047.32" cy="-83.1766" rx="1.8" ry="1.8"/>
</g>
<!-- 18 -->
<g id="node19" class="node"><title>18</title>
<ellipse fill="black" stroke="black" cx="1090.32" cy="-83.1766" rx="1.8" ry="1.8"/>
</g>
<!-- 19 -->
<g id="node20" class="node"><title>19</title>
<ellipse fill="black" stroke="black" cx="1133.32" cy="-83.1766" rx="1.8" ry="1.8"/>
</g>
<!-- 20 -->
<g id="node21" class="node"><title>20</title>
<ellipse fill="black" stroke="black" cx="1176.32" cy="-83.1766" rx="1.8" ry="1.8"/>
</g>
<!-- 21 -->
<g id="node22" class="node"><title>21</title>
<ellipse fill="black" stroke="black" cx="1219.32" cy="-83.1766" rx="1.8" ry="1.8"/>
</g>
<!-- 22 -->
<g id="node23" class="node"><title>22</title>
<ellipse fill="black" stroke="black" cx="1262.32" cy="-83.1766" rx="1.8" ry="1.8"/>
</g>
<!-- 24 -->
<g id="node24" class="node"><title>24</title>
<ellipse fill="black" stroke="black" cx="419.317" cy="-83.1766" rx="1.8" ry="1.8"/>
</g>
<!-- 25 -->
<g id="node25" class="node"><title>25</title>
<ellipse fill="black" stroke="black" cx="1305.32" cy="-83.1766" rx="1.8" ry="1.8"/>
</g>
<!-- &#45;2&#45;&#45;3 -->
<g id="edge4" class="edge"><title>&#45;2&#45;&#45;3</title>
<path fill="none" stroke="black" stroke-width="4" d="M197.317,-1247.29C197.317,-1196.38 197.317,-134.719 197.317,-84.9811"/>
<text text-anchor="middle" x="209.472" y="-7.04458" font-family="Times,serif" font-size="30.00">Xcouchianus</text>
</g>
<!-- &#45;3 -->
<g id="node27" class="node"><title>&#45;3</title>
<ellipse fill="black" stroke="black" cx="271.317" cy="-1163.18" rx="1.8" ry="1.8"/>
</g>
<!-- &#45;2&#45;&#45;&#45;3 -->
<g id="edge5" class="edge"><title>&#45;2&#45;&#45;&#45;3</title>
<path fill="none" stroke="black" stroke-width="4" d="M198.148,-1247.23C205.77,-1238.58 263.41,-1173.15 270.585,-1165.01"/>
</g>
<!-- &#45;3&#45;&#45;4 -->
<g id="edge6" class="edge"><title>&#45;3&#45;&#45;4</title>
<path fill="none" stroke="black" stroke-width="4" d="M271.317,-1161.12C271.317,-1110.35 271.317,-134.643 271.317,-85.1279"/>
<text text-anchor="middle" x="283.472" y="-7.19136" font-family="Times,serif" font-size="30.00">Xvariatus</text>
</g>
<!-- &#45;4 -->
<g id="node28" class="node"><title>&#45;4</title>
<ellipse fill="black" stroke="black" cx="345.317" cy="-1078.18" rx="1.8" ry="1.8"/>
</g>
<!-- &#45;3&#45;&#45;&#45;4 -->
<g id="edge7" class="edge"><title>&#45;3&#45;&#45;&#45;4</title>
<path fill="none" stroke="black" stroke-width="4" d="M272.148,-1161.24C279.77,-1152.7 337.41,-1088.05 344.585,-1080"/>
</g>
<!-- &#45;4&#45;&#45;5 -->
<g id="edge8" class="edge"><title>&#45;4&#45;&#45;5</title>
<path fill="none" stroke="black" stroke-width="4" d="M345.317,-1076.28C345.317,-1029.6 345.317,-134.192 345.317,-85.2589"/>
<text text-anchor="middle" x="357.472" y="-7.32231" font-family="Times,serif" font-size="30.00">Xevelynae</text>
</g>
<!-- &#45;5 -->
<g id="node29" class="node"><title>&#45;5</title>
<ellipse fill="black" stroke="black" cx="456.317" cy="-993.177" rx="1.8" ry="1.8"/>
</g>
<!-- &#45;4&#45;&#45;&#45;5 -->
<g id="edge9" class="edge"><title>&#45;4&#45;&#45;&#45;5</title>
<path fill="none" stroke="black" stroke-width="4" d="M346.564,-1076.24C357.996,-1067.7 444.456,-1003.05 455.218,-994.998"/>
</g>
<!-- &#45;6 -->
<g id="node30" class="node"><title>&#45;6</title>
<ellipse fill="black" stroke="black" cx="456.317" cy="-908.177" rx="1.8" ry="1.8"/>
</g>
<!-- &#45;5&#45;&#45;&#45;6 -->
<g id="edge10" class="edge"><title>&#45;5&#45;&#45;&#45;6</title>
<path fill="none" stroke="black" stroke-width="4" d="M456.317,-991.244C456.317,-982.696 456.317,-918.046 456.317,-909.998"/>
</g>
<!-- &#45;24 -->
<g id="node48" class="node"><title>&#45;24</title>
<ellipse fill="black" stroke="black" cx="919.317" cy="-652.177" rx="1.8" ry="1.8"/>
</g>
<!-- &#45;5&#45;&#45;&#45;24 -->
<g id="edge46" class="edge"><title>&#45;5&#45;&#45;&#45;24</title>
<path fill="none" stroke="black" stroke-width="4" d="M457.994,-991.942C487.234,-970.406 889.506,-674.132 917.755,-653.327"/>
</g>
<!-- &#45;6&#45;&#45;24 -->
<g id="edge45" class="edge"><title>&#45;6&#45;&#45;24</title>
<path fill="none" stroke="black" stroke-width="4" d="M456.236,-906.36C454.381,-865.01 421.473,-131.237 419.418,-85.4169"/>
<text text-anchor="middle" x="428.472" y="-7.00495" font-family="Times,serif" font-size="30.00">Xmilleri</text>
</g>
<!-- &#45;7 -->
<g id="node31" class="node"><title>&#45;7</title>
<ellipse fill="black" stroke="black" cx="493.317" cy="-822.177" rx="1.8" ry="1.8"/>
</g>
<!-- &#45;6&#45;&#45;&#45;7 -->
<g id="edge11" class="edge"><title>&#45;6&#45;&#45;&#45;7</title>
<path fill="none" stroke="black" stroke-width="4" d="M456.733,-906.233C460.544,-897.581 489.363,-832.153 492.951,-824.008"/>
</g>
<!-- &#45;7&#45;&#45;6 -->
<g id="edge12" class="edge"><title>&#45;7&#45;&#45;6</title>
<path fill="none" stroke="black" stroke-width="4" d="M493.317,-820.057C493.317,-778.065 493.317,-125.888 493.317,-85.1674"/>
<text text-anchor="middle" x="505.472" y="-7.23088" font-family="Times,serif" font-size="30.00">Xandersi</text>
</g>
<!-- &#45;8 -->
<g id="node32" class="node"><title>&#45;8</title>
<ellipse fill="black" stroke="black" cx="567.317" cy="-737.177" rx="1.8" ry="1.8"/>
</g>
<!-- &#45;7&#45;&#45;&#45;8 -->
<g id="edge13" class="edge"><title>&#45;7&#45;&#45;&#45;8</title>
<path fill="none" stroke="black" stroke-width="4" d="M494.148,-820.244C501.77,-811.696 559.41,-747.046 566.585,-738.998"/>
</g>
<!-- &#45;8&#45;&#45;7 -->
<g id="edge14" class="edge"><title>&#45;8&#45;&#45;7</title>
<path fill="none" stroke="black" stroke-width="4" d="M567.317,-735.3C567.317,-698.214 567.317,-123.3 567.317,-85.163"/>
<text text-anchor="middle" x="579.472" y="-7.22644" font-family="Times,serif" font-size="30.00">Xmaculatus</text>
</g>
<!-- &#45;9 -->
<g id="node33" class="node"><title>&#45;9</title>
<ellipse fill="black" stroke="black" cx="660.317" cy="-652.177" rx="1.8" ry="1.8"/>
</g>
<!-- &#45;8&#45;&#45;&#45;9 -->
<g id="edge15" class="edge"><title>&#45;8&#45;&#45;&#45;9</title>
<path fill="none" stroke="black" stroke-width="4" d="M568.362,-735.244C577.94,-726.696 650.379,-662.046 659.397,-653.998"/>
</g>
<!-- &#45;10 -->
<g id="node34" class="node"><title>&#45;10</title>
<ellipse fill="black" stroke="black" cx="660.317" cy="-424.177" rx="1.8" ry="1.8"/>
</g>
<!-- &#45;9&#45;&#45;&#45;10 -->
<g id="edge16" class="edge"><title>&#45;9&#45;&#45;&#45;10</title>
<path fill="none" stroke="black" stroke-width="4" d="M660.317,-650.206C660.317,-629.314 660.317,-448.936 660.317,-426.47"/>
</g>
<!-- 23 -->
<g id="node39" class="node"><title>23</title>
<ellipse fill="black" stroke="black" cx="919.317" cy="-509.177" rx="1.8" ry="1.8"/>
</g>
<!-- &#45;9&#45;&#45;23 -->
<g id="edge27" class="edge"><title>&#45;9&#45;&#45;23</title>
<path fill="none" stroke="#008b00" stroke-width="3.336" d="M661.472,-650.548C679.426,-640.773 900.969,-520.165 918.25,-510.758"/>
</g>
<!-- &#45;11 -->
<g id="node35" class="node"><title>&#45;11</title>
<ellipse fill="black" stroke="black" cx="641.317" cy="-168.177" rx="1.8" ry="1.8"/>
</g>
<!-- &#45;10&#45;&#45;&#45;11 -->
<g id="edge17" class="edge"><title>&#45;10&#45;&#45;&#45;11</title>
<path fill="none" stroke="black" stroke-width="4" d="M660.175,-422.263C658.531,-400.118 643.144,-192.785 641.465,-170.174"/>
</g>
<!-- &#45;12 -->
<g id="node36" class="node"><title>&#45;12</title>
<ellipse fill="black" stroke="black" cx="715.317" cy="-339.177" rx="1.8" ry="1.8"/>
</g>
<!-- &#45;10&#45;&#45;&#45;12 -->
<g id="edge20" class="edge"><title>&#45;10&#45;&#45;&#45;12</title>
<path fill="none" stroke="black" stroke-width="4" d="M660.935,-422.244C666.6,-413.696 709.44,-349.046 714.773,-340.998"/>
</g>
<!-- &#45;11&#45;&#45;8 -->
<g id="edge18" class="edge"><title>&#45;11&#45;&#45;8</title>
<path fill="none" stroke="black" stroke-width="4" d="M641.081,-166.244C638.918,-157.696 622.561,-93.0459 620.525,-84.9981"/>
<text text-anchor="middle" x="615.4" y="-6.18592" font-family="Times,serif" font-size="30.00">Xclemenciae_F2</text>
</g>
<!-- &#45;11&#45;&#45;9 -->
<g id="edge19" class="edge"><title>&#45;11&#45;&#45;9</title>
<path fill="none" stroke="black" stroke-width="4" d="M641.564,-166.244C643.83,-157.696 660.966,-93.0459 663.099,-84.9981"/>
<text text-anchor="middle" x="692.511" y="-12.477" font-family="Times,serif" font-size="30.00">Xmonticolus</text>
</g>
<!-- &#45;12&#45;&#45;13 -->
<g id="edge26" class="edge"><title>&#45;12&#45;&#45;13</title>
<path fill="none" stroke="black" stroke-width="4" d="M715.317,-337.263C715.317,-315.118 715.317,-107.785 715.317,-85.1745"/>
<text text-anchor="middle" x="727.472" y="-7.23795" font-family="Times,serif" font-size="30.00">Xsignum</text>
</g>
<!-- &#45;13 -->
<g id="node37" class="node"><title>&#45;13</title>
<ellipse fill="black" stroke="black" cx="789.317" cy="-254.177" rx="1.8" ry="1.8"/>
</g>
<!-- &#45;12&#45;&#45;&#45;13 -->
<g id="edge21" class="edge"><title>&#45;12&#45;&#45;&#45;13</title>
<path fill="none" stroke="black" stroke-width="4" d="M716.148,-337.244C723.77,-328.696 781.41,-264.046 788.585,-255.998"/>
</g>
<!-- &#45;13&#45;&#45;10 -->
<g id="edge22" class="edge"><title>&#45;13&#45;&#45;10</title>
<path fill="none" stroke="black" stroke-width="4" d="M789.317,-252.256C789.317,-234.79 789.317,-103.661 789.317,-85.3077"/>
<text text-anchor="middle" x="801.472" y="-7.37116" font-family="Times,serif" font-size="30.00">Xhellerii</text>
</g>
<!-- &#45;14 -->
<g id="node38" class="node"><title>&#45;14</title>
<ellipse fill="black" stroke="black" cx="846.317" cy="-168.177" rx="1.8" ry="1.8"/>
</g>
<!-- &#45;13&#45;&#45;&#45;14 -->
<g id="edge23" class="edge"><title>&#45;13&#45;&#45;&#45;14</title>
<path fill="none" stroke="black" stroke-width="4" d="M789.957,-252.233C795.828,-243.581 840.226,-178.153 845.753,-170.008"/>
</g>
<!-- &#45;14&#45;&#45;11 -->
<g id="edge24" class="edge"><title>&#45;14&#45;&#45;11</title>
<path fill="none" stroke="black" stroke-width="4" d="M846.16,-166.244C844.718,-157.696 833.813,-93.0459 832.456,-84.9981"/>
<text text-anchor="middle" x="832.976" y="-6" font-family="Times,serif" font-size="30.00">Xalvarezi</text>
</g>
<!-- &#45;14&#45;&#45;12 -->
<g id="edge25" class="edge"><title>&#45;14&#45;&#45;12</title>
<path fill="none" stroke="black" stroke-width="4" d="M846.643,-166.244C849.63,-157.696 872.218,-93.0459 875.03,-84.9981"/>
<text text-anchor="middle" x="909.243" y="-14.9289" font-family="Times,serif" font-size="30.00">Xmayae</text>
</g>
<!-- &#45;16 -->
<g id="node40" class="node"><title>&#45;16</title>
<ellipse fill="black" stroke="black" cx="1033.32" cy="-424.177" rx="1.8" ry="1.8"/>
</g>
<!-- 23&#45;&#45;&#45;16 -->
<g id="edge28" class="edge"><title>23&#45;&#45;&#45;16</title>
<path fill="none" stroke="black" stroke-width="4" d="M920.597,-507.244C932.339,-498.696 1021.14,-434.046 1032.19,-425.998"/>
</g>
<!-- &#45;17 -->
<g id="node41" class="node"><title>&#45;17</title>
<ellipse fill="black" stroke="black" cx="1033.32" cy="-339.177" rx="1.8" ry="1.8"/>
</g>
<!-- &#45;16&#45;&#45;&#45;17 -->
<g id="edge29" class="edge"><title>&#45;16&#45;&#45;&#45;17</title>
<path fill="none" stroke="black" stroke-width="4" d="M1033.32,-422.244C1033.32,-413.696 1033.32,-349.046 1033.32,-340.998"/>
</g>
<!-- &#45;21 -->
<g id="node45" class="node"><title>&#45;21</title>
<ellipse fill="black" stroke="black" cx="1144.32" cy="-254.177" rx="1.8" ry="1.8"/>
</g>
<!-- &#45;16&#45;&#45;&#45;21 -->
<g id="edge38" class="edge"><title>&#45;16&#45;&#45;&#45;21</title>
<path fill="none" stroke="black" stroke-width="4" d="M1034.56,-422.267C1046,-404.758 1132.46,-272.343 1143.22,-255.859"/>
</g>
<!-- &#45;18 -->
<g id="node42" class="node"><title>&#45;18</title>
<ellipse fill="black" stroke="black" cx="980.317" cy="-254.177" rx="1.8" ry="1.8"/>
</g>
<!-- &#45;17&#45;&#45;&#45;18 -->
<g id="edge30" class="edge"><title>&#45;17&#45;&#45;&#45;18</title>
<path fill="none" stroke="black" stroke-width="4" d="M1032.72,-337.244C1027.26,-328.696 985.981,-264.046 980.842,-255.998"/>
</g>
<!-- &#45;20 -->
<g id="node44" class="node"><title>&#45;20</title>
<ellipse fill="black" stroke="black" cx="1047.32" cy="-168.177" rx="1.8" ry="1.8"/>
</g>
<!-- &#45;17&#45;&#45;&#45;20 -->
<g id="edge35" class="edge"><title>&#45;17&#45;&#45;&#45;20</title>
<path fill="none" stroke="black" stroke-width="4" d="M1033.47,-337.256C1034.9,-319.79 1045.64,-188.661 1047.14,-170.308"/>
</g>
<!-- &#45;18&#45;&#45;16 -->
<g id="edge34" class="edge"><title>&#45;18&#45;&#45;16</title>
<path fill="none" stroke="black" stroke-width="4" d="M979.621,-252.256C973.235,-234.644 924.942,-101.45 918.931,-84.869"/>
<text text-anchor="middle" x="906.86" y="-6.91754" font-family="Times,serif" font-size="30.00">Xcortezi</text>
</g>
<!-- &#45;19 -->
<g id="node43" class="node"><title>&#45;19</title>
<ellipse fill="black" stroke="black" cx="980.317" cy="-168.177" rx="1.8" ry="1.8"/>
</g>
<!-- &#45;18&#45;&#45;&#45;19 -->
<g id="edge31" class="edge"><title>&#45;18&#45;&#45;&#45;19</title>
<path fill="none" stroke="black" stroke-width="4" d="M980.317,-252.233C980.317,-243.581 980.317,-178.153 980.317,-170.008"/>
</g>
<!-- &#45;19&#45;&#45;14 -->
<g id="edge32" class="edge"><title>&#45;19&#45;&#45;14</title>
<path fill="none" stroke="black" stroke-width="4" d="M980.104,-166.244C978.147,-157.696 963.347,-93.0459 961.505,-84.9981"/>
<text text-anchor="middle" x="957.971" y="-6.08733" font-family="Times,serif" font-size="30.00">Xbirchmanni_GARC</text>
</g>
<!-- &#45;19&#45;&#45;15 -->
<g id="edge33" class="edge"><title>&#45;19&#45;&#45;15</title>
<path fill="none" stroke="black" stroke-width="4" d="M980.587,-166.244C983.059,-157.696 1001.75,-93.0459 1004.08,-84.9981"/>
<text text-anchor="middle" x="1034.91" y="-13.151" font-family="Times,serif" font-size="30.00">Xmalinche_CHIC2</text>
</g>
<!-- &#45;20&#45;&#45;17 -->
<g id="edge36" class="edge"><title>&#45;20&#45;&#45;17</title>
<path fill="none" stroke="black" stroke-width="4" d="M1047.32,-166.244C1047.32,-157.696 1047.32,-93.0459 1047.32,-84.9981"/>
<text text-anchor="middle" x="1059.47" y="-7.06152" font-family="Times,serif" font-size="30.00">Xmontezumae</text>
</g>
<!-- &#45;20&#45;&#45;18 -->
<g id="edge37" class="edge"><title>&#45;20&#45;&#45;18</title>
<path fill="none" stroke="black" stroke-width="4" d="M1047.8,-166.244C1052.23,-157.696 1085.72,-93.0459 1089.89,-84.9981"/>
<text text-anchor="middle" x="1132.4" y="-20.3797" font-family="Times,serif" font-size="30.00">Xnezahuacoyotl</text>
</g>
<!-- &#45;22 -->
<g id="node46" class="node"><title>&#45;22</title>
<ellipse fill="black" stroke="black" cx="1144.32" cy="-168.177" rx="1.8" ry="1.8"/>
</g>
<!-- &#45;21&#45;&#45;&#45;22 -->
<g id="edge39" class="edge"><title>&#45;21&#45;&#45;&#45;22</title>
<path fill="none" stroke="black" stroke-width="4" d="M1144.32,-252.233C1144.32,-243.581 1144.32,-178.153 1144.32,-170.008"/>
</g>
<!-- &#45;23 -->
<g id="node47" class="node"><title>&#45;23</title>
<ellipse fill="black" stroke="black" cx="1219.32" cy="-168.177" rx="1.8" ry="1.8"/>
</g>
<!-- &#45;21&#45;&#45;&#45;23 -->
<g id="edge42" class="edge"><title>&#45;21&#45;&#45;&#45;23</title>
<path fill="none" stroke="black" stroke-width="4" d="M1145.16,-252.233C1152.88,-243.581 1211.3,-178.153 1218.57,-170.008"/>
</g>
<!-- &#45;22&#45;&#45;19 -->
<g id="edge40" class="edge"><title>&#45;22&#45;&#45;19</title>
<path fill="none" stroke="black" stroke-width="4" d="M1144.19,-166.244C1143.06,-157.696 1134.49,-93.0459 1133.43,-84.9981"/>
<text text-anchor="middle" x="1136.42" y="-6.06208" font-family="Times,serif" font-size="30.00">Xcontinens</text>
</g>
<!-- &#45;22&#45;&#45;20 -->
<g id="edge41" class="edge"><title>&#45;22&#45;&#45;20</title>
<path fill="none" stroke="black" stroke-width="4" d="M1144.68,-166.244C1147.97,-157.696 1172.9,-93.0459 1176,-84.9981"/>
<text text-anchor="middle" x="1212.14" y="-16.0491" font-family="Times,serif" font-size="30.00">Xpygmaeus</text>
</g>
<!-- &#45;23&#45;&#45;21 -->
<g id="edge43" class="edge"><title>&#45;23&#45;&#45;21</title>
<path fill="none" stroke="black" stroke-width="4" d="M1219.32,-166.244C1219.32,-157.696 1219.32,-93.0459 1219.32,-84.9981"/>
<text text-anchor="middle" x="1231.47" y="-7.06152" font-family="Times,serif" font-size="30.00">Xnigrensis</text>
</g>
<!-- &#45;23&#45;&#45;22 -->
<g id="edge44" class="edge"><title>&#45;23&#45;&#45;22</title>
<path fill="none" stroke="black" stroke-width="4" d="M1219.8,-166.244C1224.23,-157.696 1257.72,-93.0459 1261.89,-84.9981"/>
<text text-anchor="middle" x="1304.4" y="-20.3797" font-family="Times,serif" font-size="30.00">Xmultilineatus</text>
</g>
<!-- &#45;24&#45;&#45;25 -->
<g id="edge47" class="edge"><title>&#45;24&#45;&#45;25</title>
<path fill="none" stroke="black" stroke-width="4" d="M920.424,-650.544C942.358,-618.213 1283.01,-116.062 1304.28,-84.7094"/>
<text text-anchor="middle" x="1353.04" y="-25.4851" font-family="Times,serif" font-size="30.00">Xxiphidium</text>
</g>
<!-- &#45;24&#45;&#45;23 -->
<g id="edge48" class="edge"><title>&#45;24&#45;&#45;23</title>
<path fill="none" stroke="#008b00" stroke-width="0.664" d="M919.317,-650.276C919.317,-638.831 919.317,-521.93 919.317,-510.996"/>
<text text-anchor="middle" x="980.277" y="-572.177" font-family="Times,serif" font-size="30.00"> γ = 0.166</text>
</g>
</g>
</svg>
