<?xml version="1.0" encoding="UTF-8" standalone="no"?>
<!DOCTYPE svg PUBLIC "-//W3C//DTD SVG 1.1//EN"
 "http://www.w3.org/Graphics/SVG/1.1/DTD/svg11.dtd">
<!-- Generated by graphviz version 2.36.0 (20140111.2315)
 -->
<!-- Title: Phylogeny Pages: 1 -->
<svg width="424pt" height="432pt"
 viewBox="0.00 0.00 423.60 432.00" xmlns="http://www.w3.org/2000/svg" xmlns:xlink="http://www.w3.org/1999/xlink">
<g id="graph0" class="graph" transform="scale(0.915114 0.915114) rotate(0) translate(4 468.072)">
<title>Phylogeny</title>
<polygon fill="white" stroke="none" points="-4,4 -4,-468.072 458.89,-468.072 458.89,4 -4,4"/>
<!-- &#45;1 -->
<g id="node1" class="node"><title>&#45;1</title>
<ellipse fill="black" stroke="black" cx="91.2885" cy="-460.072" rx="1.8" ry="1.8"/>
</g>
<!-- 1 -->
<g id="node2" class="node"><title>1</title>
<ellipse fill="black" stroke="black" cx="9.28848" cy="-36.0724" rx="1.8" ry="1.8"/>
</g>
<!-- &#45;1&#45;&#45;1 -->
<g id="edge1" class="edge"><title>&#45;1&#45;&#45;1</title>
<path fill="none" stroke="black" stroke-width="4" d="M90.9229,-458.182C85.2615,-428.909 15.6667,-69.0524 9.69634,-38.1813"/>
<text text-anchor="middle" x="4" y="-3.92708" font-family="Times,serif" font-size="16.00">6</text>
</g>
<!-- &#45;2 -->
<g id="node8" class="node"><title>&#45;2</title>
<ellipse fill="black" stroke="black" cx="191.288" cy="-375.072" rx="1.8" ry="1.8"/>
</g>
<!-- &#45;1&#45;&#45;&#45;2 -->
<g id="edge2" class="edge"><title>&#45;1&#45;&#45;&#45;2</title>
<path fill="none" stroke="black" stroke-width="4" d="M92.4115,-458.14C102.711,-449.592 180.603,-384.942 190.299,-376.894"/>
</g>
<!-- 2 -->
<g id="node3" class="node"><title>2</title>
<ellipse fill="black" stroke="black" cx="95.2885" cy="-36.0724" rx="1.8" ry="1.8"/>
</g>
<!-- 3 -->
<g id="node4" class="node"><title>3</title>
<ellipse fill="black" stroke="black" cx="181.288" cy="-36.0724" rx="1.8" ry="1.8"/>
</g>
<!-- 5 -->
<g id="node5" class="node"><title>5</title>
<ellipse fill="black" stroke="black" cx="437.288" cy="-36.0724" rx="1.8" ry="1.8"/>
</g>
<!-- 6 -->
<g id="node6" class="node"><title>6</title>
<ellipse fill="black" stroke="black" cx="266.288" cy="-36.0724" rx="1.8" ry="1.8"/>
</g>
<!-- 7 -->
<g id="node7" class="node"><title>7</title>
<ellipse fill="black" stroke="black" cx="352.288" cy="-36.0724" rx="1.8" ry="1.8"/>
</g>
<!-- &#45;3 -->
<g id="node9" class="node"><title>&#45;3</title>
<ellipse fill="black" stroke="black" cx="191.288" cy="-290.072" rx="1.8" ry="1.8"/>
</g>
<!-- &#45;2&#45;&#45;&#45;3 -->
<g id="edge3" class="edge"><title>&#45;2&#45;&#45;&#45;3</title>
<path fill="none" stroke="black" stroke-width="4" d="M191.288,-373.14C191.288,-364.592 191.288,-299.942 191.288,-291.894"/>
</g>
<!-- &#45;5 -->
<g id="node12" class="node"><title>&#45;5</title>
<ellipse fill="black" stroke="black" cx="296.288" cy="-290.072" rx="1.8" ry="1.8"/>
</g>
<!-- &#45;2&#45;&#45;&#45;5 -->
<g id="edge8" class="edge"><title>&#45;2&#45;&#45;&#45;5</title>
<path fill="none" stroke="black" stroke-width="4" d="M192.468,-373.14C203.282,-364.592 285.068,-299.942 295.249,-291.894"/>
</g>
<!-- &#45;4 -->
<g id="node10" class="node"><title>&#45;4</title>
<ellipse fill="black" stroke="black" cx="174.288" cy="-121.072" rx="1.8" ry="1.8"/>
</g>
<!-- &#45;3&#45;&#45;&#45;4 -->
<g id="edge4" class="edge"><title>&#45;3&#45;&#45;&#45;4</title>
<path fill="none" stroke="black" stroke-width="4" d="M191.098,-288.174C189.361,-270.913 176.325,-141.318 174.5,-123.179"/>
</g>
<!-- 4 -->
<g id="node11" class="node"><title>4</title>
<ellipse fill="black" stroke="black" cx="296.288" cy="-206.072" rx="1.8" ry="1.8"/>
</g>
<!-- &#45;3&#45;&#45;4 -->
<g id="edge7" class="edge"><title>&#45;3&#45;&#45;4</title>
<path fill="none" stroke="#008b00" stroke-width="0.4" d="M192.468,-288.151C203.282,-279.706 285.068,-215.835 295.249,-207.884"/>
</g>
<!-- &#45;4&#45;&#45;2 -->
<g id="edge5" class="edge"><title>&#45;4&#45;&#45;2</title>
<path fill="none" stroke="black" stroke-width="4" d="M173.401,-119.14C165.265,-110.592 103.73,-45.9417 96.0704,-37.8939"/>
<text text-anchor="middle" x="75.3873" y="-11.3635" font-family="Times,serif" font-size="16.00">2</text>
</g>
<!-- &#45;4&#45;&#45;3 -->
<g id="edge6" class="edge"><title>&#45;4&#45;&#45;3</title>
<path fill="none" stroke="black" stroke-width="4" d="M174.367,-119.14C175.088,-110.592 180.54,-45.9417 181.219,-37.8939"/>
<text text-anchor="middle" x="183.74" y="-3.2" font-family="Times,serif" font-size="16.00">1</text>
</g>
<!-- &#45;7 -->
<g id="node13" class="node"><title>&#45;7</title>
<ellipse fill="black" stroke="black" cx="296.288" cy="-121.072" rx="1.8" ry="1.8"/>
</g>
<!-- 4&#45;&#45;&#45;7 -->
<g id="edge11" class="edge"><title>4&#45;&#45;&#45;7</title>
<path fill="none" stroke="black" stroke-width="4" d="M296.288,-204.14C296.288,-195.592 296.288,-130.942 296.288,-122.894"/>
</g>
<!-- &#45;5&#45;&#45;5 -->
<g id="edge9" class="edge"><title>&#45;5&#45;&#45;5</title>
<path fill="none" stroke="black" stroke-width="4" d="M297.189,-288.45C308.588,-267.917 424.579,-58.9682 436.33,-37.7999"/>
<text text-anchor="middle" x="450.89" y="-6.7703" font-family="Times,serif" font-size="16.00">5</text>
</g>
<!-- &#45;5&#45;&#45;4 -->
<g id="edge10" class="edge"><title>&#45;5&#45;&#45;4</title>
<path fill="none" stroke="#008b00" stroke-width="3.6" d="M296.288,-288.151C296.288,-279.706 296.288,-215.835 296.288,-207.884"/>
</g>
<!-- &#45;7&#45;&#45;6 -->
<g id="edge12" class="edge"><title>&#45;7&#45;&#45;6</title>
<path fill="none" stroke="black" stroke-width="4" d="M295.952,-119.14C292.862,-110.592 269.494,-45.9417 266.585,-37.8939"/>
<text text-anchor="middle" x="256.388" y="-4.88027" font-family="Times,serif" font-size="16.00">3</text>
</g>
<!-- &#45;7&#45;&#45;7 -->
<g id="edge13" class="edge"><title>&#45;7&#45;&#45;7</title>
<path fill="none" stroke="black" stroke-width="4" d="M296.917,-119.14C302.685,-110.592 346.304,-45.9417 351.734,-37.8939"/>
<text text-anchor="middle" x="368.513" y="-8.22494" font-family="Times,serif" font-size="16.00">4</text>
</g>
</g>
</svg>
