<?xml version="1.0" encoding="UTF-8" standalone="no"?>
<!DOCTYPE svg PUBLIC "-//W3C//DTD SVG 1.1//EN"
 "http://www.w3.org/Graphics/SVG/1.1/DTD/svg11.dtd">
<!-- Generated by graphviz version 2.36.0 (20140111.2315)
 -->
<!-- Title: %223 Pages: 1 -->
<svg width="419pt" height="432pt"
 viewBox="0.00 0.00 419.38 432.00" xmlns="http://www.w3.org/2000/svg" xmlns:xlink="http://www.w3.org/1999/xlink">
<g id="graph0" class="graph" transform="scale(0.95313 0.95313) rotate(0) translate(4 449.244)">
<title>%223</title>
<polygon fill="white" stroke="none" points="-4,4 -4,-449.244 436,-449.244 436,4 -4,4"/>
<!-- 1 -->
<g id="node1" class="node"><title>1</title>
<ellipse fill="black" stroke="black" cx="298.667" cy="-440.244" rx="1.8" ry="1.8"/>
</g>
<!-- 2 -->
<g id="node6" class="node"><title>2</title>
<ellipse fill="black" stroke="black" cx="213.667" cy="-337.244" rx="1.8" ry="1.8"/>
</g>
<!-- 1&#45;&#45;2 -->
<g id="edge1" class="edge"><title>1&#45;&#45;2</title>
<path fill="none" stroke="black" stroke-width="4" d="M297.712,-438.109C288.957,-427.707 222.75,-349.037 214.508,-339.243"/>
</g>
<!-- 3 -->
<g id="node9" class="node"><title>3</title>
<ellipse fill="black" stroke="black" cx="405.667" cy="-234.244" rx="1.8" ry="1.8"/>
</g>
<!-- 1&#45;&#45;3 -->
<g id="edge7" class="edge"><title>1&#45;&#45;3</title>
<path fill="none" stroke="black" stroke-width="4" d="M299.144,-438.334C306.561,-424.192 398.087,-249.695 405.226,-236.084"/>
</g>
<!-- 4 -->
<g id="node2" class="node"><title>4</title>
<ellipse fill="black" stroke="black" cx="15.6667" cy="-23.2437" rx="3.6" ry="3.6"/>
</g>
<!-- 6 -->
<g id="node3" class="node"><title>6</title>
<ellipse fill="black" stroke="black" cx="415.667" cy="-23.2437" rx="3.6" ry="3.6"/>
</g>
<!-- 8 -->
<g id="node4" class="node"><title>8</title>
<ellipse fill="black" stroke="black" cx="149.667" cy="-23.2437" rx="3.6" ry="3.6"/>
</g>
<!-- 9 -->
<g id="node5" class="node"><title>9</title>
<ellipse fill="black" stroke="black" cx="282.667" cy="-23.2437" rx="3.6" ry="3.6"/>
</g>
<!-- 2&#45;&#45;4 -->
<g id="edge2" class="edge"><title>2&#45;&#45;4</title>
<path fill="none" stroke="black" stroke-width="4" d="M213.099,-335.349C202.12,-318.049 35.4696,-55.4483 17.275,-26.778"/>
<text text-anchor="middle" x="6.55849" y="-5.69144" font-family="Times,serif" font-size="14.00">4</text>
</g>
<!-- 5 -->
<g id="node7" class="node"><title>5</title>
<ellipse fill="black" stroke="black" cx="213.667" cy="-234.244" rx="1.8" ry="1.8"/>
</g>
<!-- 2&#45;&#45;5 -->
<g id="edge3" class="edge"><title>2&#45;&#45;5</title>
<path fill="none" stroke="blue" stroke-width="4" d="M213.667,-335.109C213.667,-324.707 213.667,-246.037 213.667,-236.243"/>
<text text-anchor="middle" x="236.167" y="-291.938" font-family="Times,serif" font-size="14.00"> γ = 0.9</text>
</g>
<!-- 7 -->
<g id="node8" class="node"><title>7</title>
<ellipse fill="black" stroke="black" cx="213.667" cy="-131.244" rx="1.8" ry="1.8"/>
</g>
<!-- 5&#45;&#45;7 -->
<g id="edge4" class="edge"><title>5&#45;&#45;7</title>
<path fill="none" stroke="black" stroke-width="4" d="M213.667,-232.109C213.667,-221.707 213.667,-143.037 213.667,-133.243"/>
</g>
<!-- 7&#45;&#45;8 -->
<g id="edge5" class="edge"><title>7&#45;&#45;8</title>
<path fill="none" stroke="black" stroke-width="4" d="M212.948,-129.053C206.631,-118.591 160.585,-42.3268 151.297,-26.9437"/>
<text text-anchor="middle" x="140.959" y="-5.62238" font-family="Times,serif" font-size="14.00">8</text>
</g>
<!-- 7&#45;&#45;9 -->
<g id="edge6" class="edge"><title>7&#45;&#45;9</title>
<path fill="none" stroke="black" stroke-width="4" d="M214.442,-129.053C221.311,-118.5 271.762,-40.9955 281.161,-26.5563"/>
<text text-anchor="middle" x="292.072" y="-5.59462" font-family="Times,serif" font-size="14.00">9</text>
</g>
<!-- 3&#45;&#45;6 -->
<g id="edge8" class="edge"><title>3&#45;&#45;6</title>
<path fill="none" stroke="black" stroke-width="4" d="M405.711,-232.312C406.382,-218.295 414.41,-50.5035 415.536,-26.9771"/>
<text text-anchor="middle" x="416.492" y="-2.8" font-family="Times,serif" font-size="14.00">6</text>
</g>
</g>
</svg>
