<?xml version="1.0" encoding="UTF-8" standalone="no"?>
<!DOCTYPE svg PUBLIC "-//W3C//DTD SVG 1.1//EN"
 "http://www.w3.org/Graphics/SVG/1.1/DTD/svg11.dtd">
<!-- Generated by graphviz version 2.36.0 (20140111.2315)
 -->
<!-- Title: Phylogeny Pages: 1 -->
<svg width="720pt" height="677pt"
 viewBox="0.00 0.00 720.00 677.37" xmlns="http://www.w3.org/2000/svg" xmlns:xlink="http://www.w3.org/1999/xlink">
<g id="graph0" class="graph" transform="scale(0.272353 0.272353) rotate(0) translate(4 2483.09)">
<title>Phylogeny</title>
<polygon fill="white" stroke="none" points="-4,4 -4,-2483.09 2639.63,-2483.09 2639.63,4 -4,4"/>
<!-- &#45;1 -->
<g id="node1" class="node"><title>&#45;1</title>
<ellipse fill="black" stroke="black" cx="6" cy="-2309.47" rx="1.8" ry="1.8"/>
</g>
<!-- 1 -->
<g id="node2" class="node"><title>1</title>
<ellipse fill="black" stroke="black" cx="2404" cy="-2455.47" rx="1.8" ry="1.8"/>
</g>
<!-- &#45;1&#45;&#45;1 -->
<g id="edge1" class="edge"><title>&#45;1&#45;&#45;1</title>
<path fill="none" stroke="black" stroke-width="4" d="M7.96081,-2309.59C83.6067,-2314.19 2323.16,-2450.55 2401.88,-2455.34"/>
<text text-anchor="middle" x="2471.75" y="-2447.89" font-family="Times,serif" font-size="39.00">Xgordoni</text>
</g>
<!-- 2 -->
<g id="node3" class="node"><title>2</title>
<ellipse fill="black" stroke="black" cx="2404" cy="-2309.47" rx="1.8" ry="1.8"/>
</g>
<!-- &#45;1&#45;&#45;2 -->
<g id="edge2" class="edge"><title>&#45;1&#45;&#45;2</title>
<path fill="none" stroke="black" stroke-width="4" d="M7.96081,-2309.47C83.6067,-2309.47 2323.16,-2309.47 2401.88,-2309.47"/>
<text text-anchor="middle" x="2471.88" y="-2297.77" font-family="Times,serif" font-size="39.00">Xmeyeri</text>
</g>
<!-- &#45;2 -->
<g id="node26" class="node"><title>&#45;2</title>
<ellipse fill="black" stroke="black" cx="141" cy="-2163.47" rx="1.8" ry="1.8"/>
</g>
<!-- &#45;1&#45;&#45;&#45;2 -->
<g id="edge3" class="edge"><title>&#45;1&#45;&#45;&#45;2</title>
<path fill="none" stroke="black" stroke-width="4" d="M7.84931,-2308.54C18.6456,-2296.68 128.913,-2175.64 139.227,-2164.32"/>
</g>
<!-- 3 -->
<g id="node4" class="node"><title>3</title>
<ellipse fill="black" stroke="black" cx="2404" cy="-2163.47" rx="1.8" ry="1.8"/>
</g>
<!-- 4 -->
<g id="node5" class="node"><title>4</title>
<ellipse fill="black" stroke="black" cx="2404" cy="-2017.47" rx="1.8" ry="1.8"/>
</g>
<!-- 5 -->
<g id="node6" class="node"><title>5</title>
<ellipse fill="black" stroke="black" cx="2404" cy="-1871.47" rx="1.8" ry="1.8"/>
</g>
<!-- 6 -->
<g id="node7" class="node"><title>6</title>
<ellipse fill="black" stroke="black" cx="2404" cy="-1579.47" rx="1.8" ry="1.8"/>
</g>
<!-- 7 -->
<g id="node8" class="node"><title>7</title>
<ellipse fill="black" stroke="black" cx="2404" cy="-1433.47" rx="1.8" ry="1.8"/>
</g>
<!-- 8 -->
<g id="node9" class="node"><title>8</title>
<ellipse fill="black" stroke="black" cx="2404" cy="-1327.47" rx="1.8" ry="1.8"/>
</g>
<!-- 9 -->
<g id="node10" class="node"><title>9</title>
<ellipse fill="black" stroke="black" cx="2404" cy="-1248.47" rx="1.8" ry="1.8"/>
</g>
<!-- 10 -->
<g id="node11" class="node"><title>10</title>
<ellipse fill="black" stroke="black" cx="2404" cy="-995.468" rx="1.8" ry="1.8"/>
</g>
<!-- 11 -->
<g id="node12" class="node"><title>11</title>
<ellipse fill="black" stroke="black" cx="2404" cy="-916.468" rx="1.8" ry="1.8"/>
</g>
<!-- 12 -->
<g id="node13" class="node"><title>12</title>
<ellipse fill="black" stroke="black" cx="2404" cy="-837.468" rx="1.8" ry="1.8"/>
</g>
<!-- 13 -->
<g id="node14" class="node"><title>13</title>
<ellipse fill="black" stroke="black" cx="2404" cy="-1141.47" rx="1.8" ry="1.8"/>
</g>
<!-- 14 -->
<g id="node15" class="node"><title>14</title>
<ellipse fill="black" stroke="black" cx="2404" cy="-679.468" rx="1.8" ry="1.8"/>
</g>
<!-- 15 -->
<g id="node16" class="node"><title>15</title>
<ellipse fill="black" stroke="black" cx="2404" cy="-600.468" rx="1.8" ry="1.8"/>
</g>
<!-- 16 -->
<g id="node17" class="node"><title>16</title>
<ellipse fill="black" stroke="black" cx="2404" cy="-758.468" rx="1.8" ry="1.8"/>
</g>
<!-- 17 -->
<g id="node18" class="node"><title>17</title>
<ellipse fill="black" stroke="black" cx="2404" cy="-521.468" rx="1.8" ry="1.8"/>
</g>
<!-- 18 -->
<g id="node19" class="node"><title>18</title>
<ellipse fill="black" stroke="black" cx="2404" cy="-442.468" rx="1.8" ry="1.8"/>
</g>
<!-- 19 -->
<g id="node20" class="node"><title>19</title>
<ellipse fill="black" stroke="black" cx="2404" cy="-363.468" rx="1.8" ry="1.8"/>
</g>
<!-- 20 -->
<g id="node21" class="node"><title>20</title>
<ellipse fill="black" stroke="black" cx="2404" cy="-284.468" rx="1.8" ry="1.8"/>
</g>
<!-- 21 -->
<g id="node22" class="node"><title>21</title>
<ellipse fill="black" stroke="black" cx="2404" cy="-205.468" rx="1.8" ry="1.8"/>
</g>
<!-- 22 -->
<g id="node23" class="node"><title>22</title>
<ellipse fill="black" stroke="black" cx="2404" cy="-126.468" rx="1.8" ry="1.8"/>
</g>
<!-- 24 -->
<g id="node24" class="node"><title>24</title>
<ellipse fill="black" stroke="black" cx="2404" cy="-1725.47" rx="1.8" ry="1.8"/>
</g>
<!-- 25 -->
<g id="node25" class="node"><title>25</title>
<ellipse fill="black" stroke="black" cx="2404" cy="-47.4678" rx="1.8" ry="1.8"/>
</g>
<!-- &#45;2&#45;&#45;3 -->
<g id="edge4" class="edge"><title>&#45;2&#45;&#45;3</title>
<path fill="none" stroke="black" stroke-width="4" d="M143.073,-2163.47C218.51,-2163.47 2327.86,-2163.47 2402,-2163.47"/>
<text text-anchor="middle" x="2472" y="-2151.77" font-family="Times,serif" font-size="39.00">Xcouchianus</text>
</g>
<!-- &#45;3 -->
<g id="node27" class="node"><title>&#45;3</title>
<ellipse fill="black" stroke="black" cx="276" cy="-2017.47" rx="1.8" ry="1.8"/>
</g>
<!-- &#45;2&#45;&#45;&#45;3 -->
<g id="edge5" class="edge"><title>&#45;2&#45;&#45;&#45;3</title>
<path fill="none" stroke="black" stroke-width="4" d="M142.849,-2162.54C153.646,-2150.68 263.913,-2029.64 274.227,-2018.32"/>
</g>
<!-- &#45;3&#45;&#45;4 -->
<g id="edge6" class="edge"><title>&#45;3&#45;&#45;4</title>
<path fill="none" stroke="black" stroke-width="4" d="M277.949,-2017.47C348.886,-2017.47 2332.41,-2017.47 2402.12,-2017.47"/>
<text text-anchor="middle" x="2472.12" y="-2005.77" font-family="Times,serif" font-size="39.00">Xvariatus</text>
</g>
<!-- &#45;4 -->
<g id="node28" class="node"><title>&#45;4</title>
<ellipse fill="black" stroke="black" cx="411" cy="-1871.47" rx="1.8" ry="1.8"/>
</g>
<!-- &#45;3&#45;&#45;&#45;4 -->
<g id="edge7" class="edge"><title>&#45;3&#45;&#45;&#45;4</title>
<path fill="none" stroke="black" stroke-width="4" d="M277.849,-2016.54C288.646,-2004.68 398.913,-1883.64 409.227,-1872.32"/>
</g>
<!-- &#45;4&#45;&#45;5 -->
<g id="edge8" class="edge"><title>&#45;4&#45;&#45;5</title>
<path fill="none" stroke="black" stroke-width="4" d="M412.826,-1871.47C479.13,-1871.47 2329.57,-1871.47 2401.83,-1871.47"/>
<text text-anchor="middle" x="2471.83" y="-1859.77" font-family="Times,serif" font-size="39.00">Xevelynae</text>
</g>
<!-- &#45;5 -->
<g id="node29" class="node"><title>&#45;5</title>
<ellipse fill="black" stroke="black" cx="546" cy="-1669.47" rx="1.8" ry="1.8"/>
</g>
<!-- &#45;4&#45;&#45;&#45;5 -->
<g id="edge9" class="edge"><title>&#45;4&#45;&#45;&#45;5</title>
<path fill="none" stroke="black" stroke-width="4" d="M412.593,-1870.57C421.738,-1856.68 533.735,-1686.58 544.215,-1670.66"/>
</g>
<!-- &#45;6 -->
<g id="node30" class="node"><title>&#45;6</title>
<ellipse fill="black" stroke="black" cx="681" cy="-1669.47" rx="1.8" ry="1.8"/>
</g>
<!-- &#45;5&#45;&#45;&#45;6 -->
<g id="edge10" class="edge"><title>&#45;5&#45;&#45;&#45;6</title>
<path fill="none" stroke="black" stroke-width="4" d="M547.849,-1669.47C558.469,-1669.47 665.325,-1669.47 678.64,-1669.47"/>
</g>
<!-- &#45;24 -->
<g id="node48" class="node"><title>&#45;24</title>
<ellipse fill="black" stroke="black" cx="752" cy="-792.468" rx="1.8" ry="1.8"/>
</g>
<!-- &#45;5&#45;&#45;&#45;24 -->
<g id="edge46" class="edge"><title>&#45;5&#45;&#45;&#45;24</title>
<path fill="none" stroke="black" stroke-width="4" d="M546.454,-1667.54C556.82,-1623.4 741.48,-837.255 751.571,-794.296"/>
</g>
<!-- &#45;6&#45;&#45;24 -->
<g id="edge45" class="edge"><title>&#45;6&#45;&#45;24</title>
<path fill="none" stroke="black" stroke-width="4" d="M682.946,-1669.53C746.384,-1671.59 2339.91,-1723.38 2402.13,-1725.41"/>
<text text-anchor="middle" x="2472.09" y="-1715.98" font-family="Times,serif" font-size="39.00">Xmilleri</text>
</g>
<!-- &#45;7 -->
<g id="node31" class="node"><title>&#45;7</title>
<ellipse fill="black" stroke="black" cx="823" cy="-1579.47" rx="1.8" ry="1.8"/>
</g>
<!-- &#45;6&#45;&#45;&#45;7 -->
<g id="edge11" class="edge"><title>&#45;6&#45;&#45;&#45;7</title>
<path fill="none" stroke="black" stroke-width="4" d="M682.894,-1668.89C694.258,-1661.59 810.33,-1586.97 821.187,-1579.99"/>
</g>
<!-- &#45;7&#45;&#45;6 -->
<g id="edge12" class="edge"><title>&#45;7&#45;&#45;6</title>
<path fill="none" stroke="black" stroke-width="4" d="M825.158,-1579.47C888.806,-1579.47 2339.62,-1579.47 2401.93,-1579.47"/>
<text text-anchor="middle" x="2471.93" y="-1567.77" font-family="Times,serif" font-size="39.00">Xandersi</text>
</g>
<!-- &#45;8 -->
<g id="node32" class="node"><title>&#45;8</title>
<ellipse fill="black" stroke="black" cx="958" cy="-1433.47" rx="1.8" ry="1.8"/>
</g>
<!-- &#45;7&#45;&#45;&#45;8 -->
<g id="edge13" class="edge"><title>&#45;7&#45;&#45;&#45;8</title>
<path fill="none" stroke="black" stroke-width="4" d="M824.849,-1578.54C835.646,-1566.68 945.913,-1445.64 956.227,-1434.32"/>
</g>
<!-- &#45;8&#45;&#45;7 -->
<g id="edge14" class="edge"><title>&#45;8&#45;&#45;7</title>
<path fill="none" stroke="black" stroke-width="4" d="M959.974,-1433.47C1018.19,-1433.47 2345.12,-1433.47 2402.11,-1433.47"/>
<text text-anchor="middle" x="2472.11" y="-1421.77" font-family="Times,serif" font-size="39.00">Xmaculatus</text>
</g>
<!-- &#45;9 -->
<g id="node33" class="node"><title>&#45;9</title>
<ellipse fill="black" stroke="black" cx="1093" cy="-1248.47" rx="1.8" ry="1.8"/>
</g>
<!-- &#45;8&#45;&#45;&#45;9 -->
<g id="edge15" class="edge"><title>&#45;8&#45;&#45;&#45;9</title>
<path fill="none" stroke="black" stroke-width="4" d="M959.849,-1432.29C970.646,-1417.27 1080.91,-1263.89 1091.23,-1249.54"/>
</g>
<!-- &#45;10 -->
<g id="node34" class="node"><title>&#45;10</title>
<ellipse fill="black" stroke="black" cx="1864" cy="-1248.47" rx="1.8" ry="1.8"/>
</g>
<!-- &#45;9&#45;&#45;&#45;10 -->
<g id="edge16" class="edge"><title>&#45;9&#45;&#45;&#45;10</title>
<path fill="none" stroke="black" stroke-width="4" d="M1095.21,-1248.47C1139.02,-1248.47 1819.44,-1248.47 1861.92,-1248.47"/>
</g>
<!-- 23 -->
<g id="node39" class="node"><title>23</title>
<ellipse fill="black" stroke="black" cx="1729" cy="-994.468" rx="1.8" ry="1.8"/>
</g>
<!-- &#45;9&#45;&#45;23 -->
<g id="edge27" class="edge"><title>&#45;9&#45;&#45;23</title>
<path fill="none" stroke="#008b00" stroke-width="3.336" d="M1095.03,-1248.06C1122.71,-1236.97 1699.97,-1005.7 1727.02,-994.861"/>
<text text-anchor="middle" x="1411" y="-1160.27" font-family="Times,serif" font-size="39.00"> γ = 0.834</text>
</g>
<!-- &#45;11 -->
<g id="node35" class="node"><title>&#45;11</title>
<ellipse fill="black" stroke="black" cx="2269" cy="-1287.47" rx="1.8" ry="1.8"/>
</g>
<!-- &#45;10&#45;&#45;&#45;11 -->
<g id="edge17" class="edge"><title>&#45;10&#45;&#45;&#45;11</title>
<path fill="none" stroke="black" stroke-width="4" d="M1865.81,-1248.64C1893.77,-1251.33 2237.5,-1284.43 2266.99,-1287.27"/>
</g>
<!-- &#45;12 -->
<g id="node36" class="node"><title>&#45;12</title>
<ellipse fill="black" stroke="black" cx="1999" cy="-1141.47" rx="1.8" ry="1.8"/>
</g>
<!-- &#45;10&#45;&#45;&#45;12 -->
<g id="edge20" class="edge"><title>&#45;10&#45;&#45;&#45;12</title>
<path fill="none" stroke="black" stroke-width="4" d="M1865.85,-1247.78C1876.65,-1239.1 1986.91,-1150.39 1997.23,-1142.09"/>
</g>
<!-- &#45;11&#45;&#45;8 -->
<g id="edge18" class="edge"><title>&#45;11&#45;&#45;8</title>
<path fill="none" stroke="black" stroke-width="4" d="M2270.85,-1287.72C2281.47,-1290.92 2388.32,-1323.05 2401.64,-1327.06"/>
<text text-anchor="middle" x="2468.67" y="-1335.52" font-family="Times,serif" font-size="39.00">Xclemenciae_F2</text>
</g>
<!-- &#45;11&#45;&#45;9 -->
<g id="edge19" class="edge"><title>&#45;11&#45;&#45;9</title>
<path fill="none" stroke="black" stroke-width="4" d="M2270.85,-1287.22C2281.47,-1284.1 2388.32,-1252.77 2401.64,-1248.87"/>
<text text-anchor="middle" x="2468.81" y="-1217.47" font-family="Times,serif" font-size="39.00">Xmonticolus</text>
</g>
<!-- &#45;12&#45;&#45;13 -->
<g id="edge26" class="edge"><title>&#45;12&#45;&#45;13</title>
<path fill="none" stroke="black" stroke-width="4" d="M2000.81,-1141.47C2028.77,-1141.47 2372.5,-1141.47 2401.99,-1141.47"/>
<text text-anchor="middle" x="2471.99" y="-1129.77" font-family="Times,serif" font-size="39.00">Xsignum</text>
</g>
<!-- &#45;13 -->
<g id="node37" class="node"><title>&#45;13</title>
<ellipse fill="black" stroke="black" cx="2134" cy="-995.468" rx="1.8" ry="1.8"/>
</g>
<!-- &#45;12&#45;&#45;&#45;13 -->
<g id="edge21" class="edge"><title>&#45;12&#45;&#45;&#45;13</title>
<path fill="none" stroke="black" stroke-width="4" d="M2000.85,-1140.54C2011.65,-1128.68 2121.91,-1007.64 2132.23,-996.316"/>
</g>
<!-- &#45;13&#45;&#45;10 -->
<g id="edge22" class="edge"><title>&#45;13&#45;&#45;10</title>
<path fill="none" stroke="black" stroke-width="4" d="M2136.02,-995.468C2159.47,-995.468 2379.86,-995.468 2402.18,-995.468"/>
<text text-anchor="middle" x="2472.18" y="-983.768" font-family="Times,serif" font-size="39.00">Xhellerii</text>
</g>
<!-- &#45;14 -->
<g id="node38" class="node"><title>&#45;14</title>
<ellipse fill="black" stroke="black" cx="2269" cy="-884.468" rx="1.8" ry="1.8"/>
</g>
<!-- &#45;13&#45;&#45;&#45;14 -->
<g id="edge23" class="edge"><title>&#45;13&#45;&#45;&#45;14</title>
<path fill="none" stroke="black" stroke-width="4" d="M2135.85,-994.759C2146.65,-985.749 2256.91,-893.721 2267.23,-885.113"/>
</g>
<!-- &#45;14&#45;&#45;11 -->
<g id="edge24" class="edge"><title>&#45;14&#45;&#45;11</title>
<path fill="none" stroke="black" stroke-width="4" d="M2270.85,-884.672C2281.47,-887.227 2388.32,-912.937 2401.64,-916.141"/>
<text text-anchor="middle" x="2469.7" y="-920.815" font-family="Times,serif" font-size="39.00">Xalvarezi</text>
</g>
<!-- &#45;14&#45;&#45;12 -->
<g id="edge25" class="edge"><title>&#45;14&#45;&#45;12</title>
<path fill="none" stroke="black" stroke-width="4" d="M2270.85,-884.168C2281.47,-880.415 2388.32,-842.654 2401.64,-837.948"/>
<text text-anchor="middle" x="2467.64" y="-802.925" font-family="Times,serif" font-size="39.00">Xmayae</text>
</g>
<!-- &#45;16 -->
<g id="node40" class="node"><title>&#45;16</title>
<ellipse fill="black" stroke="black" cx="1864" cy="-565.468" rx="1.8" ry="1.8"/>
</g>
<!-- 23&#45;&#45;&#45;16 -->
<g id="edge28" class="edge"><title>23&#45;&#45;&#45;16</title>
<path fill="none" stroke="black" stroke-width="4" d="M1730.38,-993.237C1737.91,-968.959 1854.37,-593.31 1862.55,-566.927"/>
</g>
<!-- &#45;17 -->
<g id="node41" class="node"><title>&#45;17</title>
<ellipse fill="black" stroke="black" cx="1999" cy="-565.468" rx="1.8" ry="1.8"/>
</g>
<!-- &#45;16&#45;&#45;&#45;17 -->
<g id="edge29" class="edge"><title>&#45;16&#45;&#45;&#45;17</title>
<path fill="none" stroke="black" stroke-width="4" d="M1865.85,-565.468C1876.47,-565.468 1983.32,-565.468 1996.64,-565.468"/>
</g>
<!-- &#45;21 -->
<g id="node45" class="node"><title>&#45;21</title>
<ellipse fill="black" stroke="black" cx="2134" cy="-323.468" rx="1.8" ry="1.8"/>
</g>
<!-- &#45;16&#45;&#45;&#45;21 -->
<g id="edge38" class="edge"><title>&#45;16&#45;&#45;&#45;21</title>
<path fill="none" stroke="black" stroke-width="4" d="M1865.45,-564.166C1885.71,-546.011 2111.31,-343.802 2132.42,-324.885"/>
</g>
<!-- &#45;18 -->
<g id="node42" class="node"><title>&#45;18</title>
<ellipse fill="black" stroke="black" cx="2134" cy="-640.468" rx="1.8" ry="1.8"/>
</g>
<!-- &#45;17&#45;&#45;&#45;18 -->
<g id="edge30" class="edge"><title>&#45;17&#45;&#45;&#45;18</title>
<path fill="none" stroke="black" stroke-width="4" d="M2000.85,-565.947C2011.65,-572.035 2121.91,-634.216 2132.23,-640.032"/>
</g>
<!-- &#45;20 -->
<g id="node44" class="node"><title>&#45;20</title>
<ellipse fill="black" stroke="black" cx="2269" cy="-521.468" rx="1.8" ry="1.8"/>
</g>
<!-- &#45;17&#45;&#45;&#45;20 -->
<g id="edge35" class="edge"><title>&#45;17&#45;&#45;&#45;20</title>
<path fill="none" stroke="black" stroke-width="4" d="M2001.02,-565.139C2024.47,-561.317 2244.86,-525.402 2267.18,-521.765"/>
</g>
<!-- &#45;18&#45;&#45;16 -->
<g id="edge34" class="edge"><title>&#45;18&#45;&#45;16</title>
<path fill="none" stroke="black" stroke-width="4" d="M2135.72,-641.221C2157.55,-650.761 2379.66,-747.831 2402.16,-757.665"/>
<text text-anchor="middle" x="2466.31" y="-773.998" font-family="Times,serif" font-size="39.00">Xcortezi</text>
</g>
<!-- &#45;19 -->
<g id="node43" class="node"><title>&#45;19</title>
<ellipse fill="black" stroke="black" cx="2269" cy="-640.468" rx="1.8" ry="1.8"/>
</g>
<!-- &#45;18&#45;&#45;&#45;19 -->
<g id="edge31" class="edge"><title>&#45;18&#45;&#45;&#45;19</title>
<path fill="none" stroke="black" stroke-width="4" d="M2135.85,-640.468C2146.47,-640.468 2253.32,-640.468 2266.64,-640.468"/>
</g>
<!-- &#45;19&#45;&#45;14 -->
<g id="edge32" class="edge"><title>&#45;19&#45;&#45;14</title>
<path fill="none" stroke="black" stroke-width="4" d="M2270.85,-640.717C2281.47,-643.831 2388.32,-675.165 2401.64,-679.069"/>
<text text-anchor="middle" x="2468.81" y="-687.066" font-family="Times,serif" font-size="39.00">Xbirchmanni_GARC</text>
</g>
<!-- &#45;19&#45;&#45;15 -->
<g id="edge33" class="edge"><title>&#45;19&#45;&#45;15</title>
<path fill="none" stroke="black" stroke-width="4" d="M2270.85,-640.212C2281.47,-637.019 2388.32,-604.881 2401.64,-600.877"/>
<text text-anchor="middle" x="2468.67" y="-569.016" font-family="Times,serif" font-size="39.00">Xmalinche_CHIC2</text>
</g>
<!-- &#45;20&#45;&#45;17 -->
<g id="edge36" class="edge"><title>&#45;20&#45;&#45;17</title>
<path fill="none" stroke="black" stroke-width="4" d="M2270.85,-521.468C2281.47,-521.468 2388.32,-521.468 2401.64,-521.468"/>
<text text-anchor="middle" x="2471.64" y="-509.768" font-family="Times,serif" font-size="39.00">Xmontezumae</text>
</g>
<!-- &#45;20&#45;&#45;18 -->
<g id="edge37" class="edge"><title>&#45;20&#45;&#45;18</title>
<path fill="none" stroke="black" stroke-width="4" d="M2270.85,-520.963C2281.65,-514.55 2391.91,-449.053 2402.23,-442.927"/>
<text text-anchor="middle" x="2462.41" y="-395.479" font-family="Times,serif" font-size="39.00">Xnezahuacoyotl</text>
</g>
<!-- &#45;22 -->
<g id="node46" class="node"><title>&#45;22</title>
<ellipse fill="black" stroke="black" cx="2269" cy="-323.468" rx="1.8" ry="1.8"/>
</g>
<!-- &#45;21&#45;&#45;&#45;22 -->
<g id="edge39" class="edge"><title>&#45;21&#45;&#45;&#45;22</title>
<path fill="none" stroke="black" stroke-width="4" d="M2135.85,-323.468C2146.47,-323.468 2253.32,-323.468 2266.64,-323.468"/>
</g>
<!-- &#45;23 -->
<g id="node47" class="node"><title>&#45;23</title>
<ellipse fill="black" stroke="black" cx="2269" cy="-205.468" rx="1.8" ry="1.8"/>
</g>
<!-- &#45;21&#45;&#45;&#45;23 -->
<g id="edge42" class="edge"><title>&#45;21&#45;&#45;&#45;23</title>
<path fill="none" stroke="black" stroke-width="4" d="M2135.85,-322.714C2146.65,-313.136 2256.91,-215.304 2267.23,-206.153"/>
</g>
<!-- &#45;22&#45;&#45;19 -->
<g id="edge40" class="edge"><title>&#45;22&#45;&#45;19</title>
<path fill="none" stroke="black" stroke-width="4" d="M2270.85,-323.723C2281.47,-326.917 2388.32,-359.054 2401.64,-363.059"/>
<text text-anchor="middle" x="2468.67" y="-371.519" font-family="Times,serif" font-size="39.00">Xcontinens</text>
</g>
<!-- &#45;22&#45;&#45;20 -->
<g id="edge41" class="edge"><title>&#45;22&#45;&#45;20</title>
<path fill="none" stroke="black" stroke-width="4" d="M2270.85,-323.219C2281.47,-320.105 2388.32,-288.771 2401.64,-284.866"/>
<text text-anchor="middle" x="2468.81" y="-253.47" font-family="Times,serif" font-size="39.00">Xpygmaeus</text>
</g>
<!-- &#45;23&#45;&#45;21 -->
<g id="edge43" class="edge"><title>&#45;23&#45;&#45;21</title>
<path fill="none" stroke="black" stroke-width="4" d="M2270.85,-205.468C2281.47,-205.468 2388.32,-205.468 2401.64,-205.468"/>
<text text-anchor="middle" x="2471.64" y="-193.768" font-family="Times,serif" font-size="39.00">Xnigrensis</text>
</g>
<!-- &#45;23&#45;&#45;22 -->
<g id="edge44" class="edge"><title>&#45;23&#45;&#45;22</title>
<path fill="none" stroke="black" stroke-width="4" d="M2270.85,-204.963C2281.65,-198.55 2391.91,-133.053 2402.23,-126.927"/>
<text text-anchor="middle" x="2462.41" y="-79.4786" font-family="Times,serif" font-size="39.00">Xmultilineatus</text>
</g>
<!-- &#45;24&#45;&#45;25 -->
<g id="edge47" class="edge"><title>&#45;24&#45;&#45;25</title>
<path fill="none" stroke="black" stroke-width="4" d="M753.866,-791.626C814.689,-764.197 2342.55,-75.1811 2402.21,-48.2769"/>
<text text-anchor="middle" x="2466.02" y="-7.8" font-family="Times,serif" font-size="39.00">Xxiphidium</text>
</g>
</g>
</svg>
