<?xml version="1.0" encoding="UTF-8" standalone="no"?>
<!DOCTYPE svg PUBLIC "-//W3C//DTD SVG 1.1//EN"
 "http://www.w3.org/Graphics/SVG/1.1/DTD/svg11.dtd">
<!-- Generated by graphviz version 2.36.0 (20140111.2315)
 -->
<!-- Title: %3 Pages: 1 -->
<svg width="420pt" height="432pt"
 viewBox="0.00 0.00 420.00 432.00" xmlns="http://www.w3.org/2000/svg" xmlns:xlink="http://www.w3.org/1999/xlink">
<g id="graph0" class="graph" transform="scale(0.934676 0.934676) rotate(0) translate(4 458.192)">
<title>%3</title>
<polygon fill="white" stroke="none" points="-4,4 -4,-458.192 445.35,-458.192 445.35,4 -4,4"/>
<!-- 1 -->
<g id="node1" class="node"><title>1</title>
<ellipse fill="black" stroke="black" cx="1.39326" cy="-26.1924" rx="1.8" ry="1.8"/>
</g>
<!-- &#45;5 -->
<g id="node7" class="node"><title>&#45;5</title>
<ellipse fill="black" stroke="black" cx="95.3933" cy="-450.192" rx="1.8" ry="1.8"/>
</g>
<!-- 1&#45;&#45;&#45;5 -->
<g id="edge1" class="edge"><title>1&#45;&#45;&#45;5</title>
<path fill="none" stroke="black" stroke-width="4" d="M1.39326,-28.0747C1.39326,-36.7849 1.39326,-108.276 1.39326,-166.192 1.39326,-310.192 1.39326,-310.192 1.39326,-310.192 1.39326,-380.109 84.0104,-441.1 94.3376,-448.451"/>
</g>
<!-- 3 -->
<g id="node2" class="node"><title>3</title>
<ellipse fill="black" stroke="black" cx="91.3933" cy="-26.1924" rx="1.8" ry="1.8"/>
</g>
<!-- 4 -->
<g id="node3" class="node"><title>4</title>
<ellipse fill="black" stroke="black" cx="180.393" cy="-26.1924" rx="1.8" ry="1.8"/>
</g>
<!-- 5 -->
<g id="node4" class="node"><title>5</title>
<ellipse fill="black" stroke="black" cx="270.393" cy="-26.1924" rx="1.8" ry="1.8"/>
</g>
<!-- 7 -->
<g id="node5" class="node"><title>7</title>
<ellipse fill="black" stroke="black" cx="339.393" cy="-26.1924" rx="1.8" ry="1.8"/>
</g>
<!-- 8 -->
<g id="node6" class="node"><title>8</title>
<ellipse fill="black" stroke="black" cx="429.393" cy="-26.1924" rx="1.8" ry="1.8"/>
</g>
<!-- 2 -->
<g id="node8" class="node"><title>2</title>
<ellipse fill="black" stroke="black" cx="95.3933" cy="-238.192" rx="1.8" ry="1.8"/>
</g>
<!-- &#45;5&#45;&#45;2 -->
<g id="edge2" class="edge"><title>&#45;5&#45;&#45;2</title>
<path fill="none" stroke="#008b00" stroke-width="0.4" d="M95.3933,-448.256C95.3933,-433.698 95.3933,-254.069 95.3933,-240.058"/>
</g>
<!-- &#45;4 -->
<g id="node9" class="node"><title>&#45;4</title>
<ellipse fill="black" stroke="black" cx="171.393" cy="-380.192" rx="1.8" ry="1.8"/>
</g>
<!-- &#45;5&#45;&#45;&#45;4 -->
<g id="edge3" class="edge"><title>&#45;5&#45;&#45;&#45;4</title>
<path fill="none" stroke="black" stroke-width="4" d="M96.2468,-448.429C104.075,-441.425 163.272,-388.459 170.641,-381.865"/>
</g>
<!-- 2&#45;&#45;3 -->
<g id="edge6" class="edge"><title>2&#45;&#45;3</title>
<path fill="none" stroke="black" stroke-width="4" d="M95.3754,-236.256C95.0981,-221.698 91.6766,-42.0692 91.4097,-28.0579"/>
<text text-anchor="middle" x="91.0289" y="-3.2615" font-family="Times,serif" font-size="16.00">B</text>
</g>
<!-- &#45;6 -->
<g id="node10" class="node"><title>&#45;6</title>
<ellipse fill="black" stroke="black" cx="171.393" cy="-309.192" rx="1.8" ry="1.8"/>
</g>
<!-- &#45;4&#45;&#45;&#45;6 -->
<g id="edge4" class="edge"><title>&#45;4&#45;&#45;&#45;6</title>
<path fill="none" stroke="black" stroke-width="4" d="M171.393,-378.217C171.393,-370.486 171.393,-319.198 171.393,-311.232"/>
</g>
<!-- &#45;3 -->
<g id="node11" class="node"><title>&#45;3</title>
<ellipse fill="black" stroke="black" cx="270.393" cy="-309.192" rx="1.8" ry="1.8"/>
</g>
<!-- &#45;4&#45;&#45;&#45;3 -->
<g id="edge8" class="edge"><title>&#45;4&#45;&#45;&#45;3</title>
<path fill="none" stroke="black" stroke-width="4" d="M172.505,-378.418C182.702,-371.311 259.814,-317.566 269.413,-310.875"/>
</g>
<!-- &#45;6&#45;&#45;4 -->
<g id="edge7" class="edge"><title>&#45;6&#45;&#45;4</title>
<path fill="none" stroke="black" stroke-width="4" d="M171.419,-307.386C171.928,-291.484 179.809,-45.4291 180.363,-28.148"/>
<text text-anchor="middle" x="181.003" y="-3.35828" font-family="Times,serif" font-size="16.00">C</text>
</g>
<!-- &#45;6&#45;&#45;2 -->
<g id="edge5" class="edge"><title>&#45;6&#45;&#45;2</title>
<path fill="none" stroke="#008b00" stroke-width="3.6" d="M170.54,-307.418C162.712,-300.311 103.515,-246.566 96.1455,-239.875"/>
<text text-anchor="middle" x="109.875" y="-277.93" font-family="Times,serif" font-size="16.00"> γ = 0.9</text>
</g>
<!-- 6 -->
<g id="node12" class="node"><title>6</title>
<ellipse fill="black" stroke="black" cx="270.393" cy="-96.1924" rx="1.8" ry="1.8"/>
</g>
<!-- &#45;3&#45;&#45;6 -->
<g id="edge9" class="edge"><title>&#45;3&#45;&#45;6</title>
<path fill="none" stroke="#008b00" stroke-width="3.6" d="M270.393,-307.252C270.393,-292.625 270.393,-112.14 270.393,-98.062"/>
<text text-anchor="middle" x="247.893" y="-132.233" font-family="Times,serif" font-size="16.00"> γ = 0.9</text>
</g>
<!-- &#45;2 -->
<g id="node13" class="node"><title>&#45;2</title>
<ellipse fill="black" stroke="black" cx="339.393" cy="-238.192" rx="1.8" ry="1.8"/>
</g>
<!-- &#45;3&#45;&#45;&#45;2 -->
<g id="edge11" class="edge"><title>&#45;3&#45;&#45;&#45;2</title>
<path fill="none" stroke="black" stroke-width="4" d="M271.168,-307.418C278.275,-300.311 332.02,-246.566 338.71,-239.875"/>
</g>
<!-- 6&#45;&#45;5 -->
<g id="edge10" class="edge"><title>6&#45;&#45;5</title>
<path fill="none" stroke="black" stroke-width="4" d="M270.393,-94.2311C270.393,-86.6118 270.393,-36.0675 270.393,-28.2165"/>
<text text-anchor="middle" x="270.393" y="-3.41649" font-family="Times,serif" font-size="16.00">D</text>
</g>
<!-- &#45;2&#45;&#45;8 -->
<g id="edge15" class="edge"><title>&#45;2&#45;&#45;8</title>
<path fill="none" stroke="black" stroke-width="4" d="M339.795,-236.256C346.034,-221.698 423.017,-42.0692 429.022,-28.0579"/>
<text text-anchor="middle" x="436.901" y="-4.87497" font-family="Times,serif" font-size="16.00">F</text>
</g>
<!-- &#45;9 -->
<g id="node14" class="node"><title>&#45;9</title>
<ellipse fill="black" stroke="black" cx="339.393" cy="-167.192" rx="1.8" ry="1.8"/>
</g>
<!-- &#45;2&#45;&#45;&#45;9 -->
<g id="edge12" class="edge"><title>&#45;2&#45;&#45;&#45;9</title>
<path fill="none" stroke="black" stroke-width="4" d="M339.393,-236.217C339.393,-228.486 339.393,-177.198 339.393,-169.232"/>
</g>
<!-- &#45;9&#45;&#45;7 -->
<g id="edge14" class="edge"><title>&#45;9&#45;&#45;7</title>
<path fill="none" stroke="black" stroke-width="4" d="M339.393,-165.305C339.393,-154.022 339.393,-38.7792 339.393,-28"/>
<text text-anchor="middle" x="339.393" y="-3.2" font-family="Times,serif" font-size="16.00">E</text>
</g>
<!-- &#45;9&#45;&#45;6 -->
<g id="edge13" class="edge"><title>&#45;9&#45;&#45;6</title>
<path fill="none" stroke="#008b00" stroke-width="0.4" d="M338.618,-165.418C331.512,-158.311 277.767,-104.566 271.076,-97.8753"/>
</g>
</g>
</svg>
