<?xml version="1.0" encoding="UTF-8" standalone="no"?>
<!DOCTYPE svg PUBLIC "-//W3C//DTD SVG 1.1//EN"
 "http://www.w3.org/Graphics/SVG/1.1/DTD/svg11.dtd">
<!-- Generated by graphviz version 2.36.0 (20140111.2315)
 -->
<!-- Title: %25 Pages: 1 -->
<svg width="571pt" height="360pt"
 viewBox="0.00 0.00 571.30 360.00" xmlns="http://www.w3.org/2000/svg" xmlns:xlink="http://www.w3.org/1999/xlink">
<g id="graph0" class="graph" transform="scale(0.978261 0.978261) rotate(0) translate(4 364)">
<title>%25</title>
<polygon fill="white" stroke="none" points="-4,4 -4,-364 580,-364 580,4 -4,4"/>
<!-- 1 -->
<g id="node1" class="node"><title>1</title>
<ellipse fill="black" stroke="black" cx="311.07" cy="-356" rx="1.8" ry="1.8"/>
</g>
<!-- 2 -->
<g id="node6" class="node"><title>2</title>
<ellipse fill="black" stroke="black" cx="237.07" cy="-282" rx="1.8" ry="1.8"/>
</g>
<!-- 1&#45;&#45;2 -->
<g id="edge1" class="edge"><title>1&#45;&#45;2</title>
<path fill="none" stroke="black" stroke-width="4" d="M310.239,-354.191C302.617,-346.776 244.978,-290.694 237.803,-283.713"/>
</g>
<!-- 3 -->
<g id="node7" class="node"><title>3</title>
<ellipse fill="black" stroke="black" cx="498.07" cy="-208" rx="1.8" ry="1.8"/>
</g>
<!-- 1&#45;&#45;3 -->
<g id="edge2" class="edge"><title>1&#45;&#45;3</title>
<path fill="none" stroke="black" stroke-width="4" d="M311.904,-354.349C324.762,-344.31 482.232,-221.366 496.966,-209.862"/>
</g>
<!-- 4 -->
<g id="node2" class="node"><title>4</title>
<ellipse fill="none" stroke="black" cx="50.0703" cy="-32" rx="15.9005" ry="16.0303"/>
<text text-anchor="middle" x="50.0703" y="-27.8" font-family="Times,serif" font-size="14.00">4</text>
</g>
<!-- 6 -->
<g id="node3" class="node"><title>6</title>
<ellipse fill="none" stroke="black" cx="526.07" cy="-32" rx="15.9005" ry="16.0303"/>
<text text-anchor="middle" x="526.07" y="-27.8" font-family="Times,serif" font-size="14.00">6</text>
</g>
<!-- 8 -->
<g id="node4" class="node"><title>8</title>
<ellipse fill="none" stroke="black" cx="209.07" cy="-32" rx="15.9005" ry="16.0303"/>
<text text-anchor="middle" x="209.07" y="-27.8" font-family="Times,serif" font-size="14.00">8</text>
</g>
<!-- 9 -->
<g id="node5" class="node"><title>9</title>
<ellipse fill="none" stroke="black" cx="367.07" cy="-32" rx="15.9005" ry="16.0303"/>
<text text-anchor="middle" x="367.07" y="-27.8" font-family="Times,serif" font-size="14.00">9</text>
</g>
<!-- 2&#45;&#45;4 -->
<g id="edge3" class="edge"><title>2&#45;&#45;4</title>
<path fill="none" stroke="black" stroke-width="4" d="M236.237,-279.894C224.643,-264.519 95.4874,-93.2324 59.3916,-45.362"/>
</g>
<!-- 5 -->
<g id="node8" class="node"><title>5</title>
<ellipse fill="black" stroke="black" cx="237.07" cy="-208" rx="1.8" ry="1.8"/>
</g>
<!-- 2&#45;&#45;5 -->
<g id="edge4" class="edge"><title>2&#45;&#45;5</title>
<path fill="none" stroke="blue" stroke-width="4" d="M237.07,-280.191C237.07,-272.899 237.07,-218.55 237.07,-210.102"/>
<text text-anchor="middle" x="272.426" y="-240.636" font-family="Times,serif" font-size="14.00"> γ = 0.75</text>
</g>
<!-- 3&#45;&#45;6 -->
<g id="edge5" class="edge"><title>3&#45;&#45;6</title>
<path fill="none" stroke="black" stroke-width="4" d="M498.249,-205.889C500.177,-193.906 517.177,-88.2629 523.615,-48.2603"/>
</g>
<!-- 7 -->
<g id="node9" class="node"><title>7</title>
<ellipse fill="black" stroke="black" cx="237.07" cy="-134" rx="1.8" ry="1.8"/>
</g>
<!-- 5&#45;&#45;7 -->
<g id="edge6" class="edge"><title>5&#45;&#45;7</title>
<path fill="none" stroke="black" stroke-width="4" d="M237.07,-206.191C237.07,-198.899 237.07,-144.55 237.07,-136.102"/>
</g>
<!-- 7&#45;&#45;8 -->
<g id="edge7" class="edge"><title>7&#45;&#45;8</title>
<path fill="none" stroke="black" stroke-width="4" d="M236.756,-131.877C234.485,-123.766 220.477,-73.7376 213.3,-48.1064"/>
</g>
<!-- 7&#45;&#45;9 -->
<g id="edge8" class="edge"><title>7&#45;&#45;9</title>
<path fill="none" stroke="black" stroke-width="4" d="M237.9,-132.361C246.723,-125.575 323.509,-66.5088 354.339,-42.7934"/>
</g>
</g>
</svg>
